UbuntuCondensed-Regular.ufo
<glyph name="exclam" format="2">
  <advance width="261.385"/>
  <unicode hex="0021"/>
  <outline>
    <contour>
      <point x="106.33000000000001" y="207.035" type="curve"/>
      <point x="155.045" y="207.035" type="line"/>
      <point x="168.735" y="298.66499999999996"/>
      <point x="177.42000000000002" y="405.07"/>
      <point x="177.42000000000002" y="505.025" type="curve" smooth="yes"/>
      <point x="177.42000000000002" y="693.0" type="line"/>
      <point x="84.61999999999999" y="693.0" type="line"/>
      <point x="84.61999999999999" y="505.025" type="line" smooth="yes"/>
      <point x="84.61999999999999" y="405.1605405405405"/>
      <point x="93.30499999999999" y="298.66499999999996"/>
    </contour>
    <contour>
      <point x="130.69" y="-10.675" type="curve" smooth="yes"/>
      <point x="165.73999999999998" y="-10.675"/>
      <point x="189.76500000000001" y="17.36"/>
      <point x="189.76500000000001" y="48.730000000000004" type="curve" smooth="yes"/>
      <point x="189.76500000000001" y="81.10000000000001"/>
      <point x="165.73999999999998" y="108.80499999999999"/>
      <point x="130.69" y="108.80499999999999" type="curve" smooth="yes"/>
      <point x="94.645" y="108.80499999999999"/>
      <point x="72.285" y="81.10000000000001"/>
      <point x="72.285" y="48.730000000000004" type="curve" smooth="yes"/>
      <point x="72.285" y="17.36"/>
      <point x="94.645" y="-10.675"/>
    </contour>
  </outline>
</glyph>
<glyph name="numbersign" format="2">
  <advance width="568.74"/>
  <unicode hex="0023"/>
  <outline>
    <contour>
      <point x="102.32" y="0.0" type="line"/>
      <point x="174.09" y="0.0" type="line"/>
      <point x="199.42" y="184.31" type="line"/>
      <point x="324.315" y="184.31" type="line"/>
      <point x="298.985" y="0.0" type="line"/>
      <point x="370.755" y="0.0" type="line"/>
      <point x="396.085" y="184.31" type="line"/>
      <point x="521.395" y="184.31" type="line"/>
      <point x="521.395" y="249.73" type="line"/>
      <point x="405.42999999999995" y="249.73" type="line"/>
      <point x="431.745" y="442.94" type="line"/>
      <point x="521.395" y="442.94" type="line"/>
      <point x="521.395" y="509.025" type="line"/>
      <point x="441.09" y="509.025" type="line"/>
      <point x="466.42" y="693.0" type="line"/>
      <point x="393.985" y="693.0" type="line"/>
      <point x="368.655" y="509.025" type="line"/>
      <point x="244.425" y="509.025" type="line"/>
      <point x="269.755" y="693.0" type="line"/>
      <point x="197.32" y="693.335" type="line"/>
      <point x="171.98999999999998" y="509.025" type="line"/>
      <point x="47.345" y="509.025" type="line"/>
      <point x="47.345" y="442.94" type="line"/>
      <point x="163.31" y="442.94" type="line"/>
      <point x="136.995" y="249.73" type="line"/>
      <point x="47.345" y="249.73" type="line"/>
      <point x="47.345" y="184.31" type="line"/>
      <point x="127.65" y="184.31" type="line"/>
    </contour>
    <contour>
      <point x="208.76500000000001" y="249.73" type="line"/>
      <point x="235.07999999999998" y="442.94" type="line"/>
      <point x="359.31" y="442.94" type="line"/>
      <point x="332.995" y="249.73" type="line"/>
    </contour>
  </outline>
</glyph>
<glyph name="dollar" format="2">
  <advance width="432.34499999999997"/>
  <unicode hex="0024"/>
  <outline>
    <contour>
      <point x="175.94500000000002" y="-109.0" type="line"/>
      <point x="252.715" y="-109.0" type="line"/>
      <point x="252.715" y="23.654999999999998" type="line"/>
      <point x="331.05" y="45.010000000000005"/>
      <point x="374.73" y="111.69"/>
      <point x="374.73" y="193.03" type="curve" smooth="yes"/>
      <point x="374.73" y="283.98"/>
      <point x="325.11" y="329.66499999999996"/>
      <point x="259.40500000000003" y="374.025" type="curve" smooth="yes"/>
      <point x="196.35999999999999" y="416.39"/>
      <point x="154.41" y="443.715"/>
      <point x="154.41" y="502.65999999999997" type="curve" smooth="yes"/>
      <point x="154.41" y="562.9399999999999"/>
      <point x="190.04" y="592.585"/>
      <point x="243.345" y="592.585" type="curve" smooth="yes"/>
      <point x="273.685" y="592.585"/>
      <point x="307.03000000000003" y="583.58"/>
      <point x="334.69" y="567.5749999999999" type="curve"/>
      <point x="356.71999999999997" y="637.005" type="line"/>
      <point x="328.71" y="652.015"/>
      <point x="292.71" y="662.685"/>
      <point x="256.04" y="665.6899999999999" type="curve"/>
      <point x="256.04" y="776.0" type="line"/>
      <point x="178.60500000000002" y="776.0" type="line"/>
      <point x="178.60500000000002" y="658.01" type="line"/>
      <point x="105.945" y="636.66"/>
      <point x="63.940000000000005" y="573.32"/>
      <point x="63.940000000000005" y="497.98" type="curve" smooth="yes"/>
      <point x="63.940000000000005" y="407.69"/>
      <point x="118.565" y="365.0"/>
      <point x="183.26000000000002" y="321.64500000000004" type="curve" smooth="yes"/>
      <point x="242.63500000000002" y="281.615"/>
      <point x="283.59499999999997" y="249.96"/>
      <point x="283.59499999999997" y="184.67" type="curve" smooth="yes"/>
      <point x="283.59499999999997" y="127.08076923076923"/>
      <point x="250.60999999999999" y="90.755"/>
      <point x="187.645" y="90.755" type="curve" smooth="yes"/>
      <point x="147.56567961165047" y="90.755"/>
      <point x="108.59181317118504" y="105.21478356209663"/>
      <point x="77.32000000000001" y="126.77000000000001" type="curve"/>
      <point x="53.28" y="53.655" type="line"/>
      <point x="82.61" y="33.985"/>
      <point x="128.28" y="19.98"/>
      <point x="175.94500000000002" y="15.974999999999998" type="curve"/>
    </contour>
  </outline>
</glyph>
<glyph name="percent" format="2">
  <advance width="660.745"/>
  <unicode hex="0025"/>
  <outline>
    <contour>
      <point x="151.66500000000002" y="0.0" type="line"/>
      <point x="226.095" y="0.0" type="line"/>
      <point x="505.09" y="693.0" type="line"/>
      <point x="430.65999999999997" y="693.0" type="line"/>
    </contour>
    <contour>
      <point x="167.335" y="338.95500000000004" type="curve" smooth="yes"/>
      <point x="245.02499999999998" y="338.95500000000004"/>
      <point x="284.71000000000004" y="401.635"/>
      <point x="284.71000000000004" y="522.9799999999999" type="curve"/>
      <point x="284.71000000000004" y="644.655"/>
      <point x="245.02499999999998" y="707.0"/>
      <point x="167.335" y="707.0" type="curve"/>
      <point x="90.31" y="707.0"/>
      <point x="50.625" y="644.655"/>
      <point x="50.625" y="522.9799999999999" type="curve" smooth="yes"/>
      <point x="50.625" y="401.635"/>
      <point x="90.31" y="338.95500000000004"/>
    </contour>
    <contour>
      <point x="167.335" y="399.695" type="curve" smooth="yes"/>
      <point x="135.69" y="399.695"/>
      <point x="121.71" y="432.0"/>
      <point x="121.71" y="522.9799999999999" type="curve"/>
      <point x="121.71" y="613.955"/>
      <point x="135.69" y="646.26"/>
      <point x="167.335" y="646.26" type="curve" smooth="yes"/>
      <point x="199.645" y="646.26"/>
      <point x="212.96" y="613.955"/>
      <point x="212.96" y="522.9799999999999" type="curve"/>
      <point x="212.96" y="432.0"/>
      <point x="199.645" y="399.695"/>
    </contour>
    <contour>
      <point x="493.40999999999997" y="-13.670000000000002" type="curve" smooth="yes"/>
      <point x="570.435" y="-13.670000000000002"/>
      <point x="610.1199999999999" y="49.01"/>
      <point x="610.1199999999999" y="171.02" type="curve" smooth="yes"/>
      <point x="610.1199999999999" y="292.03000000000003"/>
      <point x="570.435" y="354.375"/>
      <point x="493.40999999999997" y="354.375" type="curve" smooth="yes"/>
      <point x="415.71999999999997" y="354.375"/>
      <point x="376.035" y="292.03000000000003"/>
      <point x="376.035" y="171.02" type="curve"/>
      <point x="376.035" y="49.01"/>
      <point x="415.71999999999997" y="-13.670000000000002"/>
    </contour>
    <contour>
      <point x="493.40999999999997" y="47.07" type="curve" smooth="yes"/>
      <point x="461.1" y="47.07"/>
      <point x="447.785" y="79.375"/>
      <point x="447.785" y="171.02" type="curve"/>
      <point x="447.785" y="261.33000000000004"/>
      <point x="461.1" y="294.3"/>
      <point x="493.40999999999997" y="294.3" type="curve" smooth="yes"/>
      <point x="525.055" y="294.3"/>
      <point x="539.0350000000001" y="261.33000000000004"/>
      <point x="539.0350000000001" y="171.02" type="curve" smooth="yes"/>
      <point x="539.0350000000001" y="79.375"/>
      <point x="525.055" y="47.07"/>
    </contour>
  </outline>
</glyph>
<glyph name="ampersand" format="2">
  <advance width="514.765"/>
  <unicode hex="0026"/>
  <outline>
    <contour>
      <point x="229.36499999999998" y="-10.675" type="curve" smooth="yes"/>
      <point x="285.35499999999996" y="-10.675"/>
      <point x="341.35" y="19.974999999999998"/>
      <point x="383.34499999999997" y="73.95" type="curve"/>
      <point x="399.665" y="48.97"/>
      <point x="413.985" y="24.32"/>
      <point x="424.31" y="0.0" type="curve"/>
      <point x="508.425" y="0.0" type="line"/>
      <point x="487.75" y="49.03"/>
      <point x="460.75" y="96.71000000000001"/>
      <point x="431.425" y="140.36999999999998" type="curve"/>
      <point x="460.755" y="199.04"/>
      <point x="478.74" y="272.705"/>
      <point x="483.73999999999995" y="353.69" type="curve"/>
      <point x="413.65" y="363.03499999999997" type="line"/>
      <point x="409.32" y="303.40999999999997"/>
      <point x="398.335" y="249.775"/>
      <point x="383.02000000000004" y="205.46" type="curve"/>
      <point x="261.775" y="369.985" type="line"/>
      <point x="327.45" y="421.0"/>
      <point x="375.745" y="479.345"/>
      <point x="375.745" y="561.65" type="curve" smooth="yes"/>
      <point x="375.745" y="645.355"/>
      <point x="332.715" y="707.0"/>
      <point x="239.03" y="707.0" type="curve" smooth="yes"/>
      <point x="149.32999999999998" y="707.0"/>
      <point x="94.645" y="645.3299999999999"/>
      <point x="94.645" y="549.31" type="curve" smooth="yes"/>
      <point x="94.645" y="484.99"/>
      <point x="120.615" y="434.015"/>
      <point x="158.62" y="380.34000000000003" type="curve"/>
      <point x="86.6" y="323.305"/>
      <point x="44.31" y="264.965"/>
      <point x="44.31" y="170.34" type="curve" smooth="yes"/>
      <point x="44.31" y="77.625"/>
      <point x="105.365" y="-10.675"/>
    </contour>
    <contour>
      <point x="232.705" y="62.43" type="curve" smooth="yes"/>
      <point x="168.09" y="62.43"/>
      <point x="127.09" y="110.38"/>
      <point x="127.09" y="179.02499999999998" type="curve" smooth="yes"/>
      <point x="127.09" y="242.29999999999998"/>
      <point x="153.055" y="287.615"/>
      <point x="198.345" y="326.27" type="curve"/>
      <point x="344.295" y="130.685" type="line"/>
      <point x="313.98" y="87.065"/>
      <point x="274.675" y="62.43"/>
    </contour>
    <contour>
      <point x="221.385" y="423.71999999999997" type="curve"/>
      <point x="191.055" y="467.38"/>
      <point x="170.41" y="507.02000000000004"/>
      <point x="170.41" y="550.645" type="curve" smooth="yes"/>
      <point x="170.41" y="608.615"/>
      <point x="192.395" y="640.25"/>
      <point x="236.355" y="640.25" type="curve" smooth="yes"/>
      <point x="273.995" y="640.25"/>
      <point x="299.97999999999996" y="613.27"/>
      <point x="299.97999999999996" y="560.645" type="curve" smooth="yes"/>
      <point x="299.97999999999996" y="503.01500000000004"/>
      <point x="269.02500000000003" y="462.045"/>
    </contour>
  </outline>
</glyph>
<glyph name="quotesingle" format="2">
  <advance width="207.07"/>
  <unicode hex="0027"/>
  <outline>
    <contour>
      <point x="79.67" y="500.26" type="curve"/>
      <point x="126.735" y="500.26" type="line"/>
      <point x="137.75" y="567.25"/>
      <point x="145.76500000000001" y="641.65"/>
      <point x="145.76500000000001" y="702.965" type="curve"/>
      <point x="145.76500000000001" y="760.0" type="line"/>
      <point x="61.305" y="760.0" type="line"/>
      <point x="61.305" y="703.6300000000001" type="line"/>
      <point x="61.305" y="641.6500000000001"/>
      <point x="68.655" y="567.25"/>
    </contour>
  </outline>
</glyph>
<glyph name="parenleft" format="2">
  <advance width="285.735"/>
  <unicode hex="0028"/>
  <outline>
    <contour>
      <point x="211.995" y="-187.0" type="curve"/>
      <point x="278.745" y="-149.61" type="line"/>
      <point x="203.79000000000002" y="-17.025000000000002"/>
      <point x="161.435" y="130.965"/>
      <point x="161.435" y="299.0" type="curve"/>
      <point x="161.435" y="467.035"/>
      <point x="203.79000000000002" y="615.025"/>
      <point x="278.745" y="747.61" type="curve"/>
      <point x="211.995" y="785.0" type="line"/>
      <point x="126.35" y="648.755"/>
      <point x="75.64999999999999" y="480.71"/>
      <point x="75.64999999999999" y="299.0" type="curve" smooth="yes"/>
      <point x="75.64999999999999" y="117.29"/>
      <point x="126.35" y="-50.754999999999995"/>
    </contour>
  </outline>
</glyph>
<glyph name="parenright" format="2">
  <advance width="285.735"/>
  <unicode hex="0029"/>
  <outline>
    <contour>
      <point x="73.74" y="-187.0" type="line"/>
      <point x="159.385" y="-50.754999999999995"/>
      <point x="210.08499999999998" y="117.29"/>
      <point x="210.08499999999998" y="299.0" type="curve" smooth="yes"/>
      <point x="210.08499999999998" y="480.71"/>
      <point x="159.385" y="648.755"/>
      <point x="73.74" y="785.0" type="curve"/>
      <point x="6.99" y="747.61" type="line"/>
      <point x="81.94500000000001" y="615.025"/>
      <point x="124.3" y="467.035"/>
      <point x="124.3" y="299.0" type="curve"/>
      <point x="124.3" y="130.965"/>
      <point x="81.94500000000001" y="-17.025000000000002"/>
      <point x="6.99" y="-149.61" type="curve"/>
    </contour>
  </outline>
</glyph>
<glyph name="asterisk" format="2">
  <advance width="393.06"/>
  <unicode hex="002A"/>
  <outline>
    <contour>
      <point x="139.4" y="400.61" type="line"/>
      <point x="163.7" y="433.565"/>
      <point x="178.355" y="468.195"/>
      <point x="196.035" y="519.295" type="curve"/>
      <point x="213.715" y="468.53"/>
      <point x="228.37" y="433.90000000000003"/>
      <point x="252.335" y="400.945" type="curve"/>
      <point x="319.09000000000003" y="449.675" type="line"/>
      <point x="296.455" y="483.29499999999996"/>
      <point x="269.15000000000003" y="508.60499999999996"/>
      <point x="225.725" y="541.3149999999999" type="curve"/>
      <point x="284.14500000000004" y="542.63"/>
      <point x="318.115" y="546.96"/>
      <point x="353.73499999999996" y="559.61" type="curve"/>
      <point x="328.70000000000005" y="638.38" type="line"/>
      <point x="290.42" y="626.395"/>
      <point x="258.45" y="607.085"/>
      <point x="214.38" y="576.68" type="curve"/>
      <point x="230.425" y="627.7650000000001"/>
      <point x="238.41500000000002" y="664.725"/>
      <point x="237.75" y="707.0" type="curve"/>
      <point x="155.64" y="707.0" type="line"/>
      <point x="154.975" y="664.7249999999999"/>
      <point x="162.965" y="627.765"/>
      <point x="178.345" y="576.01" type="curve"/>
      <point x="134.61" y="607.0799999999999"/>
      <point x="102.31" y="625.725"/>
      <point x="63.695" y="638.375" type="curve"/>
      <point x="38.660000000000004" y="560.27" type="line"/>
      <point x="76.61" y="546.29"/>
      <point x="106.255" y="541.9599999999999"/>
      <point x="166.34" y="541.31" type="curve"/>
      <point x="124.57999999999998" y="508.935"/>
      <point x="96.28" y="482.96000000000004"/>
      <point x="73.31" y="449.34" type="curve"/>
    </contour>
  </outline>
</glyph>
<glyph name="plus" format="2">
  <advance width="430.01"/>
  <unicode hex="002B"/>
  <outline>
    <contour>
      <point x="177.95999999999998" y="117.995" type="line"/>
      <point x="251.38500000000002" y="117.995" type="line"/>
      <point x="251.38500000000002" y="262.95" type="line"/>
      <point x="386.685" y="262.95" type="line"/>
      <point x="386.685" y="336.05" type="line"/>
      <point x="251.38500000000002" y="336.05" type="line"/>
      <point x="251.38500000000002" y="480.0" type="line"/>
      <point x="177.95999999999998" y="480.0" type="line"/>
      <point x="177.95999999999998" y="336.05" type="line"/>
      <point x="42.660000000000004" y="336.05" type="line"/>
      <point x="42.660000000000004" y="262.95" type="line"/>
      <point x="177.95999999999998" y="262.95" type="line"/>
    </contour>
  </outline>
</glyph>
<glyph name="comma" format="2">
  <advance width="225.405"/>
  <unicode hex="002C"/>
  <outline>
    <contour>
      <point x="101.08" y="-147.025" type="line"/>
      <point x="139.10500000000002" y="-79.32"/>
      <point x="163.11" y="-4.9399999999999995"/>
      <point x="163.11" y="72.74" type="curve" smooth="yes"/>
      <point x="163.11" y="85.075"/>
      <point x="163.11" y="95.405"/>
      <point x="161.775" y="111.09" type="curve"/>
      <point x="73.655" y="111.09" type="line"/>
      <point x="74.655" y="97.095"/>
      <point x="75.99" y="74.73"/>
      <point x="75.99" y="60.39" type="curve" smooth="yes"/>
      <point x="75.99" y="0.38500000000000156"/>
      <point x="66.32000000000001" y="-65.975"/>
      <point x="38.32" y="-129.665" type="curve"/>
    </contour>
  </outline>
</glyph>
<glyph name="hyphen" format="2">
  <advance width="242.41"/>
  <unicode hex="002D"/>
  <outline>
    <contour>
      <point x="26.330000000000002" y="255.3" type="line"/>
      <point x="216.08" y="255.3" type="line"/>
      <point x="216.08" y="334.08" type="line"/>
      <point x="26.330000000000002" y="334.08" type="line"/>
    </contour>
  </outline>
</glyph>
<glyph name="period" format="2">
  <advance width="225.405"/>
  <unicode hex="002E"/>
  <outline>
    <contour>
      <point x="112.035" y="-10.675" type="curve" smooth="yes"/>
      <point x="147.75" y="-10.675"/>
      <point x="171.44" y="16.69"/>
      <point x="171.44" y="47.39" type="curve" smooth="yes"/>
      <point x="171.44" y="79.09"/>
      <point x="147.75" y="106.46"/>
      <point x="112.035" y="106.46" type="curve" smooth="yes"/>
      <point x="76.99000000000001" y="106.46"/>
      <point x="53.964999999999996" y="79.09"/>
      <point x="53.964999999999996" y="47.39" type="curve" smooth="yes"/>
      <point x="53.964999999999996" y="16.69"/>
      <point x="76.99000000000001" y="-10.675"/>
    </contour>
  </outline>
</glyph>
<glyph name="slash" format="2">
  <advance width="274.795"/>
  <unicode hex="002F"/>
  <outline>
    <contour>
      <point x="-24.325000000000003" y="-185.0" type="line"/>
      <point x="55.455" y="-185.0" type="line"/>
      <point x="298.455" y="783.0" type="line"/>
      <point x="218.01" y="783.0" type="line"/>
    </contour>
  </outline>
</glyph>
<glyph name="zero" format="2">
  <advance width="430.01"/>
  <unicode hex="0030"/>
  <outline>
    <contour>
      <point x="215.005" y="-13.334999999999999" type="curve" smooth="yes"/>
      <point x="331.5735185185185" y="-13.334999999999999"/>
      <point x="381.39" y="89.67499999999998"/>
      <point x="381.39" y="347.0" type="curve" smooth="yes"/>
      <point x="381.39" y="604.99"/>
      <point x="331.5735185185185" y="707.6650000000001"/>
      <point x="215.005" y="707.6650000000001" type="curve" smooth="yes"/>
      <point x="97.77357142857142" y="707.6650000000001"/>
      <point x="48.62" y="605.995"/>
      <point x="48.62" y="347.0" type="curve" smooth="yes"/>
      <point x="48.62" y="88.335"/>
      <point x="97.77357142857143" y="-13.334999999999999"/>
    </contour>
    <contour>
      <point x="215.005" y="62.440000000000005" type="curve" smooth="yes"/>
      <point x="160.256" y="62.440000000000005"/>
      <point x="138.755" y="133.500625"/>
      <point x="138.755" y="347.0" type="curve" smooth="yes"/>
      <point x="138.755" y="560.8288493723849"/>
      <point x="159.591" y="631.89"/>
      <point x="215.005" y="631.89" type="curve" smooth="yes"/>
      <point x="269.75399999999996" y="631.89"/>
      <point x="291.255" y="560.8288493723849"/>
      <point x="291.255" y="347.0" type="curve" smooth="yes"/>
      <point x="291.255" y="133.500625"/>
      <point x="270.419" y="62.440000000000005"/>
    </contour>
  </outline>
</glyph>
<glyph name="one" format="2">
  <advance width="430.01"/>
  <unicode hex="0031"/>
  <outline>
    <contour>
      <point x="195.63500000000002" y="0.0" type="line"/>
      <point x="281.765" y="0.0" type="line"/>
      <point x="281.765" y="693.0" type="line"/>
      <point x="217.015" y="693.0" type="line"/>
      <point x="186.655" y="642.32"/>
      <point x="128.975" y="587.3299999999999"/>
      <point x="72.29" y="553.6650000000001" type="curve"/>
      <point x="106.33" y="490.90000000000003" type="line"/>
      <point x="140.3" y="510.20500000000004"/>
      <point x="169.635" y="531.525"/>
      <point x="195.63500000000002" y="558.5" type="curve"/>
    </contour>
  </outline>
</glyph>
<glyph name="two" format="2">
  <advance width="430.01"/>
  <unicode hex="0032"/>
  <outline>
    <contour>
      <point x="57.96" y="0.0" type="curve"/>
      <point x="378.04999999999995" y="0.0" type="line"/>
      <point x="378.04999999999995" y="75.43" type="line"/>
      <point x="152.44500000000002" y="75.43" type="line"/>
      <point x="159.785" y="169.02"/>
      <point x="202.39499999999998" y="232.29500000000002"/>
      <point x="256.735" y="307.97499999999997" type="curve" smooth="yes"/>
      <point x="312.09000000000003" y="386.34"/>
      <point x="359.08" y="452.67"/>
      <point x="359.08" y="540.3249999999999" type="curve" smooth="yes"/>
      <point x="359.08" y="647.3100000000001"/>
      <point x="298.06" y="707.6650000000001"/>
      <point x="194.375" y="707.6650000000001" type="curve" smooth="yes"/>
      <point x="135.01" y="707.6650000000001"/>
      <point x="82.32000000000001" y="687.3249999999999"/>
      <point x="42.635" y="648.9899999999999" type="curve"/>
      <point x="83.355" y="589.9" type="line"/>
      <point x="111.355" y="615.23"/>
      <point x="143.34" y="631.225"/>
      <point x="181.32999999999998" y="631.225" type="curve"/>
      <point x="237.62" y="631.225"/>
      <point x="269.61" y="600.26"/>
      <point x="269.61" y="533.3" type="curve" smooth="yes"/>
      <point x="269.61" y="458.34499999999997"/>
      <point x="226.625" y="402.02"/>
      <point x="174.61" y="330.32500000000005" type="curve" smooth="yes"/>
      <point x="116.61" y="250.64999999999998"/>
      <point x="57.96" y="159.965"/>
      <point x="57.96" y="19.0" type="curve" smooth="yes"/>
      <point x="57.96" y="12.890455000000001"/>
      <point x="57.959999999999994" y="6.109544999999999"/>
    </contour>
  </outline>
</glyph>
<glyph name="three" format="2">
  <advance width="430.01"/>
  <unicode hex="0033"/>
  <outline>
    <contour>
      <point x="176.32999999999998" y="-14.665" type="curve" smooth="yes"/>
      <point x="295.03999999999996" y="-14.665"/>
      <point x="368.07" y="61.019999999999996"/>
      <point x="368.07" y="190.35999999999999" type="curve" smooth="yes"/>
      <point x="368.07" y="284.65999999999997"/>
      <point x="331.76000000000005" y="342.635"/>
      <point x="258.765" y="370.66" type="curve"/>
      <point x="320.095" y="399.335"/>
      <point x="351.09" y="459.66"/>
      <point x="351.09" y="537.325" type="curve" smooth="yes"/>
      <point x="351.09" y="641.6650000000001"/>
      <point x="289.71999999999997" y="707.6650000000001"/>
      <point x="187.03" y="707.6650000000001" type="curve" smooth="yes"/>
      <point x="135.99" y="707.6650000000001"/>
      <point x="83.64500000000001" y="691.0"/>
      <point x="48.300000000000004" y="661.0" type="curve"/>
      <point x="80.67500000000001" y="599.245" type="line"/>
      <point x="107.015" y="619.57"/>
      <point x="139.99" y="631.89"/>
      <point x="171.975" y="631.89" type="curve" smooth="yes"/>
      <point x="229.965" y="631.89"/>
      <point x="262.95" y="593.575"/>
      <point x="262.95" y="526.95" type="curve" smooth="yes"/>
      <point x="262.95" y="459.32"/>
      <point x="230.945" y="404.04"/>
      <point x="151.01" y="404.04" type="curve" smooth="yes"/>
      <point x="120.28999999999999" y="404.04" type="line"/>
      <point x="120.28999999999999" y="330.94" type="line"/>
      <point x="151.335" y="330.94" type="line"/>
      <point x="237.62" y="330.94"/>
      <point x="279.92999999999995" y="283.31"/>
      <point x="279.92999999999995" y="191.7" type="curve" smooth="yes"/>
      <point x="279.92999999999995" y="98.435"/>
      <point x="233.635" y="61.11"/>
      <point x="168.31" y="61.11" type="curve" smooth="yes"/>
      <point x="130.315" y="61.11"/>
      <point x="93.98" y="73.105"/>
      <point x="62.33" y="92.1" type="curve"/>
      <point x="39.635" y="21.330000000000002" type="line"/>
      <point x="75.63" y="-1.3349999999999997"/>
      <point x="124.97" y="-14.665"/>
    </contour>
  </outline>
</glyph>
<glyph name="four" format="2">
  <advance width="430.01"/>
  <unicode hex="0034"/>
  <outline>
    <contour>
      <point x="255.94" y="0.0" type="line"/>
      <point x="336.395" y="0.0" type="line"/>
      <point x="336.395" y="164.28" type="line"/>
      <point x="405.05" y="164.28" type="line"/>
      <point x="405.05" y="234.37" type="line"/>
      <point x="336.395" y="234.37" type="line"/>
      <point x="336.395" y="693.0" type="line"/>
      <point x="248.27" y="693.0" type="line"/>
      <point x="187.26" y="591.665"/>
      <point x="89.28" y="393.98499999999996"/>
      <point x="40.290000000000006" y="226.365" type="curve"/>
      <point x="40.290000000000006" y="164.28" type="line"/>
      <point x="255.94" y="164.28" type="line"/>
    </contour>
    <contour>
      <point x="114.055" y="234.37" type="line"/>
      <point x="147.7" y="350.28999999999996"/>
      <point x="204.305" y="479.2"/>
      <point x="255.94" y="577.165" type="curve"/>
      <point x="255.94" y="234.37" type="line"/>
    </contour>
  </outline>
</glyph>
<glyph name="five" format="2">
  <advance width="430.01"/>
  <unicode hex="0035"/>
  <outline>
    <contour>
      <point x="171.345" y="-14.665" type="curve"/>
      <point x="287.72" y="-14.665"/>
      <point x="366.4" y="74.70500000000001"/>
      <point x="366.4" y="208.685" type="curve" smooth="yes"/>
      <point x="366.4" y="326.34000000000003"/>
      <point x="307.06" y="399.025"/>
      <point x="175.715" y="420.70500000000004" type="curve"/>
      <point x="180.38" y="474.34999999999997"/>
      <point x="183.38" y="533.3199999999999"/>
      <point x="186.375" y="618.9" type="curve"/>
      <point x="350.725" y="618.9" type="line"/>
      <point x="350.725" y="693.0" type="line"/>
      <point x="111.60499999999999" y="693.0" type="line"/>
      <point x="110.61" y="593.695"/>
      <point x="104.265" y="471.24"/>
      <point x="92.6" y="356.945" type="curve"/>
      <point x="222.295" y="349.945"/>
      <point x="278.26" y="301.95500000000004"/>
      <point x="278.26" y="208.35000000000002" type="curve" smooth="yes"/>
      <point x="278.26" y="113.73"/>
      <point x="232.95999999999998" y="61.775"/>
      <point x="164.315" y="61.775" type="curve" smooth="yes"/>
      <point x="133.305" y="61.775"/>
      <point x="99.985" y="70.775"/>
      <point x="72.66" y="85.77499999999999" type="curve"/>
      <point x="49.3" y="15.004999999999999" type="line"/>
      <point x="85.295" y="-4.33"/>
      <point x="126.645" y="-14.665"/>
    </contour>
  </outline>
</glyph>
<glyph name="six" format="2">
  <advance width="430.01"/>
  <unicode hex="0036"/>
  <outline>
    <contour>
      <point x="224.985" y="-13.334999999999999" type="curve" smooth="yes"/>
      <point x="327.675" y="-13.334999999999999"/>
      <point x="383.715" y="75.345"/>
      <point x="383.715" y="217.01999999999998" type="curve" smooth="yes"/>
      <point x="383.715" y="346.35499999999996"/>
      <point x="329.03" y="426.35499999999996"/>
      <point x="233.685" y="426.35499999999996" type="curve" smooth="yes"/>
      <point x="206.03500000000003" y="426.35499999999996"/>
      <point x="179.39000000000001" y="419.365"/>
      <point x="154.41" y="406.71" type="curve"/>
      <point x="178.75" y="564.915"/>
      <point x="249.06" y="617.25"/>
      <point x="351.39" y="625.57" type="curve"/>
      <point x="342.71000000000004" y="696.005" type="line"/>
      <point x="143.375" y="689.355"/>
      <point x="58.925000000000004" y="506.4"/>
      <point x="58.925000000000004" y="290.645" type="curve" smooth="yes"/>
      <point x="58.925000000000004" y="71.69"/>
      <point x="112.935" y="-13.334999999999999"/>
    </contour>
    <contour>
      <point x="223.65" y="61.11" type="curve" smooth="yes"/>
      <point x="158.06" y="61.11"/>
      <point x="145.395" y="151.315"/>
      <point x="145.395" y="279.615" type="curve" smooth="yes"/>
      <point x="145.395" y="293.60999999999996"/>
      <point x="146.395" y="314.60999999999996"/>
      <point x="148.065" y="336.28999999999996" type="curve"/>
      <point x="168.37" y="348.935"/>
      <point x="191.67000000000002" y="355.59"/>
      <point x="211.985" y="355.59" type="curve"/>
      <point x="270.951320754717" y="355.59"/>
      <point x="296.25" y="309.64"/>
      <point x="296.25" y="213.01999999999998" type="curve" smooth="yes"/>
      <point x="296.25" y="117.05"/>
      <point x="276.25404761904764" y="61.11"/>
    </contour>
  </outline>
</glyph>
<glyph name="seven" format="2">
  <advance width="430.01"/>
  <unicode hex="0037"/>
  <outline>
    <contour>
      <point x="113.61" y="0.0" type="curve"/>
      <point x="201.73999999999998" y="0.0" type="line"/>
      <point x="214.75" y="218.28"/>
      <point x="294.375" y="485.86"/>
      <point x="378.06" y="630.25" type="curve"/>
      <point x="378.06" y="693.0" type="line"/>
      <point x="44.97" y="693.0" type="line"/>
      <point x="44.97" y="616.56" type="line"/>
      <point x="283.94000000000005" y="616.56" type="line"/>
      <point x="204.95499999999998" y="466.275"/>
      <point x="122.95" y="184.64000000000001"/>
    </contour>
  </outline>
</glyph>
<glyph name="eight" format="2">
  <advance width="430.01"/>
  <unicode hex="0038"/>
  <outline>
    <contour>
      <point x="214.0" y="-13.67" type="curve" smooth="yes"/>
      <point x="309.40999999999997" y="-13.67"/>
      <point x="382.05" y="55.035000000000004"/>
      <point x="382.05" y="172.345" type="curve" smooth="yes"/>
      <point x="382.05" y="250.33499999999998"/>
      <point x="340.76000000000005" y="303.99"/>
      <point x="279.07" y="354.35499999999996" type="curve"/>
      <point x="331.075" y="404.045"/>
      <point x="369.705" y="466.03"/>
      <point x="369.705" y="540.0" type="curve" smooth="yes"/>
      <point x="369.705" y="651.635"/>
      <point x="299.37" y="707.6650000000001"/>
      <point x="215.32" y="707.6650000000001" type="curve" smooth="yes"/>
      <point x="136.60999999999999" y="707.6650000000001"/>
      <point x="61.28" y="649.285"/>
      <point x="61.28" y="538.975" type="curve" smooth="yes"/>
      <point x="61.28" y="463.005"/>
      <point x="92.585" y="407.355"/>
      <point x="148.58999999999997" y="359.65999999999997" type="curve"/>
      <point x="86.94" y="306.975"/>
      <point x="47.295" y="246.655"/>
      <point x="47.295" y="165.665" type="curve" smooth="yes"/>
      <point x="47.295" y="64.68"/>
      <point x="111.96000000000001" y="-13.67"/>
    </contour>
    <contour>
      <point x="216.67" y="55.425000000000004" type="curve" smooth="yes"/>
      <point x="163.385" y="55.425000000000004"/>
      <point x="134.095" y="102.39500000000001"/>
      <point x="134.095" y="172.67499999999998" type="curve" smooth="yes"/>
      <point x="134.095" y="238.95"/>
      <point x="159.71" y="279.925"/>
      <point x="199.32" y="319.59" type="curve"/>
      <point x="254.31" y="275.58500000000004"/>
      <point x="295.915" y="231.28"/>
      <point x="295.915" y="167.33499999999998" type="curve" smooth="yes"/>
      <point x="295.915" y="92.05499999999999"/>
      <point x="259.96" y="55.425000000000004"/>
    </contour>
    <contour>
      <point x="228.68" y="392.745" type="curve"/>
      <point x="171.025" y="438.09"/>
      <point x="144.065" y="478.065"/>
      <point x="144.065" y="546.655" type="curve" smooth="yes"/>
      <point x="144.065" y="617.24"/>
      <point x="181.67" y="638.5699999999999"/>
      <point x="215.655" y="638.5699999999999" type="curve" smooth="yes"/>
      <point x="257.29" y="638.5699999999999"/>
      <point x="286.255" y="609.915"/>
      <point x="286.255" y="534.665" type="curve" smooth="yes"/>
      <point x="286.255" y="468.38"/>
      <point x="264.63000000000005" y="431.39"/>
    </contour>
  </outline>
</glyph>
<glyph name="nine" format="2">
  <advance width="430.01"/>
  <unicode hex="0039"/>
  <outline>
    <contour>
      <point x="86.295" y="-2.0" type="line"/>
      <point x="293.97499999999997" y="4.65"/>
      <point x="374.07000000000005" y="181.91"/>
      <point x="374.07000000000005" y="403.685" type="curve" smooth="yes"/>
      <point x="374.07000000000005" y="623.3100000000001"/>
      <point x="319.055" y="707.665"/>
      <point x="207.345" y="707.665" type="curve" smooth="yes"/>
      <point x="104.655" y="707.665"/>
      <point x="48.615" y="618.985"/>
      <point x="48.615" y="477.31" type="curve" smooth="yes"/>
      <point x="48.615" y="347.31"/>
      <point x="104.63" y="267.31"/>
      <point x="199.97500000000002" y="267.31" type="curve" smooth="yes"/>
      <point x="226.29" y="267.31"/>
      <point x="252.27" y="274.3"/>
      <point x="278.59000000000003" y="286.29" type="curve"/>
      <point x="256.59499999999997" y="128.74"/>
      <point x="185.295" y="76.085"/>
      <point x="76.95" y="69.10000000000001" type="curve"/>
    </contour>
    <contour>
      <point x="221.01000000000002" y="338.075" type="curve" smooth="yes"/>
      <point x="162.04367924528302" y="338.075"/>
      <point x="136.08" y="384.025"/>
      <point x="136.08" y="481.31" type="curve" smooth="yes"/>
      <point x="136.08" y="577.28"/>
      <point x="156.44285714285715" y="633.22"/>
      <point x="208.68" y="633.22" type="curve" smooth="yes"/>
      <point x="274.27" y="633.22"/>
      <point x="286.935" y="542.68"/>
      <point x="286.935" y="414.71500000000003" type="curve" smooth="yes"/>
      <point x="286.935" y="400.39"/>
      <point x="285.935" y="379.055"/>
      <point x="284.265" y="356.71" type="curve"/>
      <point x="264.625" y="344.065"/>
      <point x="241.99" y="338.075"/>
    </contour>
  </outline>
</glyph>
<glyph name="less" format="2">
  <advance width="431.34"/>
  <unicode hex="003C"/>
  <outline>
    <contour>
      <point x="347.32" y="79.635" type="line"/>
      <point x="384.69" y="144.4" type="line"/>
      <point x="131.42999999999998" y="294.68" type="line"/>
      <point x="384.69" y="444.96" type="line"/>
      <point x="347.32" y="509.725" type="line"/>
      <point x="45.985" y="325.73" type="line"/>
      <point x="45.985" y="263.63" type="line"/>
    </contour>
  </outline>
</glyph>
<glyph name="equal" format="2">
  <advance width="430.01"/>
  <unicode hex="003D"/>
  <outline>
    <contour>
      <point x="42.660000000000004" y="359.96" type="line"/>
      <point x="386.685" y="359.96" type="line"/>
      <point x="386.685" y="433.06" type="line"/>
      <point x="42.660000000000004" y="433.06" type="line"/>
    </contour>
    <contour>
      <point x="42.660000000000004" y="164.94" type="line"/>
      <point x="386.685" y="164.94" type="line"/>
      <point x="386.685" y="238.04" type="line"/>
      <point x="42.660000000000004" y="238.04" type="line"/>
    </contour>
  </outline>
</glyph>
<glyph name="greater" format="2">
  <advance width="426.02"/>
  <unicode hex="003E"/>
  <outline>
    <contour>
      <point x="81.36" y="79.635" type="line"/>
      <point x="382.69500000000005" y="263.63" type="line"/>
      <point x="382.69500000000005" y="325.73" type="line"/>
      <point x="81.36" y="509.725" type="line"/>
      <point x="43.99" y="444.96" type="line"/>
      <point x="297.25" y="294.68" type="line"/>
      <point x="43.99" y="144.4" type="line"/>
    </contour>
  </outline>
</glyph>
<glyph name="question" format="2">
  <advance width="342.775"/>
  <unicode hex="003F"/>
  <outline>
    <contour>
      <point x="101.345" y="207.035" type="curve"/>
      <point x="179.795" y="207.035" type="line"/>
      <point x="178.13" y="217.35999999999999"/>
      <point x="178.13" y="230.35999999999999"/>
      <point x="178.13" y="239.34" type="curve"/>
      <point x="178.13" y="378.63"/>
      <point x="319.78" y="409.975"/>
      <point x="319.78" y="553.635" type="curve" smooth="yes"/>
      <point x="319.78" y="635.9849999999999"/>
      <point x="266.74" y="707.0"/>
      <point x="157.735" y="707.0" type="curve" smooth="yes"/>
      <point x="103.36999999999999" y="707.0"/>
      <point x="60.01500000000001" y="690.66"/>
      <point x="21.0" y="663.645" type="curve"/>
      <point x="53.699999999999996" y="597.885" type="line"/>
      <point x="82.39" y="619.235"/>
      <point x="111.05" y="630.5600000000001"/>
      <point x="145.70000000000002" y="630.5600000000001" type="curve"/>
      <point x="197.67000000000002" y="630.5600000000001"/>
      <point x="227.315" y="599.915"/>
      <point x="227.315" y="546.615" type="curve" smooth="yes"/>
      <point x="227.315" y="427.34"/>
      <point x="97.67999999999999" y="402.65999999999997"/>
      <point x="97.67999999999999" y="254.02" type="curve" smooth="yes"/>
      <point x="97.67999999999999" y="238.03"/>
      <point x="99.345" y="222.03"/>
    </contour>
    <contour>
      <point x="140.065" y="-10.675" type="curve" smooth="yes"/>
      <point x="175.11499999999998" y="-10.675"/>
      <point x="199.14" y="17.36"/>
      <point x="199.14" y="48.730000000000004" type="curve" smooth="yes"/>
      <point x="199.14" y="81.10000000000001"/>
      <point x="175.11499999999998" y="108.80499999999999"/>
      <point x="140.065" y="108.80499999999999" type="curve" smooth="yes"/>
      <point x="104.02" y="108.80499999999999"/>
      <point x="80.995" y="81.10000000000001"/>
      <point x="80.995" y="48.730000000000004" type="curve" smooth="yes"/>
      <point x="80.995" y="17.36"/>
      <point x="104.02" y="-10.675"/>
    </contour>
  </outline>
</glyph>
<glyph name="at" format="2">
  <advance width="827.735"/>
  <unicode hex="0040"/>
  <outline>
    <contour>
      <point x="414.375" y="-154.35" type="curve" smooth="yes"/>
      <point x="472.395" y="-154.35"/>
      <point x="530.42" y="-143.68499999999997"/>
      <point x="556.085" y="-132.34" type="curve"/>
      <point x="545.405" y="-68.605" type="line"/>
      <point x="518.73" y="-77.61"/>
      <point x="469.715" y="-88.61"/>
      <point x="415.375" y="-88.61" type="curve" smooth="yes"/>
      <point x="231.06" y="-88.61"/>
      <point x="137.06" y="51.010000000000005"/>
      <point x="137.06" y="276.99" type="curve" smooth="yes"/>
      <point x="137.06" y="502.965"/>
      <point x="250.725" y="643.275"/>
      <point x="420.70000000000005" y="643.275" type="curve" smooth="yes"/>
      <point x="618.3349999999999" y="643.275"/>
      <point x="691.3449999999999" y="507.66"/>
      <point x="691.3449999999999" y="325.355" type="curve" smooth="yes"/>
      <point x="691.3449999999999" y="157.98"/>
      <point x="661.6750000000001" y="111.02999999999999"/>
      <point x="615.385" y="111.02999999999999" type="curve" smooth="yes"/>
      <point x="575.4000000000001" y="111.02999999999999"/>
      <point x="560.75" y="136.005"/>
      <point x="560.75" y="190.31" type="curve"/>
      <point x="560.75" y="484.01" type="line"/>
      <point x="533.075" y="497.01000000000005"/>
      <point x="489.05499999999995" y="509.02000000000004"/>
      <point x="436.355" y="509.02000000000004" type="curve" smooth="yes"/>
      <point x="324.98" y="509.02000000000004"/>
      <point x="251.64" y="423.66"/>
      <point x="251.64" y="277.65999999999997" type="curve" smooth="yes"/>
      <point x="251.64" y="135.625"/>
      <point x="303.0" y="47.625"/>
      <point x="413.345" y="47.625" type="curve" smooth="yes"/>
      <point x="450.66999999999996" y="47.625"/>
      <point x="479.33" y="57.94499999999999"/>
      <point x="507.33000000000004" y="84.945" type="curve"/>
      <point x="530.01" y="57.945"/>
      <point x="564.69" y="45.285000000000004"/>
      <point x="611.36" y="45.285000000000004" type="curve" smooth="yes"/>
      <point x="712.0799999999999" y="45.285000000000004"/>
      <point x="765.765" y="133.335"/>
      <point x="765.765" y="322.345" type="curve" smooth="yes"/>
      <point x="765.765" y="557.715"/>
      <point x="647.37" y="709.35"/>
      <point x="419.365" y="709.35" type="curve" smooth="yes"/>
      <point x="218.7" y="709.35"/>
      <point x="61.970000000000006" y="555.695"/>
      <point x="61.970000000000006" y="276.99" type="curve" smooth="yes"/>
      <point x="61.970000000000006" y="-9.06"/>
      <point x="197.035" y="-154.35"/>
    </contour>
    <contour>
      <point x="424.375" y="116.38" type="curve" smooth="yes"/>
      <point x="352.38500000000005" y="116.38"/>
      <point x="336.75" y="188.36499999999998"/>
      <point x="336.75" y="277.325" type="curve" smooth="yes"/>
      <point x="336.75" y="387.285"/>
      <point x="370.38" y="439.935"/>
      <point x="435.695" y="439.935" type="curve" smooth="yes"/>
      <point x="451.665" y="439.935"/>
      <point x="466.65" y="437.94"/>
      <point x="478.31" y="433.60999999999996" type="curve"/>
      <point x="478.31" y="196.675" type="line"/>
      <point x="478.31" y="176.34"/>
      <point x="479.64000000000004" y="157.01"/>
      <point x="483.305" y="139.345" type="curve"/>
      <point x="470.33" y="124.37"/>
      <point x="445.675" y="116.38"/>
    </contour>
  </outline>
</glyph>
<glyph name="A" format="2">
  <advance width="502.095"/>
  <unicode hex="0041"/>
  <anchor x="256.07" y="0.0" name="bottom"/>
  <anchor x="457.445" y="10.0" name="ogonek"/>
  <anchor x="256.07" y="693.0" name="top"/>
  <outline>
    <contour>
      <point x="22.325" y="0.0" type="curve"/>
      <point x="110.795" y="0.0" type="line"/>
      <point x="119.455" y="55.97"/>
      <point x="129.45" y="114.28"/>
      <point x="142.11" y="173.93" type="curve"/>
      <point x="356.65" y="173.93" type="line"/>
      <point x="368.31" y="113.945"/>
      <point x="378.96999999999997" y="55.3"/>
      <point x="388.295" y="0.0" type="curve"/>
      <point x="479.77000000000004" y="0.0" type="line"/>
      <point x="434.44" y="242.60999999999999"/>
      <point x="372.105" y="463.98"/>
      <point x="297.11" y="693.0" type="curve"/>
      <point x="203.655" y="693.0" type="line"/>
      <point x="129.99" y="463.97999999999996"/>
      <point x="67.655" y="242.60999999999999"/>
    </contour>
    <contour>
      <point x="158.125" y="249.03" type="line"/>
      <point x="183.44" y="363.975"/>
      <point x="214.75000000000003" y="481.59"/>
      <point x="249.715" y="595.525" type="curve"/>
      <point x="284.67999999999995" y="480.585"/>
      <point x="315.32" y="363.305"/>
      <point x="340.635" y="249.03" type="curve"/>
    </contour>
  </outline>
</glyph>
<glyph name="B" format="2">
  <advance width="520.0600000000001"/>
  <unicode hex="0042"/>
  <anchor x="261.36" y="0.0" name="bottom"/>
  <anchor x="261.36" y="347.0" name="center"/>
  <anchor x="261.36" y="693.0" name="top"/>
  <outline>
    <contour>
      <point x="233.01500000000001" y="-6.01" type="curve" smooth="yes"/>
      <point x="385.055" y="-6.01"/>
      <point x="474.41" y="57.355000000000004"/>
      <point x="474.41" y="190.02" type="curve" smooth="yes"/>
      <point x="474.41" y="278.005"/>
      <point x="426.09" y="338.675"/>
      <point x="350.76" y="364.675" type="curve"/>
      <point x="413.76" y="390.015"/>
      <point x="451.745" y="445.0"/>
      <point x="451.745" y="522.645" type="curve" smooth="yes"/>
      <point x="451.745" y="644.9749999999999"/>
      <point x="364.41499999999996" y="700.3399999999999"/>
      <point x="226.70499999999998" y="700.3399999999999" type="curve" smooth="yes"/>
      <point x="181.035" y="700.3399999999999"/>
      <point x="132.695" y="694.3399999999999"/>
      <point x="83.32000000000001" y="683.0" type="curve"/>
      <point x="83.32000000000001" y="9.66" type="line"/>
      <point x="133.335" y="-0.01000000000000012"/>
      <point x="186.345" y="-6.01"/>
    </contour>
    <contour>
      <point x="241.36499999999998" y="68.425" type="curve" smooth="yes"/>
      <point x="219.73000000000002" y="68.425"/>
      <point x="192.42000000000002" y="71.755"/>
      <point x="172.785" y="74.75" type="curve"/>
      <point x="172.785" y="324.28" type="line"/>
      <point x="243.38" y="324.28" type="line" smooth="yes"/>
      <point x="332.645" y="324.28"/>
      <point x="381.605" y="273.985"/>
      <point x="381.605" y="191.695" type="curve" smooth="yes"/>
      <point x="381.605" y="104.30494949494948"/>
      <point x="330.30999999999995" y="68.425"/>
    </contour>
    <contour>
      <point x="172.785" y="396.38" type="line"/>
      <point x="172.785" y="620.58" type="line"/>
      <point x="190.77" y="623.5749999999999"/>
      <point x="211.075" y="625.24"/>
      <point x="232.72" y="625.24" type="curve" smooth="yes"/>
      <point x="314.325" y="625.24"/>
      <point x="358.94" y="596.58"/>
      <point x="358.94" y="511.64000000000004" type="curve" smooth="yes"/>
      <point x="358.94" y="436.015"/>
      <point x="316.305" y="396.38"/>
      <point x="233.355" y="396.38" type="curve" smooth="yes"/>
    </contour>
  </outline>
</glyph>
<glyph name="C" format="2">
  <advance width="469.71999999999997"/>
  <unicode hex="0043"/>
  <anchor x="235.36" y="0.0" name="bottom"/>
  <anchor x="235.36" y="693.0" name="top"/>
  <outline>
    <contour>
      <point x="308.705" y="-12.67" type="curve" smooth="yes"/>
      <point x="367.71999999999997" y="-12.67"/>
      <point x="418.395" y="1.99"/>
      <point x="453.735" y="24.99" type="curve"/>
      <point x="429.37" y="96.43" type="line"/>
      <point x="395.38" y="77.435"/>
      <point x="362.38" y="66.11"/>
      <point x="317.39" y="66.11" type="curve" smooth="yes"/>
      <point x="201.75500000000002" y="66.11"/>
      <point x="150.45499999999998" y="160.7"/>
      <point x="150.45499999999998" y="348.66499999999996" type="curve" smooth="yes"/>
      <point x="150.45499999999998" y="541.285"/>
      <point x="196.085" y="627.555"/>
      <point x="305.035" y="627.555" type="curve" smooth="yes"/>
      <point x="349.7" y="627.555"/>
      <point x="387.695" y="614.895"/>
      <point x="418.02500000000003" y="596.2249999999999" type="curve"/>
      <point x="444.395" y="670.67" type="line"/>
      <point x="408.725" y="692.005"/>
      <point x="358.38" y="706.335"/>
      <point x="304.04" y="706.335" type="curve" smooth="yes"/>
      <point x="146.98000000000002" y="706.335"/>
      <point x="54.985" y="593.32"/>
      <point x="54.985" y="348.665" type="curve" smooth="yes"/>
      <point x="54.985" y="111.33"/>
      <point x="144.995" y="-12.67"/>
    </contour>
  </outline>
</glyph>
<glyph name="D" format="2">
  <advance width="574.0450000000001"/>
  <unicode hex="0044"/>
  <anchor x="287.35999999999996" y="0.0" name="bottom"/>
  <anchor x="287.35999999999996" y="347.0" name="center"/>
  <anchor x="287.35999999999996" y="693.0" name="top"/>
  <outline>
    <contour>
      <point x="235.705" y="-7.34" type="curve" smooth="yes"/>
      <point x="415.385" y="-7.34"/>
      <point x="519.0600000000001" y="107.1519887955182"/>
      <point x="519.0600000000001" y="347.0" type="curve" smooth="yes"/>
      <point x="519.0600000000001" y="590.32"/>
      <point x="418.735" y="700.3399999999999"/>
      <point x="235.04" y="700.3399999999999" type="curve" smooth="yes"/>
      <point x="184.005" y="700.3399999999999"/>
      <point x="134.33" y="695.005"/>
      <point x="82.655" y="683.33" type="curve"/>
      <point x="82.655" y="9.67" type="line"/>
      <point x="134.995" y="-2.005"/>
      <point x="184.67000000000002" y="-7.34"/>
    </contour>
    <contour>
      <point x="239.395" y="71.435" type="curve" smooth="yes"/>
      <point x="215.07999999999998" y="71.435"/>
      <point x="193.765" y="72.43499999999999"/>
      <point x="172.785" y="76.1" type="curve"/>
      <point x="172.785" y="616.9" type="line"/>
      <point x="194.43" y="620.5649999999999"/>
      <point x="215.745" y="621.5649999999999"/>
      <point x="240.05999999999997" y="621.5649999999999" type="curve" smooth="yes"/>
      <point x="368.96000000000004" y="621.5649999999999"/>
      <point x="424.255" y="540.2550000000001"/>
      <point x="424.255" y="347.0" type="curve" smooth="yes"/>
      <point x="424.255" y="155.09"/>
      <point x="367.955" y="71.435"/>
    </contour>
  </outline>
</glyph>
<glyph name="E" format="2">
  <advance width="456.41999999999996"/>
  <unicode hex="0045"/>
  <anchor x="227.375" y="0.0" name="bottom"/>
  <anchor x="410.07" y="10.0" name="ogonek"/>
  <anchor x="227.375" y="693.0" name="top"/>
  <anchor x="19.67" y="693.0" name="topleft"/>
  <outline>
    <contour>
      <point x="83.32000000000001" y="0.0" type="line"/>
      <point x="410.43" y="0.0" type="line"/>
      <point x="410.43" y="76.44" type="line"/>
      <point x="172.785" y="76.44" type="line"/>
      <point x="172.785" y="326.615" type="line"/>
      <point x="373.43" y="326.615" type="line"/>
      <point x="373.43" y="400.385" type="line"/>
      <point x="172.785" y="400.385" type="line"/>
      <point x="172.785" y="616.56" type="line"/>
      <point x="394.085" y="616.56" type="line"/>
      <point x="394.085" y="693.0" type="line"/>
      <point x="83.32000000000001" y="693.0" type="line"/>
    </contour>
  </outline>
</glyph>
<glyph name="F" format="2">
  <advance width="423.07"/>
  <unicode hex="0046"/>
  <anchor x="213.70499999999998" y="0.0" name="bottom"/>
  <anchor x="213.70499999999998" y="693.0" name="top"/>
  <outline>
    <contour>
      <point x="83.32000000000001" y="0.0" type="line"/>
      <point x="172.785" y="0.0" type="line"/>
      <point x="172.785" y="322.61" type="line"/>
      <point x="368.43" y="322.61" type="line"/>
      <point x="368.43" y="397.045" type="line"/>
      <point x="172.785" y="397.045" type="line"/>
      <point x="172.785" y="616.56" type="line"/>
      <point x="390.41499999999996" y="616.56" type="line"/>
      <point x="390.41499999999996" y="693.0" type="line"/>
      <point x="83.32000000000001" y="693.0" type="line"/>
    </contour>
  </outline>
</glyph>
<glyph name="G" format="2">
  <advance width="527.735"/>
  <unicode hex="0047"/>
  <anchor x="264.365" y="0.0" name="bottom"/>
  <anchor x="264.365" y="693.0" name="top"/>
  <outline>
    <contour>
      <point x="310.36499999999995" y="-13.334999999999999" type="curve" smooth="yes"/>
      <point x="376.11" y="-13.334999999999999"/>
      <point x="431.795" y="4.015000000000001"/>
      <point x="457.075" y="17.99" type="curve"/>
      <point x="457.075" y="342.725" type="line"/>
      <point x="366.945" y="342.725" type="line"/>
      <point x="366.945" y="75.09" type="line"/>
      <point x="351.635" y="70.10000000000001"/>
      <point x="332.67" y="65.44500000000001"/>
      <point x="315.035" y="65.44500000000001" type="curve" smooth="yes"/>
      <point x="204.74" y="65.44500000000001"/>
      <point x="150.45499999999998" y="152.05499999999998"/>
      <point x="150.45499999999998" y="347.335" type="curve" smooth="yes"/>
      <point x="150.45499999999998" y="539.29"/>
      <point x="198.42" y="627.5550000000001"/>
      <point x="311.38" y="627.5550000000001" type="curve" smooth="yes"/>
      <point x="358.70500000000004" y="627.5550000000001"/>
      <point x="395.04" y="614.23"/>
      <point x="426.03499999999997" y="595.5600000000001" type="curve"/>
      <point x="453.07" y="670.005" type="line"/>
      <point x="419.395" y="690.6750000000001"/>
      <point x="367.385" y="706.335"/>
      <point x="310.385" y="706.335" type="curve" smooth="yes"/>
      <point x="147.655" y="706.335"/>
      <point x="54.985" y="591.3249999999999"/>
      <point x="54.985" y="347.335" type="curve" smooth="yes"/>
      <point x="54.985" y="108.67"/>
      <point x="147.98499999999999" y="-13.334999999999999"/>
    </contour>
  </outline>
</glyph>
<glyph name="H" format="2">
  <advance width="574.725"/>
  <unicode hex="0048"/>
  <anchor x="287.69500000000005" y="0.0" name="bottom"/>
  <anchor x="287.69500000000005" y="347.0" name="center"/>
  <anchor x="287.69500000000005" y="693.0" name="top"/>
  <anchor x="19.67" y="693.0" name="topleft"/>
  <outline>
    <contour>
      <point x="83.32000000000001" y="0.0" type="line"/>
      <point x="172.785" y="0.0" type="line"/>
      <point x="172.785" y="322.61" type="line"/>
      <point x="401.94" y="322.61" type="line"/>
      <point x="401.94" y="0.0" type="line"/>
      <point x="491.40500000000003" y="0.0" type="line"/>
      <point x="491.40500000000003" y="693.0" type="line"/>
      <point x="401.94" y="693.0" type="line"/>
      <point x="401.94" y="399.385" type="line"/>
      <point x="172.785" y="399.385" type="line"/>
      <point x="172.785" y="693.0" type="line"/>
      <point x="83.32000000000001" y="693.0" type="line"/>
    </contour>
  </outline>
</glyph>
<glyph name="I" format="2">
  <advance width="256.10499999999996"/>
  <unicode hex="0049"/>
  <anchor x="128.71499999999997" y="0.0" name="bottom"/>
  <anchor x="232.085" y="10.0" name="ogonek"/>
  <anchor x="128.71499999999997" y="693.0" name="top"/>
  <anchor x="19.67" y="693.0" name="topleft"/>
  <outline>
    <contour>
      <point x="83.32000000000001" y="0.0" type="line"/>
      <point x="172.785" y="0.0" type="line"/>
      <point x="172.785" y="693.0" type="line"/>
      <point x="83.32000000000001" y="693.0" type="line"/>
    </contour>
  </outline>
</glyph>
<glyph name="J" format="2">
  <advance width="390.075"/>
  <unicode hex="004A"/>
  <anchor x="195.70499999999998" y="0.0" name="bottom"/>
  <anchor x="195.70499999999998" y="693.0" name="top"/>
  <outline>
    <contour>
      <point x="137.375" y="-12.004999999999999" type="curve" smooth="yes"/>
      <point x="252.42000000000002" y="-12.004999999999999"/>
      <point x="312.43" y="48.80225"/>
      <point x="312.43" y="186.69" type="curve" smooth="yes"/>
      <point x="312.43" y="693.0" type="line"/>
      <point x="222.965" y="693.0" type="line"/>
      <point x="222.965" y="187.70000000000002" type="line" smooth="yes"/>
      <point x="222.965" y="97.43"/>
      <point x="190.32" y="66.77499999999999"/>
      <point x="133.7" y="66.77499999999999" type="curve" smooth="yes"/>
      <point x="98.03999999999999" y="66.77499999999999"/>
      <point x="60.715" y="79.44"/>
      <point x="33.715" y="97.44500000000001" type="curve"/>
      <point x="5.67" y="26.345000000000002" type="line"/>
      <point x="39.989999999999995" y="2.0050000000000003"/>
      <point x="89.015" y="-12.004999999999999"/>
    </contour>
  </outline>
</glyph>
<glyph name="K" format="2">
  <advance width="505.76500000000004"/>
  <unicode hex="004B"/>
  <anchor x="258.735" y="0.0" name="bottom"/>
  <anchor x="258.735" y="693.0" name="top"/>
  <outline>
    <contour>
      <point x="83.32000000000001" y="0.0" type="line"/>
      <point x="172.785" y="0.0" type="line"/>
      <point x="172.785" y="324.595" type="line"/>
      <point x="256.4" y="251.62"/>
      <point x="342.355" y="119.975"/>
      <point x="393.97499999999997" y="0.0" type="curve"/>
      <point x="492.44" y="0.0" type="line"/>
      <point x="439.78499999999997" y="124.69"/>
      <point x="339.84999999999997" y="276.32"/>
      <point x="254.22" y="363.65500000000003" type="curve"/>
      <point x="328.195" y="464.345"/>
      <point x="406.83" y="587.36"/>
      <point x="469.11" y="693.0" type="curve"/>
      <point x="375.655" y="693.0" type="line"/>
      <point x="324.365" y="603.6850000000001"/>
      <point x="246.07500000000002" y="480.35499999999996"/>
      <point x="172.785" y="383.695" type="curve"/>
      <point x="172.785" y="693.0" type="line"/>
      <point x="83.32000000000001" y="693.0" type="line"/>
    </contour>
  </outline>
</glyph>
<glyph name="L" format="2">
  <advance width="419.755"/>
  <unicode hex="004C"/>
  <anchor x="209.70499999999998" y="0.0" name="bottom"/>
  <anchor x="209.70499999999998" y="347.0" name="center"/>
  <anchor x="209.70499999999998" y="693.0" name="top"/>
  <anchor x="398.075" y="693.0" name="topright"/>
  <outline>
    <contour>
      <point x="83.32000000000001" y="0.0" type="line"/>
      <point x="392.43" y="0.0" type="line"/>
      <point x="392.43" y="76.44" type="line"/>
      <point x="172.785" y="76.44" type="line"/>
      <point x="172.785" y="693.0" type="line"/>
      <point x="83.32000000000001" y="693.0" type="line"/>
    </contour>
  </outline>
</glyph>
<glyph name="M" format="2">
  <advance width="723.705"/>
  <unicode hex="004D"/>
  <anchor x="361.35" y="0.0" name="bottom"/>
  <anchor x="361.35" y="693.0" name="top"/>
  <outline>
    <contour>
      <point x="68.97999999999999" y="0.0" type="curve"/>
      <point x="154.77" y="0.0" type="line"/>
      <point x="157.76500000000001" y="170.54"/>
      <point x="162.76000000000002" y="381.14"/>
      <point x="173.425" y="552.785" type="curve"/>
      <point x="224.73000000000002" y="419.13"/>
      <point x="278.015" y="260.87"/>
      <point x="323.97499999999997" y="95.65" type="curve"/>
      <point x="400.39500000000004" y="95.65" type="line"/>
      <point x="435.04999999999995" y="224.95999999999998"/>
      <point x="498.31" y="420.46"/>
      <point x="549.615" y="556.11" type="curve"/>
      <point x="560.28" y="384.465"/>
      <point x="565.94" y="171.205"/>
      <point x="568.935" y="0.0" type="curve"/>
      <point x="654.725" y="0.0" type="line"/>
      <point x="648.395" y="234.97"/>
      <point x="636.0450000000001" y="493.365"/>
      <point x="619.0500000000001" y="693.0" type="curve"/>
      <point x="528.9250000000001" y="693.0" type="line"/>
      <point x="477.29999999999995" y="568.4150000000001"/>
      <point x="409.66499999999996" y="376.795"/>
      <point x="362.34999999999997" y="214.18" type="curve"/>
      <point x="315.70000000000005" y="376.795"/>
      <point x="246.405" y="568.75"/>
      <point x="194.78" y="693.0" type="curve"/>
      <point x="104.655" y="693.0" type="line"/>
      <point x="87.66000000000001" y="493.365"/>
      <point x="75.31" y="234.97"/>
    </contour>
  </outline>
</glyph>
<glyph name="N" format="2">
  <advance width="581.73"/>
  <unicode hex="004E"/>
  <anchor x="290.69" y="0.0" name="bottom"/>
  <anchor x="290.69" y="693.0" name="top"/>
  <outline>
    <contour>
      <point x="83.32000000000001" y="0.0" type="line"/>
      <point x="167.11" y="0.0" type="line"/>
      <point x="167.11" y="532.075" type="line"/>
      <point x="261.09999999999997" y="365.74"/>
      <point x="357.045" y="165.51999999999998"/>
      <point x="424.975" y="0.0" type="curve"/>
      <point x="499.07500000000005" y="0.0" type="line"/>
      <point x="499.07500000000005" y="693.0" type="line"/>
      <point x="415.285" y="693.0" type="line"/>
      <point x="415.285" y="195.62" type="line"/>
      <point x="346.315" y="355.20500000000004"/>
      <point x="252.36" y="538.4250000000001"/>
      <point x="159.08499999999998" y="693.0" type="curve"/>
      <point x="83.32000000000001" y="693.0" type="line"/>
    </contour>
  </outline>
</glyph>
<glyph name="O" format="2">
  <advance width="600.045"/>
  <unicode hex="004F"/>
  <anchor x="300.355" y="0.0" name="bottom"/>
  <anchor x="300.355" y="347.0" name="center"/>
  <anchor x="542.3800000000001" y="10.0" name="ogonek"/>
  <anchor x="300.355" y="693.0" name="top"/>
  <anchor x="17.325" y="693.0" name="topleft"/>
  <anchor x="582.715" y="693.0" name="topright"/>
  <outline>
    <contour>
      <point x="300.355" y="-12.67" type="curve" smooth="yes"/>
      <point x="460.03499999999997" y="-12.67"/>
      <point x="544.395" y="122.985"/>
      <point x="544.395" y="345.335" type="curve"/>
      <point x="544.395" y="570.015"/>
      <point x="460.37" y="706.335"/>
      <point x="300.355" y="706.335" type="curve"/>
      <point x="140.67499999999998" y="706.335"/>
      <point x="55.65" y="570.015"/>
      <point x="55.65" y="346.005" type="curve" smooth="yes"/>
      <point x="55.65" y="123.32"/>
      <point x="140.675" y="-12.67"/>
    </contour>
    <contour>
      <point x="300.355" y="66.11" type="curve" smooth="yes"/>
      <point x="197.880625" y="66.11"/>
      <point x="150.455" y="167.375"/>
      <point x="150.455" y="346.005" type="curve"/>
      <point x="150.455" y="524.965"/>
      <point x="197.55160714285714" y="627.555"/>
      <point x="300.355" y="627.555" type="curve" smooth="yes"/>
      <point x="403.1583928571428" y="627.555"/>
      <point x="449.59" y="524.965"/>
      <point x="449.59" y="345.335" type="curve"/>
      <point x="449.59" y="166.705"/>
      <point x="403.1583928571428" y="66.11"/>
    </contour>
  </outline>
</glyph>
<glyph name="P" format="2">
  <advance width="487.76"/>
  <unicode hex="0050"/>
  <anchor x="242.37" y="0.0" name="bottom"/>
  <anchor x="242.37" y="693.0" name="top"/>
  <outline>
    <contour>
      <point x="83.32000000000001" y="0.0" type="line"/>
      <point x="172.785" y="0.0" type="line"/>
      <point x="172.785" y="257.62" type="line"/>
      <point x="217.74" y="257.62" type="line" smooth="yes"/>
      <point x="361.42" y="257.62"/>
      <point x="451.435" y="333.66"/>
      <point x="451.435" y="478.65" type="curve" smooth="yes"/>
      <point x="451.435" y="625.65"/>
      <point x="364.425" y="701.005"/>
      <point x="219.39000000000001" y="701.005" type="curve" smooth="yes"/>
      <point x="174.695" y="701.005"/>
      <point x="130.015" y="695.005"/>
      <point x="83.32000000000001" y="684.33" type="curve"/>
    </contour>
    <contour>
      <point x="172.785" y="335.725" type="line"/>
      <point x="172.785" y="617.565" type="line"/>
      <point x="187.10000000000002" y="621.2299999999999"/>
      <point x="205.085" y="622.23"/>
      <point x="220.735" y="622.23" type="curve" smooth="yes"/>
      <point x="309.01" y="622.23"/>
      <point x="357.96500000000003" y="579.25"/>
      <point x="357.96500000000003" y="478.65" type="curve" smooth="yes"/>
      <point x="357.96500000000003" y="378.37"/>
      <point x="309.34499999999997" y="335.725"/>
      <point x="215.74" y="335.725" type="curve" smooth="yes"/>
    </contour>
  </outline>
</glyph>
<glyph name="Q" format="2">
  <advance width="600.045"/>
  <unicode hex="0051"/>
  <anchor x="304.37" y="0.0" name="bottom"/>
  <anchor x="304.37" y="693.0" name="top"/>
  <outline>
    <contour>
      <point x="497.06" y="-176.695" type="curve"/>
      <point x="518.085" y="-106.60499999999999" type="line"/>
      <point x="420.735" y="-89.27499999999999"/>
      <point x="368.105" y="-61.955"/>
      <point x="359.42499999999995" y="-5.32" type="curve"/>
      <point x="481.065" y="24.705000000000002"/>
      <point x="544.395" y="152.355"/>
      <point x="544.395" y="345.335" type="curve" smooth="yes"/>
      <point x="544.395" y="570.015"/>
      <point x="460.37" y="706.335"/>
      <point x="300.355" y="706.335" type="curve" smooth="yes"/>
      <point x="140.67499999999998" y="706.335"/>
      <point x="55.65" y="570.015"/>
      <point x="55.65" y="346.005" type="curve" smooth="yes"/>
      <point x="55.65" y="135.01500000000001"/>
      <point x="131.32" y="2.3600000000000003"/>
      <point x="273.96999999999997" y="-10.665" type="curve"/>
      <point x="295.99" y="-118.005"/>
      <point x="368.28499999999997" y="-153.375"/>
    </contour>
    <contour>
      <point x="300.355" y="66.11" type="curve" smooth="yes"/>
      <point x="197.755" y="66.11"/>
      <point x="150.455" y="167.375"/>
      <point x="150.455" y="346.005" type="curve" smooth="yes"/>
      <point x="150.455" y="524.965"/>
      <point x="197.42" y="627.555"/>
      <point x="300.355" y="627.555" type="curve" smooth="yes"/>
      <point x="403.28999999999996" y="627.555"/>
      <point x="449.59" y="524.965"/>
      <point x="449.59" y="345.335" type="curve" smooth="yes"/>
      <point x="449.59" y="166.705"/>
      <point x="403.28999999999996" y="66.11"/>
    </contour>
  </outline>
</glyph>
<glyph name="R" format="2">
  <advance width="515.0949999999999"/>
  <unicode hex="0052"/>
  <anchor x="256.38" y="0.0" name="bottom"/>
  <anchor x="256.38" y="693.0" name="top"/>
  <outline>
    <contour>
      <point x="83.32000000000001" y="0.0" type="line"/>
      <point x="172.12" y="0.0" type="line"/>
      <point x="172.12" y="269.63" type="line"/>
      <point x="210.07" y="269.63" type="line" smooth="yes"/>
      <point x="228.39" y="269.63"/>
      <point x="249.05" y="270.96"/>
      <point x="265.025" y="272.955" type="curve"/>
      <point x="309.345" y="199.315"/>
      <point x="359.32" y="92.345"/>
      <point x="392.645" y="0.0" type="curve"/>
      <point x="484.77" y="0.0" type="line"/>
      <point x="445.14" y="110.965"/>
      <point x="389.83000000000004" y="223.95000000000002"/>
      <point x="346.805" y="297.32" type="curve"/>
      <point x="411.125" y="333.025"/>
      <point x="448.105" y="395.69"/>
      <point x="448.105" y="483.65500000000003" type="curve" smooth="yes"/>
      <point x="448.105" y="628.995"/>
      <point x="364.1" y="701.005"/>
      <point x="220.055" y="701.005" type="curve" smooth="yes"/>
      <point x="171.01999999999998" y="701.005"/>
      <point x="126.72426800420301" y="694.3491096810928"/>
      <point x="83.32000000000001" y="683.995" type="curve"/>
    </contour>
    <contour>
      <point x="172.12" y="343.73" type="line"/>
      <point x="172.12" y="618.23" type="line"/>
      <point x="186.435" y="621.2299999999999"/>
      <point x="205.415" y="622.23"/>
      <point x="222.065" y="622.23" type="curve" smooth="yes"/>
      <point x="307.01" y="622.23"/>
      <point x="354.635" y="580.9150000000001"/>
      <point x="354.635" y="483.65500000000003" type="curve" smooth="yes"/>
      <point x="354.635" y="388.045"/>
      <point x="307.005" y="343.73"/>
      <point x="216.73499999999999" y="343.73" type="curve" smooth="yes"/>
    </contour>
  </outline>
</glyph>
<glyph name="S" format="2">
  <advance width="400.40999999999997"/>
  <unicode hex="0053"/>
  <anchor x="199.705" y="0.0" name="bottom"/>
  <anchor x="199.705" y="693.0" name="top"/>
  <outline>
    <contour>
      <point x="170.035" y="-13.334999999999999" type="curve" smooth="yes"/>
      <point x="300.385" y="-13.334999999999999"/>
      <point x="371.415" y="73.69"/>
      <point x="371.415" y="185.70499999999998" type="curve" smooth="yes"/>
      <point x="371.415" y="283.29499999999996"/>
      <point x="314.15000000000003" y="338.0"/>
      <point x="241.10500000000002" y="386.365" type="curve"/>
      <point x="170.72" y="432.735"/>
      <point x="127.44500000000001" y="462.375"/>
      <point x="127.44500000000001" y="528.98" type="curve" smooth="yes"/>
      <point x="127.44500000000001" y="594.92"/>
      <point x="169.405" y="629.56"/>
      <point x="232.365" y="629.56" type="curve" smooth="yes"/>
      <point x="267.03499999999997" y="629.56"/>
      <point x="303.04" y="619.5550000000001"/>
      <point x="332.7" y="601.885" type="curve"/>
      <point x="359.74" y="673.3149999999999" type="line"/>
      <point x="324.38" y="693.665"/>
      <point x="277.37" y="706.335"/>
      <point x="227.01999999999998" y="706.335" type="curve" smooth="yes"/>
      <point x="112.66" y="706.335"/>
      <point x="36.974999999999994" y="630.635"/>
      <point x="36.974999999999994" y="521.63" type="curve" smooth="yes"/>
      <point x="36.974999999999994" y="424.34999999999997"/>
      <point x="97.58500000000001" y="373.33"/>
      <point x="167.285" y="326.975" type="curve" smooth="yes"/>
      <point x="233.66000000000003" y="283.28"/>
      <point x="279.615" y="246.955"/>
      <point x="279.615" y="174.34" type="curve" smooth="yes"/>
      <point x="279.615" y="105.735"/>
      <point x="237.64000000000001" y="64.105"/>
      <point x="167.36" y="64.105" type="curve" smooth="yes"/>
      <point x="124.04499999999999" y="64.105"/>
      <point x="84.03" y="78.445"/>
      <point x="49.695" y="101.125" type="curve"/>
      <point x="22.654999999999998" y="26.685" type="line"/>
      <point x="60.655" y="2.675"/>
      <point x="114.69" y="-13.334999999999999"/>
    </contour>
  </outline>
</glyph>
<glyph name="T" format="2">
  <advance width="430.08500000000004"/>
  <unicode hex="0054"/>
  <anchor x="215.04000000000002" y="0.0" name="bottom"/>
  <anchor x="215.04000000000002" y="347.0" name="center"/>
  <anchor x="215.04000000000002" y="693.0" name="top"/>
  <outline>
    <contour>
      <point x="170.31" y="0.0" type="line"/>
      <point x="259.77500000000003" y="0.0" type="line"/>
      <point x="259.77500000000003" y="616.5600000000001" type="line"/>
      <point x="413.42" y="616.5600000000001" type="line"/>
      <point x="413.42" y="693.0" type="line"/>
      <point x="16.665000000000003" y="693.0" type="line"/>
      <point x="16.665000000000003" y="616.5600000000001" type="line"/>
      <point x="170.31" y="616.5600000000001" type="line"/>
    </contour>
  </outline>
</glyph>
<glyph name="U" format="2">
  <advance width="546.7249999999999"/>
  <unicode hex="0055"/>
  <anchor x="272.7" y="0.0" name="bottom"/>
  <anchor x="492.39000000000004" y="10.0" name="ogonek"/>
  <anchor x="272.7" y="693.0" name="top"/>
  <anchor x="527.4" y="693.0" name="topright"/>
  <outline>
    <contour>
      <point x="272.365" y="-12.67" type="curve" smooth="yes"/>
      <point x="404.395" y="-12.67"/>
      <point x="470.745" y="62.345"/>
      <point x="470.745" y="212.33" type="curve" smooth="yes"/>
      <point x="470.745" y="693.0" type="line"/>
      <point x="381.28" y="693.0" type="line"/>
      <point x="381.28" y="218.01" type="line" smooth="yes"/>
      <point x="381.28" y="115.735"/>
      <point x="350.635" y="66.775"/>
      <point x="273.03000000000003" y="66.775" type="curve" smooth="yes"/>
      <point x="196.755" y="66.775"/>
      <point x="165.445" y="115.07"/>
      <point x="165.445" y="218.01" type="curve" smooth="yes"/>
      <point x="165.445" y="693.0" type="line"/>
      <point x="75.98" y="693.0" type="line"/>
      <point x="75.98" y="212.33" type="line" smooth="yes"/>
      <point x="75.98" y="61.68000000000001"/>
      <point x="141.66500000000002" y="-12.67"/>
    </contour>
  </outline>
</glyph>
<glyph name="V" format="2">
  <advance width="496.76"/>
  <unicode hex="0056"/>
  <anchor x="248.385" y="0.0" name="bottom"/>
  <anchor x="248.385" y="693.0" name="top"/>
  <outline>
    <contour>
      <point x="201.32000000000002" y="0.0" type="curve"/>
      <point x="296.105" y="0.0" type="line"/>
      <point x="369.105" y="228.35500000000002"/>
      <point x="429.77" y="449.725"/>
      <point x="474.435" y="693.0" type="curve"/>
      <point x="383.96999999999997" y="693.0" type="line"/>
      <point x="356.655" y="509.425"/>
      <point x="306.01" y="292.105"/>
      <point x="250.045" y="101.14500000000001" type="curve"/>
      <point x="193.07999999999998" y="296.46"/>
      <point x="143.105" y="513.11"/>
      <point x="115.795" y="693.0" type="curve"/>
      <point x="22.325" y="693.0" type="line"/>
      <point x="66.99000000000001" y="450.39"/>
      <point x="126.99" y="229.02"/>
    </contour>
  </outline>
</glyph>
<glyph name="W" format="2">
  <advance width="746.3449999999999"/>
  <unicode hex="0057"/>
  <anchor x="380.05" y="0.0" name="bottom"/>
  <anchor x="380.05" y="693.0" name="top"/>
  <outline>
    <contour>
      <point x="157.30499999999998" y="0.0" type="curve"/>
      <point x="248.415" y="0.0" type="line"/>
      <point x="291.71" y="138.24"/>
      <point x="337.69" y="317.885"/>
      <point x="372.67" y="487.47499999999997" type="curve"/>
      <point x="407.65" y="317.885"/>
      <point x="453.63" y="138.24"/>
      <point x="496.925" y="0.0" type="curve"/>
      <point x="589.0400000000001" y="0.0" type="line"/>
      <point x="642.355" y="205.64000000000001"/>
      <point x="685.38" y="471.19"/>
      <point x="707.035" y="693.0" type="curve"/>
      <point x="618.9100000000001" y="693.0" type="line"/>
      <point x="606.9195046221084" y="511.8279408650446"/>
      <point x="578.6119651455574" y="306.263240082194"/>
      <point x="538.305" y="115.22500000000001" type="curve"/>
      <point x="492.35" y="274.47499999999997"/>
      <point x="450.04499999999996" y="456.07"/>
      <point x="418.72999999999996" y="611.3499999999999" type="curve"/>
      <point x="329.285" y="611.3499999999999" type="line"/>
      <point x="297.96999999999997" y="456.73499999999996"/>
      <point x="255.00000000000003" y="275.14"/>
      <point x="209.71" y="116.555" type="curve"/>
      <point x="170.06803485444257" y="306.928240082194"/>
      <point x="141.7604953778916" y="512.4929408650446"/>
      <point x="129.10500000000002" y="693.0" type="curve"/>
      <point x="39.31" y="693.0" type="line"/>
      <point x="60.965" y="471.19"/>
      <point x="103.325" y="205.64000000000001"/>
    </contour>
  </outline>
</glyph>
<glyph name="X" format="2">
  <advance width="458.755"/>
  <unicode hex="0058"/>
  <anchor x="230.375" y="0.0" name="bottom"/>
  <anchor x="230.375" y="693.0" name="top"/>
  <outline>
    <contour>
      <point x="15.315" y="0.0" type="curve"/>
      <point x="104.11500000000001" y="0.0" type="line"/>
      <point x="134.1" y="88.98"/>
      <point x="175.725" y="182.245"/>
      <point x="228.375" y="290.57500000000005" type="curve"/>
      <point x="279.03" y="186.89999999999998"/>
      <point x="318.66" y="96.96"/>
      <point x="351.97" y="0.0" type="curve"/>
      <point x="442.775" y="0.0" type="line"/>
      <point x="403.795" y="110.63000000000001"/>
      <point x="351.485" y="226.94500000000002"/>
      <point x="284.14" y="366.66" type="curve"/>
      <point x="433.77000000000004" y="693.0" type="line"/>
      <point x="342.63" y="693.0" type="line"/>
      <point x="230.05" y="429.72" type="line"/>
      <point x="117.465" y="693.0" type="line"/>
      <point x="22.99" y="693.0" type="line"/>
      <point x="173.95" y="361.98999999999995" type="line"/>
      <point x="104.61" y="216.96"/>
      <point x="52.629999999999995" y="103.31"/>
    </contour>
  </outline>
</glyph>
<glyph name="Y" format="2">
  <advance width="448.125"/>
  <unicode hex="0059"/>
  <anchor x="224.06" y="0.0" name="bottom"/>
  <anchor x="224.06" y="693.0" name="top"/>
  <anchor x="17.325" y="693.0" name="topleft"/>
  <outline>
    <contour>
      <point x="179.99499999999998" y="0.0" type="line"/>
      <point x="269.46" y="0.0" type="line"/>
      <point x="269.46" y="269.645" type="line"/>
      <point x="332.465" y="399.34"/>
      <point x="399.49" y="564.0649999999999"/>
      <point x="444.46500000000003" y="693.0" type="curve"/>
      <point x="351.32500000000005" y="693.0" type="line"/>
      <point x="318.345" y="588.37"/>
      <point x="275.7" y="468.41"/>
      <point x="225.395" y="355.77000000000004" type="curve"/>
      <point x="174.425" y="468.41"/>
      <point x="132.445" y="588.37"/>
      <point x="99.80000000000001" y="693.0" type="curve"/>
      <point x="3.66" y="693.0" type="line"/>
      <point x="48.635000000000005" y="562.735"/>
      <point x="116.325" y="396.68"/>
      <point x="179.99499999999998" y="266.985" type="curve"/>
    </contour>
  </outline>
</glyph>
<glyph name="Z" format="2">
  <advance width="430.735"/>
  <unicode hex="005A"/>
  <anchor x="218.375" y="0.0" name="bottom"/>
  <anchor x="218.375" y="347.0" name="center"/>
  <anchor x="218.375" y="693.0" name="top"/>
  <outline>
    <contour>
      <point x="33.324999999999996" y="0.0" type="line"/>
      <point x="396.08000000000004" y="0.0" type="line"/>
      <point x="396.08000000000004" y="76.44" type="line"/>
      <point x="131.14000000000001" y="76.44" type="line"/>
      <point x="195.12" y="244.685"/>
      <point x="297.085" y="456.58500000000004"/>
      <point x="389.08" y="618.5500000000001" type="curve"/>
      <point x="389.08" y="693.0" type="line"/>
      <point x="46.330000000000005" y="693.0" type="line"/>
      <point x="46.330000000000005" y="616.56" type="line"/>
      <point x="295.28999999999996" y="616.56" type="line"/>
      <point x="203.635" y="451.27000000000004"/>
      <point x="102.67" y="236.045"/>
      <point x="33.324999999999996" y="57.74" type="curve"/>
    </contour>
  </outline>
</glyph>
<glyph name="bracketleft" format="2">
  <advance width="282.095"/>
  <unicode hex="005B"/>
  <outline>
    <contour>
      <point x="93.985" y="-185.0" type="line"/>
      <point x="275.76" y="-185.0" type="line"/>
      <point x="275.76" y="-117.24999999999999" type="line"/>
      <point x="174.765" y="-117.24999999999999" type="line"/>
      <point x="174.765" y="715.58" type="line"/>
      <point x="275.76" y="715.58" type="line"/>
      <point x="275.76" y="783.0" type="line"/>
      <point x="93.985" y="783.0" type="line"/>
    </contour>
  </outline>
</glyph>
<glyph name="backslash" format="2">
  <advance width="274.795"/>
  <unicode hex="005C"/>
  <outline>
    <contour>
      <point x="219.34" y="-185.0" type="line"/>
      <point x="299.12" y="-185.0" type="line"/>
      <point x="56.120000000000005" y="783.0" type="line"/>
      <point x="-23.66" y="783.0" type="line"/>
    </contour>
  </outline>
</glyph>
<glyph name="bracketright" format="2">
  <advance width="282.095"/>
  <unicode hex="005D"/>
  <outline>
    <contour>
      <point x="6.335" y="-185.0" type="line"/>
      <point x="188.10999999999999" y="-185.0" type="line"/>
      <point x="188.10999999999999" y="783.0" type="line"/>
      <point x="6.335" y="783.0" type="line"/>
      <point x="6.335" y="714.915" type="line"/>
      <point x="107.33" y="714.915" type="line"/>
      <point x="107.33" y="-117.91499999999999" type="line"/>
      <point x="6.335" y="-117.91499999999999" type="line"/>
    </contour>
  </outline>
</glyph>
<glyph name="asciicircum" format="2">
  <advance width="430.01"/>
  <unicode hex="005E"/>
  <outline>
    <contour>
      <point x="107.37" y="312.28999999999996" type="line"/>
      <point x="215.67" y="590.885" type="line"/>
      <point x="323.64" y="312.28999999999996" type="line"/>
      <point x="396.73499999999996" y="338.995" type="line"/>
      <point x="254.385" y="689.6750000000001" type="line"/>
      <point x="176.29" y="689.6750000000001" type="line"/>
      <point x="33.275" y="338.995" type="line"/>
    </contour>
  </outline>
</glyph>
<glyph name="underscore" format="2">
  <advance width="350.71500000000003"/>
  <unicode hex="005F"/>
  <outline>
    <contour>
      <point x="-4.0" y="-183.005" type="line"/>
      <point x="354.71500000000003" y="-183.005" type="line"/>
      <point x="354.71500000000003" y="-109.895" type="line"/>
      <point x="-4.0" y="-109.895" type="line"/>
    </contour>
  </outline>
</glyph>
<glyph name="grave" format="2">
  <advance width="314.0"/>
  <unicode hex="0060"/>
  <outline>
    <contour>
      <point x="183.305" y="584.65" type="line"/>
      <point x="227.365" y="623.705" type="line"/>
      <point x="106.72" y="782.69" type="line"/>
      <point x="46.31" y="728.615" type="line"/>
    </contour>
  </outline>
</glyph>
<glyph name="a" format="2">
  <advance width="432.05"/>
  <unicode hex="0061"/>
  <anchor x="210.345" y="0.0" name="bottom"/>
  <anchor x="384.69" y="10.0" name="ogonek"/>
  <anchor x="210.345" y="520.35" name="top"/>
  <outline>
    <contour>
      <point x="212.35500000000002" y="-9.335" type="curve" smooth="yes"/>
      <point x="258.03499999999997" y="-9.335"/>
      <point x="311.71999999999997" y="-1.0050000000000001"/>
      <point x="361.07" y="12.335" type="curve"/>
      <point x="361.07" y="359.615" type="line" smooth="yes"/>
      <point x="361.07" y="482.56917475728153"/>
      <point x="294.035" y="538.02"/>
      <point x="196.32000000000002" y="538.02" type="curve" smooth="yes"/>
      <point x="155.98499999999999" y="538.02"/>
      <point x="114.63" y="529.3499999999999"/>
      <point x="80.305" y="516.3549999999999" type="curve"/>
      <point x="95.315" y="444.925" type="line"/>
      <point x="126.64500000000001" y="456.91999999999996"/>
      <point x="154.97" y="462.25"/>
      <point x="183.29" y="462.25" type="curve" smooth="yes"/>
      <point x="244.29" y="462.25"/>
      <point x="276.945" y="432.92259259259265"/>
      <point x="276.945" y="357.96500000000003" type="curve" smooth="yes"/>
      <point x="276.945" y="306.03499999999997" type="line"/>
      <point x="252.5930640347471" y="311.3233669956566"/>
      <point x="227.21192307692309" y="314.355"/>
      <point x="204.0" y="314.355" type="curve" smooth="yes"/>
      <point x="105.32499999999999" y="314.355"/>
      <point x="39.985" y="258.34999999999997"/>
      <point x="39.985" y="153.68" type="curve" smooth="yes"/>
      <point x="39.985" y="46.01"/>
      <point x="108.12964467005077" y="-9.335"/>
    </contour>
    <contour>
      <point x="217.025" y="61.754999999999995" type="curve" smooth="yes"/>
      <point x="158.85666666666668" y="61.754999999999995"/>
      <point x="126.115" y="93.39"/>
      <point x="126.115" y="154.675" type="curve" smooth="yes"/>
      <point x="126.115" y="218.955"/>
      <point x="160.3241379310345" y="247.60500000000002"/>
      <point x="216.69" y="247.60500000000002" type="curve" smooth="yes"/>
      <point x="236.9234285714286" y="247.60500000000002"/>
      <point x="257.49624965431525" y="243.78712510370542"/>
      <point x="276.945" y="238.95000000000002" type="curve"/>
      <point x="276.945" y="69.41" type="line"/>
      <point x="256.4612052833964" y="64.22248722382756"/>
      <point x="235.675" y="61.754999999999995"/>
    </contour>
  </outline>
</glyph>
<glyph name="b" format="2">
  <advance width="466.41"/>
  <unicode hex="0062"/>
  <anchor x="232.7" y="0.0" name="bottom"/>
  <anchor x="232.7" y="260.34" name="center"/>
  <anchor x="232.7" y="520.35" name="top"/>
  <outline>
    <contour>
      <point x="217.72" y="-11.33" type="curve" smooth="yes"/>
      <point x="356.39" y="-11.33"/>
      <point x="418.09" y="87.99"/>
      <point x="418.09" y="261.65500000000003" type="curve" smooth="yes"/>
      <point x="418.09" y="445.34"/>
      <point x="354.43" y="536.68"/>
      <point x="238.075" y="536.68" type="curve" smooth="yes"/>
      <point x="207.1" y="536.68"/>
      <point x="181.44" y="528.0250000000001"/>
      <point x="161.78" y="517.365" type="curve"/>
      <point x="161.78" y="776.0" type="line"/>
      <point x="75.65" y="760.65" type="line"/>
      <point x="75.65" y="14.325000000000001" type="line"/>
      <point x="120.015" y="-1.67"/>
      <point x="166.365" y="-11.33"/>
    </contour>
    <contour>
      <point x="216.715" y="63.77499999999999" type="curve" smooth="yes"/>
      <point x="197.07" y="63.77499999999999"/>
      <point x="177.42999999999998" y="67.435"/>
      <point x="161.78" y="73.42500000000001" type="curve"/>
      <point x="161.78" y="443.935" type="line"/>
      <point x="177.43" y="454.255"/>
      <point x="201.07000000000002" y="461.575"/>
      <point x="225.375" y="461.575" type="curve" smooth="yes"/>
      <point x="281.685" y="461.575"/>
      <point x="328.62" y="423.91999999999996"/>
      <point x="328.62" y="261.655" type="curve" smooth="yes"/>
      <point x="328.62" y="111.055"/>
      <point x="289.995" y="63.77499999999999"/>
    </contour>
  </outline>
</glyph>
<glyph name="c" format="2">
  <advance width="357.72999999999996"/>
  <unicode hex="0063"/>
  <anchor x="177.35999999999999" y="0.0" name="bottom"/>
  <anchor x="177.35999999999999" y="520.35" name="top"/>
  <outline>
    <contour>
      <point x="239.03" y="-12.67" type="curve" smooth="yes"/>
      <point x="279.385" y="-12.67"/>
      <point x="314.385" y="-3.345"/>
      <point x="339.06" y="11.649999999999999" type="curve"/>
      <point x="324.385" y="80.76" type="line"/>
      <point x="303.395" y="70.1"/>
      <point x="281.40999999999997" y="63.44"/>
      <point x="254.08" y="63.44" type="curve" smooth="yes"/>
      <point x="177.6119897959184" y="63.44"/>
      <point x="138.455" y="133.11216981132074"/>
      <point x="138.455" y="261.34499999999997" type="curve" smooth="yes"/>
      <point x="138.455" y="400.55493710691826"/>
      <point x="175.2346511627907" y="461.245"/>
      <point x="247.4" y="461.245" type="curve" smooth="yes"/>
      <point x="273.39" y="461.245"/>
      <point x="297.38" y="455.245"/>
      <point x="317.38" y="443.91" type="curve"/>
      <point x="336.40000000000003" y="515.35" type="line"/>
      <point x="308.05499999999995" y="529.3549999999999"/>
      <point x="277.045" y="538.02"/>
      <point x="239.03500000000003" y="538.02" type="curve" smooth="yes"/>
      <point x="115.35" y="538.02"/>
      <point x="48.32" y="436.345"/>
      <point x="48.32" y="261.34499999999997" type="curve" smooth="yes"/>
      <point x="48.32" y="92.645"/>
      <point x="110.02000000000001" y="-12.67"/>
    </contour>
  </outline>
</glyph>
<glyph name="d" format="2">
  <advance width="466.41"/>
  <unicode hex="0064"/>
  <anchor x="225.0" y="0.0" name="bottom"/>
  <anchor x="225.0" y="260.34" name="center"/>
  <anchor x="225.0" y="776.0" name="top"/>
  <anchor x="438.70000000000005" y="776.0" name="topright"/>
  <outline>
    <contour>
      <point x="248.69" y="-11.33" type="curve" smooth="yes"/>
      <point x="300.045" y="-11.33"/>
      <point x="346.395" y="-1.67"/>
      <point x="390.76" y="14.325000000000001" type="curve"/>
      <point x="390.76" y="776.0" type="line"/>
      <point x="304.63" y="760.65" type="line"/>
      <point x="304.63" y="517.365" type="line"/>
      <point x="284.96999999999997" y="528.0250000000001"/>
      <point x="259.31" y="536.68"/>
      <point x="229.0" y="536.68" type="curve" smooth="yes"/>
      <point x="113.30999999999999" y="536.68"/>
      <point x="48.32" y="445.34000000000003"/>
      <point x="48.32" y="261.65500000000003" type="curve" smooth="yes"/>
      <point x="48.32" y="87.99"/>
      <point x="109.355" y="-11.33"/>
    </contour>
    <contour>
      <point x="249.695" y="63.77499999999999" type="curve" smooth="yes"/>
      <point x="177.08" y="63.77499999999999"/>
      <point x="138.455" y="111.055"/>
      <point x="138.455" y="261.655" type="curve"/>
      <point x="138.455" y="423.91999999999996"/>
      <point x="184.725" y="461.575"/>
      <point x="241.035" y="461.575" type="curve" smooth="yes"/>
      <point x="265.34000000000003" y="461.575"/>
      <point x="288.98" y="454.255"/>
      <point x="304.63" y="443.935" type="curve"/>
      <point x="304.63" y="73.42500000000001" type="line"/>
      <point x="288.98" y="67.435"/>
      <point x="269.34000000000003" y="63.77499999999999"/>
    </contour>
  </outline>
</glyph>
<glyph name="e" format="2">
  <advance width="436.73"/>
  <unicode hex="0065"/>
  <anchor x="217.685" y="0.0" name="bottom"/>
  <anchor x="391.365" y="10.0" name="ogonek"/>
  <anchor x="217.685" y="520.35" name="top"/>
  <outline>
    <contour>
      <point x="249.70499999999998" y="-12.67" type="curve" smooth="yes"/>
      <point x="296.4409090909091" y="-12.67"/>
      <point x="337.1928123417294" y="-1.101205434017154"/>
      <point x="367.075" y="14.99" type="curve"/>
      <point x="354.4" y="83.09" type="line"/>
      <point x="333.065" y="72.425"/>
      <point x="297.735" y="63.44"/>
      <point x="262.735" y="63.44" type="curve" smooth="yes"/>
      <point x="174.12" y="63.44"/>
      <point x="138.77611494474795" y="131.33972397814824"/>
      <point x="137.12" y="236.615" type="curve"/>
      <point x="387.74" y="236.615" type="line"/>
      <point x="388.74" y="253.285"/>
      <point x="389.075" y="270.62"/>
      <point x="389.075" y="286.3" type="curve" smooth="yes"/>
      <point x="389.075" y="445.985"/>
      <point x="334.39000000000004" y="538.02"/>
      <point x="226.70000000000002" y="538.02" type="curve" smooth="yes"/>
      <point x="117.005" y="538.02"/>
      <point x="48.32" y="441.995"/>
      <point x="48.32" y="259.0" type="curve" smooth="yes"/>
      <point x="48.32" y="90.985"/>
      <point x="114.69" y="-12.67"/>
    </contour>
    <contour>
      <point x="137.785" y="301.695" type="line"/>
      <point x="139.785" y="404.32"/>
      <point x="167.8572" y="464.25"/>
      <point x="223.69" y="464.25" type="curve" smooth="yes"/>
      <point x="278.3" y="464.25"/>
      <point x="302.945" y="410.31"/>
      <point x="301.62" y="301.695" type="curve"/>
    </contour>
  </outline>
</glyph>
<glyph name="f" format="2">
  <advance width="302.75500000000005"/>
  <unicode hex="0066"/>
  <anchor x="150.705" y="0.0" name="bottom"/>
  <anchor x="150.705" y="776.0" name="top"/>
  <outline>
    <contour>
      <point x="76.315" y="0.0" type="line"/>
      <point x="162.445" y="0.0" type="line"/>
      <point x="162.445" y="451.585" type="line"/>
      <point x="296.415" y="451.585" type="line"/>
      <point x="296.415" y="524.685" type="line"/>
      <point x="162.445" y="524.685" type="line"/>
      <point x="162.445" y="598.64" type="line"/>
      <point x="162.445" y="666.265"/>
      <point x="183.44" y="702.225"/>
      <point x="241.075" y="702.225" type="curve" smooth="yes"/>
      <point x="261.07" y="702.225"/>
      <point x="283.07000000000005" y="697.89"/>
      <point x="299.065" y="690.2249999999999" type="curve"/>
      <point x="315.755" y="759.3299999999999" type="line"/>
      <point x="297.08" y="768.0"/>
      <point x="264.065" y="776.0"/>
      <point x="230.05" y="776.0" type="curve" smooth="yes"/>
      <point x="128.34" y="776.0"/>
      <point x="76.315" y="713.66"/>
      <point x="76.315" y="595.29" type="curve" smooth="yes"/>
    </contour>
  </outline>
</glyph>
<glyph name="g" format="2">
  <advance width="466.41"/>
  <unicode hex="0067"/>
  <anchor x="232.36499999999998" y="-185.0" name="bottom"/>
  <anchor x="232.36499999999998" y="520.35" name="top"/>
  <outline>
    <contour>
      <point x="207.04999999999998" y="-188.0" type="curve" smooth="yes"/>
      <point x="323.11" y="-188.0"/>
      <point x="390.76" y="-120.92999999999999"/>
      <point x="390.76" y="18.740000000000002" type="curve" smooth="yes"/>
      <point x="390.76" y="511.025" type="line"/>
      <point x="345.72499999999997" y="527.02"/>
      <point x="300.04" y="536.68"/>
      <point x="249.355" y="536.68" type="curve" smooth="yes"/>
      <point x="108.025" y="536.68"/>
      <point x="48.32" y="438.37"/>
      <point x="48.32" y="275.365" type="curve" smooth="yes"/>
      <point x="48.32" y="102.68"/>
      <point x="113.10062500000001" y="21.33"/>
      <point x="227.0" y="21.33" type="curve" smooth="yes"/>
      <point x="257.5658181818182" y="21.33"/>
      <point x="284.2838355838015" y="28.997099098259532"/>
      <point x="304.63" y="39.98" type="curve"/>
      <point x="304.63" y="10.344999999999999" type="line" smooth="yes"/>
      <point x="304.63" y="-79.23"/>
      <point x="265.98" y="-113.55999999999999"/>
      <point x="197.01999999999998" y="-113.895" type="curve" smooth="yes"/>
      <point x="161.35500000000002" y="-113.895"/>
      <point x="126.355" y="-104.56500000000001"/>
      <point x="97.675" y="-89.22999999999999" type="curve"/>
      <point x="80.655" y="-161.67000000000002" type="line"/>
      <point x="116.0" y="-178.67"/>
      <point x="159.68" y="-188.0"/>
    </contour>
    <contour>
      <point x="241.035" y="96.435" type="curve" smooth="yes"/>
      <point x="184.055" y="96.435"/>
      <point x="138.455" y="131.425"/>
      <point x="138.455" y="275.365" type="curve" smooth="yes"/>
      <point x="138.455" y="414.955"/>
      <point x="178.42499999999998" y="461.575"/>
      <point x="248.01999999999998" y="461.575" type="curve" smooth="yes"/>
      <point x="269.005" y="461.575"/>
      <point x="288.64500000000004" y="457.915"/>
      <point x="304.63" y="451.59" type="curve"/>
      <point x="304.63" y="113.41" type="line"/>
      <point x="289.315" y="103.09"/>
      <point x="266.345" y="96.435"/>
    </contour>
  </outline>
</glyph>
<glyph name="h" format="2">
  <advance width="480.395"/>
  <unicode hex="0068"/>
  <anchor x="240.35999999999999" y="0.0" name="bottom"/>
  <anchor x="240.35999999999999" y="388.0" name="center"/>
  <anchor x="240.35999999999999" y="776.0" name="top"/>
  <outline>
    <contour>
      <point x="76.315" y="0.0" type="line"/>
      <point x="162.445" y="0.0" type="line"/>
      <point x="162.445" y="448.265" type="line"/>
      <point x="185.41" y="455.91999999999996"/>
      <point x="208.375" y="460.24499999999995"/>
      <point x="230.01000000000002" y="460.24499999999995" type="curve" smooth="yes"/>
      <point x="299.3" y="460.24499999999995"/>
      <point x="323.28499999999997" y="416.61"/>
      <point x="323.28499999999997" y="312.32" type="curve" smooth="yes"/>
      <point x="323.28499999999997" y="0.0" type="line"/>
      <point x="409.415" y="0.0" type="line"/>
      <point x="409.415" y="318.985" type="line" smooth="yes"/>
      <point x="409.415" y="466.635"/>
      <point x="348.39" y="535.3499999999999"/>
      <point x="248.025" y="535.3499999999999" type="curve" smooth="yes"/>
      <point x="217.055" y="535.3499999999999"/>
      <point x="187.42" y="529.36"/>
      <point x="162.445" y="520.37" type="curve"/>
      <point x="162.445" y="776.0" type="line"/>
      <point x="76.315" y="760.65" type="line"/>
    </contour>
  </outline>
</glyph>
<glyph name="i" format="2">
  <advance width="238.76000000000002"/>
  <unicode hex="0069"/>
  <anchor x="119.05000000000001" y="0.0" name="bottom"/>
  <outline>
    <contour>
      <point x="76.315" y="0.0" type="line"/>
      <point x="162.445" y="0.0" type="line"/>
      <point x="162.445" y="524.685" type="line"/>
      <point x="76.315" y="524.685" type="line"/>
    </contour>
    <contour>
      <point x="119.38000000000001" y="617.2800000000001" type="curve" smooth="yes"/>
      <point x="150.745" y="617.2800000000001"/>
      <point x="175.445" y="640.305"/>
      <point x="175.445" y="674.68" type="curve" smooth="yes"/>
      <point x="175.445" y="708.39"/>
      <point x="150.745" y="732.0799999999999"/>
      <point x="119.38000000000001" y="732.0799999999999" type="curve" smooth="yes"/>
      <point x="88.67999999999999" y="732.0799999999999"/>
      <point x="63.315000000000005" y="708.39"/>
      <point x="63.315000000000005" y="674.68" type="curve" smooth="yes"/>
      <point x="63.315000000000005" y="640.305"/>
      <point x="88.67999999999999" y="617.2800000000001"/>
    </contour>
  </outline>
</glyph>
<glyph name="j" format="2">
  <advance width="238.76000000000002"/>
  <unicode hex="006A"/>
  <outline>
    <contour>
      <point x="25.04" y="-188.0" type="curve" smooth="yes"/>
      <point x="119.0701775147929" y="-188.0"/>
      <point x="162.445" y="-124.665"/>
      <point x="162.445" y="-29.305" type="curve" smooth="yes"/>
      <point x="162.445" y="525.35" type="line"/>
      <point x="76.315" y="525.35" type="line"/>
      <point x="76.315" y="-23.985" type="line"/>
      <point x="76.315" y="-81.92999999999999"/>
      <point x="59.269090909090906" y="-111.22500000000001"/>
      <point x="15.365" y="-111.22500000000001" type="curve" smooth="yes"/>
      <point x="3.6950000000000003" y="-111.22500000000001"/>
      <point x="-9.965" y="-109.225"/>
      <point x="-22.964999999999996" y="-105.89" type="curve"/>
      <point x="-33.985" y="-177.66" type="line"/>
      <point x="-15.31" y="-184.33"/>
      <point x="4.035" y="-188.0"/>
    </contour>
    <contour>
      <point x="119.38000000000001" y="617.2800000000001" type="curve" smooth="yes"/>
      <point x="151.75" y="617.2800000000001"/>
      <point x="175.445" y="641.31"/>
      <point x="175.445" y="674.68" type="curve" smooth="yes"/>
      <point x="175.445" y="707.385"/>
      <point x="151.75" y="732.0799999999999"/>
      <point x="119.38000000000001" y="732.0799999999999" type="curve" smooth="yes"/>
      <point x="87.675" y="732.0799999999999"/>
      <point x="63.315000000000005" y="707.385"/>
      <point x="63.315000000000005" y="674.68" type="curve" smooth="yes"/>
      <point x="63.315000000000005" y="641.31"/>
      <point x="87.675" y="617.2800000000001"/>
    </contour>
  </outline>
</glyph>
<glyph name="k" format="2">
  <advance width="414.11"/>
  <unicode hex="006B"/>
  <anchor x="214.07" y="0.0" name="bottom"/>
  <anchor x="214.07" y="776.0" name="top"/>
  <outline>
    <contour>
      <point x="76.315" y="0.0" type="line"/>
      <point x="162.445" y="0.0" type="line"/>
      <point x="162.445" y="251.95499999999998" type="line"/>
      <point x="220.075" y="191.63000000000002"/>
      <point x="279.7152240134886" y="89.20459922122544"/>
      <point x="316.97999999999996" y="0.0" type="curve"/>
      <point x="409.78" y="0.0" type="line"/>
      <point x="371.8" y="96.02000000000001"/>
      <point x="303.495" y="211.01500000000001"/>
      <point x="237.195" y="280.67" type="curve"/>
      <point x="290.17" y="350.005"/>
      <point x="343.9614772542982" y="433.975936691842"/>
      <point x="394.805" y="524.685" type="curve"/>
      <point x="302.67" y="524.685" type="line"/>
      <point x="267.1030687136881" y="458.54461104815647"/>
      <point x="211.4" y="366.69"/>
      <point x="162.445" y="300.375" type="curve"/>
      <point x="162.445" y="776.0" type="line"/>
      <point x="76.315" y="760.65" type="line"/>
    </contour>
  </outline>
</glyph>
<glyph name="l" format="2">
  <advance width="242.76500000000001"/>
  <unicode hex="006C"/>
  <anchor x="121.38499999999999" y="0.0" name="bottom"/>
  <anchor x="121.38499999999999" y="388.0" name="center"/>
  <anchor x="121.38499999999999" y="776.0" name="top"/>
  <anchor x="222.435" y="776.0" name="topright"/>
  <outline>
    <contour>
      <point x="214.105" y="-8.68" type="curve"/>
      <point x="224.785" y="62.755" type="line"/>
      <point x="178.445" y="69.745"/>
      <point x="161.115" y="89.735"/>
      <point x="161.115" y="137.39000000000001" type="curve" smooth="yes"/>
      <point x="161.115" y="776.0" type="line"/>
      <point x="74.985" y="760.65" type="line"/>
      <point x="74.985" y="137.385" type="line" smooth="yes"/>
      <point x="74.985" y="43.335"/>
      <point x="119.36" y="-3.35"/>
    </contour>
  </outline>
</glyph>
<glyph name="m" format="2">
  <advance width="694.0899999999999"/>
  <unicode hex="006D"/>
  <anchor x="352.07000000000005" y="0.0" name="bottom"/>
  <anchor x="352.07000000000005" y="520.35" name="top"/>
  <outline>
    <contour>
      <point x="76.315" y="0.0" type="line"/>
      <point x="162.445" y="0.0" type="line"/>
      <point x="162.445" y="449.26500000000004" type="line"/>
      <point x="182.42" y="455.92"/>
      <point x="203.39000000000001" y="460.24499999999995"/>
      <point x="220.70000000000002" y="460.24499999999995" type="curve" smooth="yes"/>
      <point x="286.0" y="460.24499999999995"/>
      <point x="306.31500000000005" y="422.615"/>
      <point x="306.31500000000005" y="320.3" type="curve" smooth="yes"/>
      <point x="306.31500000000005" y="0.0" type="line"/>
      <point x="393.11" y="0.0" type="line"/>
      <point x="393.11" y="326.965" type="line" smooth="yes"/>
      <point x="393.11" y="369.62"/>
      <point x="387.78" y="403.95"/>
      <point x="378.45" y="433.615" type="curve"/>
      <point x="399.435" y="450.26"/>
      <point x="425.4" y="460.24499999999995"/>
      <point x="451.70500000000004" y="460.24499999999995" type="curve" smooth="yes"/>
      <point x="515.33" y="460.24499999999995"/>
      <point x="536.9799999999999" y="420.94"/>
      <point x="536.9799999999999" y="320.3" type="curve"/>
      <point x="536.9799999999999" y="0.0" type="line"/>
      <point x="623.11" y="0.0" type="line"/>
      <point x="623.11" y="326.96500000000003" type="line" smooth="yes"/>
      <point x="623.11" y="475.645"/>
      <point x="567.765" y="535.3499999999999"/>
      <point x="461.71999999999997" y="535.3499999999999" type="curve" smooth="yes"/>
      <point x="417.06" y="535.3499999999999"/>
      <point x="376.73" y="519.69"/>
      <point x="341.73" y="494.36" type="curve"/>
      <point x="313.72" y="522.685"/>
      <point x="274.71000000000004" y="535.3499999999999"/>
      <point x="224.70000000000002" y="535.3499999999999" type="curve" smooth="yes"/>
      <point x="175.01" y="535.3499999999999"/>
      <point x="123.67" y="524.36"/>
      <point x="76.315" y="509.695" type="curve"/>
    </contour>
  </outline>
</glyph>
<glyph name="n" format="2">
  <advance width="480.395"/>
  <unicode hex="006E"/>
  <anchor x="240.03" y="0.0" name="bottom"/>
  <anchor x="240.03" y="520.35" name="top"/>
  <outline>
    <contour>
      <point x="76.315" y="0.0" type="line"/>
      <point x="162.445" y="0.0" type="line"/>
      <point x="162.445" y="449.26500000000004" type="line"/>
      <point x="184.415" y="456.585"/>
      <point x="208.04500000000002" y="460.24499999999995"/>
      <point x="227.35" y="460.24499999999995" type="curve" smooth="yes"/>
      <point x="298.635" y="460.24499999999995"/>
      <point x="323.28499999999997" y="417.94"/>
      <point x="323.28499999999997" y="312.32" type="curve" smooth="yes"/>
      <point x="323.28499999999997" y="0.0" type="line"/>
      <point x="409.415" y="0.0" type="line"/>
      <point x="409.415" y="318.985" type="line" smooth="yes"/>
      <point x="409.415" y="472.985"/>
      <point x="349.065" y="535.3499999999999"/>
      <point x="232.015" y="535.3499999999999" type="curve" smooth="yes"/>
      <point x="180.33" y="535.3499999999999"/>
      <point x="125.66499999999999" y="525.025"/>
      <point x="76.315" y="509.695" type="curve"/>
    </contour>
  </outline>
</glyph>
<glyph name="o" format="2">
  <advance width="463.39"/>
  <unicode hex="006F"/>
  <anchor x="231.695" y="0.0" name="bottom"/>
  <anchor x="231.695" y="260.34" name="center"/>
  <anchor x="417.04" y="10.0" name="ogonek"/>
  <anchor x="231.695" y="520.35" name="top"/>
  <anchor x="442.71" y="520.35" name="topright"/>
  <outline>
    <contour>
      <point x="231.695" y="-12.67" type="curve" smooth="yes"/>
      <point x="351.38000000000005" y="-12.67"/>
      <point x="415.07000000000005" y="91.32499999999999"/>
      <point x="415.07000000000005" y="262.675" type="curve" smooth="yes"/>
      <point x="415.07000000000005" y="433.36"/>
      <point x="351.38" y="538.02"/>
      <point x="231.695" y="538.02" type="curve" smooth="yes"/>
      <point x="112.01" y="538.02"/>
      <point x="48.32" y="433.36"/>
      <point x="48.32" y="262.675" type="curve" smooth="yes"/>
      <point x="48.32" y="91.32499999999999"/>
      <point x="112.01" y="-12.67"/>
    </contour>
    <contour>
      <point x="231.695" y="63.769999999999996" type="curve" smooth="yes"/>
      <point x="168.42000000000002" y="63.769999999999996"/>
      <point x="138.455" y="134.705"/>
      <point x="138.455" y="262.675" type="curve" smooth="yes"/>
      <point x="138.455" y="390.645"/>
      <point x="168.42000000000002" y="461.58"/>
      <point x="231.695" y="461.58" type="curve" smooth="yes"/>
      <point x="294.96999999999997" y="461.58"/>
      <point x="324.935" y="390.645"/>
      <point x="324.935" y="262.675" type="curve" smooth="yes"/>
      <point x="324.935" y="134.37"/>
      <point x="295.30499999999995" y="63.769999999999996"/>
    </contour>
  </outline>
</glyph>
<glyph name="p" format="2">
  <advance width="466.41"/>
  <unicode hex="0070"/>
  <anchor x="236.715" y="0.0" name="bottom"/>
  <anchor x="236.715" y="520.35" name="top"/>
  <outline>
    <contour>
      <point x="75.65" y="-185.0" type="line"/>
      <point x="161.78" y="-185.0" type="line"/>
      <point x="161.78" y="7.984999999999999" type="line"/>
      <point x="181.44" y="-2.6750000000000003"/>
      <point x="208.43" y="-11.33"/>
      <point x="238.73999999999998" y="-11.33" type="curve" smooth="yes"/>
      <point x="354.43" y="-11.33"/>
      <point x="418.09" y="76.02"/>
      <point x="418.09" y="263.03" type="curve" smooth="yes"/>
      <point x="418.09" y="434.03499999999997"/>
      <point x="358.385" y="536.68"/>
      <point x="217.055" y="536.68" type="curve" smooth="yes"/>
      <point x="165.70000000000002" y="536.68"/>
      <point x="120.015" y="527.02"/>
      <point x="75.65" y="511.025" type="curve"/>
    </contour>
    <contour>
      <point x="225.375" y="63.775000000000006" type="curve" smooth="yes"/>
      <point x="201.07000000000002" y="63.775000000000006"/>
      <point x="177.43" y="71.09500000000001"/>
      <point x="161.78" y="82.08" type="curve"/>
      <point x="161.78" y="451.925" type="line"/>
      <point x="177.42999999999998" y="457.915"/>
      <point x="197.07" y="461.575"/>
      <point x="216.715" y="461.575" type="curve" smooth="yes"/>
      <point x="289.995" y="461.575"/>
      <point x="328.62" y="414.29499999999996"/>
      <point x="328.62" y="263.695" type="curve" smooth="yes"/>
      <point x="328.62" y="101.43"/>
      <point x="281.685" y="63.775000000000006"/>
    </contour>
  </outline>
</glyph>
<glyph name="q" format="2">
  <advance width="466.41"/>
  <unicode hex="0071"/>
  <anchor x="226.67499999999998" y="0.0" name="bottom"/>
  <anchor x="226.67499999999998" y="520.35" name="top"/>
  <outline>
    <contour>
      <point x="304.63" y="-185.0" type="line"/>
      <point x="390.76" y="-185.0" type="line"/>
      <point x="390.76" y="511.025" type="line"/>
      <point x="346.395" y="527.02"/>
      <point x="300.71000000000004" y="536.68"/>
      <point x="249.355" y="536.68" type="curve" smooth="yes"/>
      <point x="108.025" y="536.68"/>
      <point x="48.32" y="434.03499999999997"/>
      <point x="48.32" y="263.03" type="curve" smooth="yes"/>
      <point x="48.32" y="76.02"/>
      <point x="111.98" y="-11.33"/>
      <point x="227.67000000000002" y="-11.33" type="curve" smooth="yes"/>
      <point x="257.98" y="-11.33"/>
      <point x="284.96999999999997" y="-2.6750000000000003"/>
      <point x="304.63" y="7.984999999999999" type="curve"/>
    </contour>
    <contour>
      <point x="241.035" y="63.775000000000006" type="curve" smooth="yes"/>
      <point x="184.725" y="63.775000000000006"/>
      <point x="138.455" y="101.43"/>
      <point x="138.455" y="263.695" type="curve" smooth="yes"/>
      <point x="138.455" y="414.29499999999996"/>
      <point x="176.415" y="461.575"/>
      <point x="249.695" y="461.575" type="curve" smooth="yes"/>
      <point x="269.34000000000003" y="461.575"/>
      <point x="288.98" y="457.915"/>
      <point x="304.63" y="451.925" type="curve"/>
      <point x="304.63" y="82.08" type="line"/>
      <point x="288.98" y="71.09500000000001"/>
      <point x="265.34000000000003" y="63.775000000000006"/>
    </contour>
  </outline>
</glyph>
<glyph name="r" format="2">
  <advance width="326.425"/>
  <unicode hex="0072"/>
  <anchor x="163.70499999999998" y="0.0" name="bottom"/>
  <anchor x="163.70499999999998" y="520.35" name="top"/>
  <outline>
    <contour>
      <point x="76.315" y="0.0" type="line"/>
      <point x="162.445" y="0.0" type="line"/>
      <point x="162.445" y="446.925" type="line"/>
      <point x="183.765" y="456.25"/>
      <point x="208.08499999999998" y="460.245"/>
      <point x="235.745" y="460.245" type="curve" smooth="yes"/>
      <point x="260.405" y="460.245"/>
      <point x="283.07000000000005" y="456.90999999999997"/>
      <point x="303.735" y="449.245" type="curve"/>
      <point x="318.76" y="521.68" type="line"/>
      <point x="296.095" y="530.68"/>
      <point x="263.075" y="534.6850000000001"/>
      <point x="228.05499999999998" y="534.6850000000001" type="curve" smooth="yes"/>
      <point x="172.69500000000002" y="534.6850000000001"/>
      <point x="116.315" y="521.015"/>
      <point x="76.315" y="501.68" type="curve"/>
    </contour>
  </outline>
</glyph>
<glyph name="s" format="2">
  <advance width="344.745"/>
  <unicode hex="0073"/>
  <anchor x="172.715" y="0.0" name="bottom"/>
  <anchor x="172.715" y="520.35" name="top"/>
  <outline>
    <contour>
      <point x="154.35999999999999" y="-12.67" type="curve" smooth="yes"/>
      <point x="253.055" y="-12.67"/>
      <point x="314.085" y="50.67"/>
      <point x="314.085" y="141.365" type="curve" smooth="yes"/>
      <point x="314.085" y="214.345"/>
      <point x="275.095" y="255.695"/>
      <point x="214.10000000000002" y="292.37" type="curve" smooth="yes"/>
      <point x="159.755" y="325.71999999999997"/>
      <point x="129.78" y="350.36"/>
      <point x="129.78" y="396.325" type="curve" smooth="yes"/>
      <point x="129.78" y="441.39166666666665"/>
      <point x="156.76000000000002" y="465.255"/>
      <point x="201.405" y="465.255" type="curve" smooth="yes"/>
      <point x="227.4" y="465.255"/>
      <point x="254.06" y="459.26"/>
      <point x="280.73499999999996" y="447.92499999999995" type="curve"/>
      <point x="296.085" y="516.685" type="line"/>
      <point x="274.09499999999997" y="527.6800000000001"/>
      <point x="235.08499999999998" y="538.02"/>
      <point x="196.055" y="538.02" type="curve" smooth="yes"/>
      <point x="104.35000000000001" y="538.02"/>
      <point x="45.654999999999994" y="476.995"/>
      <point x="45.654999999999994" y="390.96999999999997" type="curve" smooth="yes"/>
      <point x="45.654999999999994" y="320.64000000000004"/>
      <point x="79.635" y="278.645"/>
      <point x="140.305" y="242.305" type="curve" smooth="yes"/>
      <point x="200.31" y="207.295"/>
      <point x="227.29" y="183.645"/>
      <point x="227.29" y="136.01500000000001" type="curve" smooth="yes"/>
      <point x="227.29" y="92.06"/>
      <point x="198.65499999999997" y="60.095"/>
      <point x="149.01" y="60.095" type="curve" smooth="yes"/>
      <point x="115.35999999999999" y="60.095"/>
      <point x="78.69500000000001" y="72.75500000000001"/>
      <point x="52.025" y="85.43" type="curve"/>
      <point x="35.335" y="15.670000000000002" type="line"/>
      <point x="61.33" y="2.335"/>
      <point x="106.01" y="-12.67"/>
    </contour>
  </outline>
</glyph>
<glyph name="t" format="2">
  <advance width="320.44000000000005"/>
  <unicode hex="0074"/>
  <anchor x="161.035" y="0.0" name="bottom"/>
  <anchor x="161.035" y="260.34" name="center"/>
  <anchor x="161.035" y="520.35" name="top"/>
  <anchor x="301.40500000000003" y="776.0" name="topright"/>
  <outline>
    <contour>
      <point x="216.70000000000002" y="-9.345" type="curve" smooth="yes"/>
      <point x="248.05" y="-9.345"/>
      <point x="281.085" y="-1.3350000000000004"/>
      <point x="305.415" y="13.005" type="curve"/>
      <point x="290.4" y="81.10000000000001" type="line"/>
      <point x="272.1624916187629" y="71.48644251612589"/>
      <point x="253.07" y="66.765"/>
      <point x="230.4" y="66.765" type="curve" smooth="yes"/>
      <point x="183.425" y="66.765"/>
      <point x="157.775" y="95.08999999999999"/>
      <point x="157.775" y="164.07000000000002" type="curve" smooth="yes"/>
      <point x="157.775" y="451.585" type="line"/>
      <point x="290.09499999999997" y="451.585" type="line"/>
      <point x="290.09499999999997" y="524.685" type="line"/>
      <point x="157.775" y="524.685" type="line"/>
      <point x="157.775" y="681.0" type="line"/>
      <point x="71.64500000000001" y="665.65" type="line"/>
      <point x="71.64500000000001" y="168.745" type="line" smooth="yes"/>
      <point x="71.64500000000001" y="42.375"/>
      <point x="122.64" y="-9.345"/>
    </contour>
  </outline>
</glyph>
<glyph name="u" format="2">
  <advance width="479.065"/>
  <unicode hex="0075"/>
  <anchor x="240.70499999999998" y="0.0" name="bottom"/>
  <anchor x="432.72999999999996" y="10.0" name="ogonek"/>
  <anchor x="240.70499999999998" y="520.35" name="top"/>
  <anchor x="461.405" y="520.35" name="topright"/>
  <outline>
    <contour>
      <point x="250.375" y="-10.665" type="curve" smooth="yes"/>
      <point x="302.06" y="-10.665"/>
      <point x="358.72" y="0.9899999999999999"/>
      <point x="403.415" y="14.99" type="curve"/>
      <point x="403.415" y="524.685" type="line"/>
      <point x="317.285" y="524.685" type="line"/>
      <point x="317.285" y="74.755" type="line"/>
      <point x="295.315" y="67.435"/>
      <point x="272.35" y="64.44"/>
      <point x="251.71499999999997" y="64.44" type="curve" smooth="yes"/>
      <point x="183.755" y="64.44"/>
      <point x="156.44500000000002" y="103.42"/>
      <point x="156.44500000000002" y="209.04" type="curve" smooth="yes"/>
      <point x="156.44500000000002" y="524.685" type="line"/>
      <point x="70.315" y="524.685" type="line"/>
      <point x="70.315" y="203.70499999999998" type="line" smooth="yes"/>
      <point x="70.315" y="49.705000000000005"/>
      <point x="131.32999999999998" y="-10.665"/>
    </contour>
  </outline>
</glyph>
<glyph name="v" format="2">
  <advance width="397.42"/>
  <unicode hex="0076"/>
  <anchor x="199.38" y="0.0" name="bottom"/>
  <anchor x="199.38" y="520.35" name="top"/>
  <outline>
    <contour>
      <point x="154.645" y="0.0" type="curve"/>
      <point x="242.775" y="0.0" type="line"/>
      <point x="289.1" y="123.375"/>
      <point x="348.415" y="338.63"/>
      <point x="382.1" y="524.685" type="curve"/>
      <point x="295.63" y="524.685" type="line"/>
      <point x="274.32000000000005" y="392.76"/>
      <point x="237.345" y="221.475"/>
      <point x="200.045" y="101.51" type="curve"/>
      <point x="163.07999999999998" y="220.81"/>
      <point x="126.77" y="393.095"/>
      <point x="106.455" y="524.685" type="curve"/>
      <point x="15.32" y="524.685" type="line"/>
      <point x="49.669999999999995" y="338.63"/>
      <point x="108.32000000000001" y="123.375"/>
    </contour>
  </outline>
</glyph>
<glyph name="w" format="2">
  <advance width="577.04"/>
  <unicode hex="0077"/>
  <anchor x="287.01" y="0.0" name="bottom"/>
  <anchor x="287.01" y="520.35" name="top"/>
  <outline>
    <contour>
      <point x="126.61" y="0.0" type="curve"/>
      <point x="212.385" y="0.0" type="line"/>
      <point x="240.04000000000002" y="97.98500000000001"/>
      <point x="274.01" y="246.52499999999998"/>
      <point x="291.01" y="373.835" type="curve"/>
      <point x="309.01" y="246.52499999999998"/>
      <point x="337.65999999999997" y="97.98500000000001"/>
      <point x="365.315" y="0.0" type="curve"/>
      <point x="449.765" y="0.0" type="line"/>
      <point x="492.725" y="141.91"/>
      <point x="532.395" y="335.355"/>
      <point x="557.725" y="524.685" type="curve"/>
      <point x="474.26" y="524.685" type="line"/>
      <point x="463.27" y="411.365"/>
      <point x="435.3" y="238.12"/>
      <point x="401.675" y="98.5" type="curve"/>
      <point x="369.03999999999996" y="236.79000000000002"/>
      <point x="344.06" y="413.365"/>
      <point x="333.405" y="524.685" type="curve"/>
      <point x="254.625" y="524.685" type="line"/>
      <point x="242.97" y="413.365"/>
      <point x="212.335" y="235.455"/>
      <point x="176.03" y="98.495" type="curve"/>
      <point x="141.73999999999998" y="238.115"/>
      <point x="116.44" y="411.03"/>
      <point x="106.12" y="524.685" type="curve"/>
      <point x="18.65" y="524.685" type="line"/>
      <point x="44.644999999999996" y="335.355"/>
      <point x="83.65" y="142.575"/>
    </contour>
  </outline>
</glyph>
<glyph name="x" format="2">
  <advance width="388.39500000000004"/>
  <unicode hex="0078"/>
  <anchor x="193.355" y="0.0" name="bottom"/>
  <anchor x="193.355" y="520.35" name="top"/>
  <outline>
    <contour>
      <point x="13.645" y="0.0" type="curve"/>
      <point x="97.77499999999999" y="0.0" type="line"/>
      <point x="119.425" y="67.97"/>
      <point x="154.38" y="139.23999999999998"/>
      <point x="191.695" y="209.56" type="curve"/>
      <point x="230.01" y="137.57"/>
      <point x="262.96999999999997" y="69.28999999999999"/>
      <point x="286.28000000000003" y="0.0" type="curve"/>
      <point x="374.085" y="0.0" type="line"/>
      <point x="344.415" y="82.34"/>
      <point x="299.455" y="173.95"/>
      <point x="244.79" y="274.97499999999997" type="curve"/>
      <point x="367.43" y="524.685" type="line"/>
      <point x="281.63500000000005" y="524.685" type="line"/>
      <point x="196.37" y="340.72" type="line"/>
      <point x="110.10000000000001" y="524.685" type="line"/>
      <point x="20.965" y="524.685" type="line"/>
      <point x="142.94" y="274.31" type="line"/>
      <point x="89.605" y="173.28500000000003"/>
      <point x="43.315000000000005" y="82.34"/>
    </contour>
  </outline>
</glyph>
<glyph name="y" format="2">
  <advance width="397.085"/>
  <unicode hex="0079"/>
  <anchor x="200.06" y="0.0" name="bottom"/>
  <anchor x="200.06" y="520.35" name="top"/>
  <outline>
    <contour>
      <point x="67.045" y="-188.0" type="curve" smooth="yes"/>
      <point x="149.77" y="-188.0"/>
      <point x="194.445" y="-137.025"/>
      <point x="246.44" y="7.3149999999999995" type="curve" smooth="yes"/>
      <point x="296.44" y="147.0"/>
      <point x="346.76" y="331.66999999999996"/>
      <point x="383.105" y="524.685" type="curve"/>
      <point x="297.3" y="524.685" type="line"/>
      <point x="274.995" y="386.105"/>
      <point x="240.35500000000002" y="231.135"/>
      <point x="201.385" y="101.82000000000001" type="curve"/>
      <point x="165.405" y="216.84"/>
      <point x="125.11000000000001" y="395.42"/>
      <point x="107.46000000000001" y="524.685" type="curve"/>
      <point x="16.325" y="524.685" type="line"/>
      <point x="51.32" y="342.73"/>
      <point x="98.64999999999999" y="161.085"/>
      <point x="158.98499999999999" y="-4.314999999999999" type="curve"/>
      <point x="126.09263322466454" y="-87.01199374627478"/>
      <point x="98.03" y="-114.225"/>
      <point x="63.37499999999999" y="-114.225" type="curve" smooth="yes"/>
      <point x="49.365" y="-114.225"/>
      <point x="33.02" y="-111.22500000000001"/>
      <point x="17.685" y="-104.55499999999999" type="curve"/>
      <point x="2.335" y="-174.32000000000002" type="line"/>
      <point x="16.665" y="-181.66000000000003"/>
      <point x="40.35" y="-188.0"/>
    </contour>
  </outline>
</glyph>
<glyph name="z" format="2">
  <advance width="349.715"/>
  <unicode hex="007A"/>
  <anchor x="176.365" y="0.0" name="bottom"/>
  <anchor x="176.365" y="260.34" name="center"/>
  <anchor x="176.365" y="520.35" name="top"/>
  <outline>
    <contour>
      <point x="32.665" y="0.0" type="line"/>
      <point x="320.72499999999997" y="0.0" type="line"/>
      <point x="320.72499999999997" y="73.10000000000001" type="line"/>
      <point x="123.47" y="73.10000000000001" type="line"/>
      <point x="172.81" y="197.41500000000002"/>
      <point x="252.435" y="351.67499999999995"/>
      <point x="314.055" y="458.585" type="curve"/>
      <point x="314.055" y="524.685" type="line"/>
      <point x="45.330000000000005" y="524.685" type="line"/>
      <point x="45.330000000000005" y="451.585" type="line"/>
      <point x="221.585" y="451.585" type="line"/>
      <point x="158.26500000000001" y="339.935"/>
      <point x="79.305" y="183.0"/>
      <point x="32.665" y="61.415" type="curve"/>
    </contour>
  </outline>
</glyph>
<glyph name="braceleft" format="2">
  <advance width="266.065"/>
  <unicode hex="007B"/>
  <outline>
    <contour>
      <point x="255.73999999999998" y="-184.665" type="curve" smooth="yes"/>
      <point x="260.395" y="-184.665" type="line"/>
      <point x="260.395" y="-115.57000000000001" type="line"/>
      <point x="255.74" y="-115.57000000000001" type="line"/>
      <point x="207.745" y="-115.57"/>
      <point x="184.08999999999997" y="-90.905"/>
      <point x="184.08999999999997" y="-30.300000000000004" type="curve" smooth="yes"/>
      <point x="184.08999999999997" y="150.33" type="line" smooth="yes"/>
      <point x="184.08999999999997" y="225.99"/>
      <point x="161.42499999999998" y="272.99"/>
      <point x="116.08500000000001" y="299.0" type="curve"/>
      <point x="161.42499999999998" y="323.68"/>
      <point x="184.08999999999997" y="371.015"/>
      <point x="184.08999999999997" y="447.34" type="curve" smooth="yes"/>
      <point x="184.08999999999997" y="628.635" type="line" smooth="yes"/>
      <point x="184.08999999999997" y="689.91"/>
      <point x="207.075" y="713.905"/>
      <point x="255.73999999999998" y="713.905" type="curve" smooth="yes"/>
      <point x="259.73" y="713.905" type="line"/>
      <point x="259.73" y="783.0" type="line"/>
      <point x="255.73999999999998" y="783.0" type="line"/>
      <point x="155.98999999999998" y="783.0"/>
      <point x="103.31" y="739.315"/>
      <point x="103.31" y="628.64" type="curve" smooth="yes"/>
      <point x="103.31" y="454.03999999999996" type="line"/>
      <point x="103.31" y="378.03999999999996"/>
      <point x="80.985" y="337.715"/>
      <point x="36.99" y="333.05" type="curve"/>
      <point x="36.99" y="264.62" type="line"/>
      <point x="80.64999999999999" y="259.955"/>
      <point x="103.31" y="219.29500000000002"/>
      <point x="103.31" y="143.295" type="curve" smooth="yes"/>
      <point x="103.31" y="-30.305" type="line" smooth="yes"/>
      <point x="103.31" y="-140.98000000000002"/>
      <point x="155.98999999999998" y="-184.665"/>
    </contour>
  </outline>
</glyph>
<glyph name="bar" format="2">
  <advance width="268.75"/>
  <unicode hex="007C"/>
  <outline>
    <contour>
      <point x="93.985" y="-185.0" type="line"/>
      <point x="174.765" y="-185.0" type="line"/>
      <point x="174.765" y="783.0" type="line"/>
      <point x="93.985" y="783.0" type="line"/>
    </contour>
  </outline>
</glyph>
<glyph name="braceright" format="2">
  <advance width="266.065"/>
  <unicode hex="007D"/>
  <outline>
    <contour>
      <point x="5.67" y="-184.665" type="line"/>
      <point x="10.325000000000001" y="-184.665" type="line" smooth="yes"/>
      <point x="110.74" y="-184.665"/>
      <point x="162.755" y="-140.98000000000002"/>
      <point x="162.755" y="-30.305" type="curve" smooth="yes"/>
      <point x="162.755" y="143.295" type="line" smooth="yes"/>
      <point x="162.755" y="219.29500000000002"/>
      <point x="185.415" y="259.955"/>
      <point x="229.075" y="264.62" type="curve"/>
      <point x="229.075" y="333.05" type="line"/>
      <point x="185.07999999999998" y="337.715"/>
      <point x="162.755" y="378.03999999999996"/>
      <point x="162.755" y="454.03999999999996" type="curve"/>
      <point x="162.755" y="628.64" type="line" smooth="yes"/>
      <point x="162.755" y="739.315"/>
      <point x="110.74" y="783.0"/>
      <point x="10.325000000000001" y="783.0" type="curve"/>
      <point x="6.335" y="783.0" type="line"/>
      <point x="6.335" y="713.905" type="line"/>
      <point x="10.325" y="713.905" type="line"/>
      <point x="58.99" y="713.905"/>
      <point x="81.975" y="689.9100000000001"/>
      <point x="81.975" y="628.635" type="curve" smooth="yes"/>
      <point x="81.975" y="447.34" type="line" smooth="yes"/>
      <point x="81.975" y="371.68"/>
      <point x="104.64" y="324.345"/>
      <point x="149.98000000000002" y="299.0" type="curve"/>
      <point x="104.64" y="273.65500000000003"/>
      <point x="81.975" y="226.655"/>
      <point x="81.975" y="150.33" type="curve" smooth="yes"/>
      <point x="81.975" y="-30.300000000000004" type="line" smooth="yes"/>
      <point x="81.975" y="-90.905"/>
      <point x="58.32" y="-115.57000000000001"/>
      <point x="10.325000000000001" y="-115.57000000000001" type="curve"/>
      <point x="5.67" y="-115.57000000000001" type="line"/>
    </contour>
  </outline>
</glyph>
<glyph name="asciitilde" format="2">
  <advance width="431.34"/>
  <unicode hex="007E"/>
  <outline>
    <contour>
      <point x="291.66" y="222.295" type="curve" smooth="yes"/>
      <point x="358.695" y="222.295"/>
      <point x="392.02500000000003" y="278.665"/>
      <point x="405.375" y="357.7" type="curve"/>
      <point x="345.635" y="375.39" type="line"/>
      <point x="335.63" y="317.39"/>
      <point x="313.97999999999996" y="301.405"/>
      <point x="290.65500000000003" y="301.405" type="curve" smooth="yes"/>
      <point x="247.20023178807946" y="301.405"/>
      <point x="207.50139072847682" y="377.385"/>
      <point x="139.015" y="377.385" type="curve"/>
      <point x="72.645" y="377.385"/>
      <point x="39.315" y="321.015"/>
      <point x="25.299999999999997" y="241.98" type="curve"/>
      <point x="85.04" y="224.29" type="line"/>
      <point x="95.71" y="282.955"/>
      <point x="118.02499999999999" y="298.27500000000003"/>
      <point x="140.355" y="298.27500000000003" type="curve" smooth="yes"/>
      <point x="183.80400000000003" y="298.27500000000003"/>
      <point x="224.474" y="222.295"/>
    </contour>
  </outline>
</glyph>
<glyph name="exclamdown" format="2">
  <advance width="263.24949999999995"/>
  <unicode hex="00A1"/>
  <outline>
    <contour>
      <point x="84.61" y="-185.0" type="line"/>
      <point x="178.41500000000002" y="-185.0" type="line"/>
      <point x="178.41500000000002" y="20.63" type="line"/>
      <point x="178.41500000000002" y="132.16"/>
      <point x="169.055" y="219.79500000000002"/>
      <point x="157.36499999999998" y="309.555" type="curve"/>
      <point x="105.66000000000001" y="309.555" type="line"/>
      <point x="93.63499999999999" y="219.8"/>
      <point x="84.61" y="132.155"/>
      <point x="84.61" y="20.63" type="curve" smooth="yes"/>
    </contour>
    <contour>
      <point x="131.34" y="418.185" type="curve" smooth="yes"/>
      <point x="167.39499999999998" y="418.185"/>
      <point x="191.425" y="446.22499999999997"/>
      <point x="191.425" y="477.265" type="curve" smooth="yes"/>
      <point x="191.425" y="509.97"/>
      <point x="167.39499999999998" y="538.34"/>
      <point x="131.34" y="538.34" type="curve" smooth="yes"/>
      <point x="94.955" y="538.34"/>
      <point x="71.26" y="509.97"/>
      <point x="71.26" y="477.265" type="curve" smooth="yes"/>
      <point x="71.26" y="446.22499999999997"/>
      <point x="94.955" y="418.185"/>
    </contour>
  </outline>
</glyph>
<glyph name="cent" format="2">
  <advance width="430.0"/>
  <unicode hex="00A2"/>
  <outline>
    <contour>
      <point x="200.60999999999999" y="-101.0" type="line"/>
      <point x="280.05" y="-101.0" type="line"/>
      <point x="280.05" y="30.0" type="line"/>
      <point x="317.745" y="33.34"/>
      <point x="349.425" y="45.345"/>
      <point x="369.365" y="58.995" type="curve"/>
      <point x="350.34999999999997" y="126.425" type="line"/>
      <point x="328.425" y="114.78999999999999"/>
      <point x="305.45000000000005" y="106.77"/>
      <point x="274.05" y="106.77" type="curve" smooth="yes"/>
      <point x="185.03" y="106.77"/>
      <point x="162.43" y="185.14000000000001"/>
      <point x="162.43" y="292.35" type="curve" smooth="yes"/>
      <point x="162.43" y="419.635"/>
      <point x="195.39999999999998" y="479.57"/>
      <point x="271.03" y="479.57" type="curve" smooth="yes"/>
      <point x="300.345" y="479.57"/>
      <point x="322.005" y="472.225"/>
      <point x="343.005" y="459.57" type="curve"/>
      <point x="365.365" y="531.005" type="line"/>
      <point x="340.0" y="543.005"/>
      <point x="314.0" y="554.34"/>
      <point x="280.05" y="556.005" type="curve"/>
      <point x="280.05" y="685.0" type="line"/>
      <point x="200.60999999999999" y="685.0" type="line"/>
      <point x="200.60999999999999" y="546.005" type="line"/>
      <point x="112.62499999999999" y="516.9749999999999"/>
      <point x="71.625" y="425.94500000000005"/>
      <point x="71.625" y="292.35" type="curve" smooth="yes"/>
      <point x="71.625" y="168.415"/>
      <point x="104.945" y="69.37"/>
      <point x="200.60999999999999" y="39.34" type="curve"/>
    </contour>
  </outline>
</glyph>
<glyph name="sterling" format="2">
  <advance width="430.0"/>
  <unicode hex="00A3"/>
  <outline>
    <contour>
      <point x="86.66" y="0.0" type="curve"/>
      <point x="401.395" y="0.0" type="line"/>
      <point x="401.395" y="74.43" type="line"/>
      <point x="182.79999999999998" y="74.43" type="line"/>
      <point x="193.79" y="141.04999999999998"/>
      <point x="199.79000000000002" y="224.255"/>
      <point x="199.79" y="289.955" type="curve" smooth="yes"/>
      <point x="199.79" y="302.955" type="line"/>
      <point x="339.395" y="302.955" type="line"/>
      <point x="339.395" y="372.375" type="line"/>
      <point x="199.79" y="372.375" type="line"/>
      <point x="199.79" y="514.26" type="line"/>
      <point x="199.79" y="588.23"/>
      <point x="234.745" y="629.555"/>
      <point x="296.05499999999995" y="629.555" type="curve" smooth="yes"/>
      <point x="321.39" y="629.5550000000001"/>
      <point x="349.365" y="620.235"/>
      <point x="370.04499999999996" y="607.225" type="curve"/>
      <point x="390.745" y="680.005" type="line"/>
      <point x="367.41499999999996" y="694.0"/>
      <point x="330.425" y="706.0"/>
      <point x="288.415" y="706.0" type="curve" smooth="yes"/>
      <point x="186.66" y="706.0"/>
      <point x="113.0" y="639.655"/>
      <point x="113.0" y="516.265" type="curve" smooth="yes"/>
      <point x="113.0" y="372.375" type="line"/>
      <point x="44.35" y="372.375" type="line"/>
      <point x="44.35" y="302.955" type="line"/>
      <point x="113.0" y="302.955" type="line"/>
      <point x="113.0" y="282.60499999999996" type="line" smooth="yes"/>
      <point x="113.0" y="186.345"/>
      <point x="102.995" y="93.345"/>
    </contour>
  </outline>
</glyph>
<glyph name="currency" format="2">
  <advance width="430.0"/>
  <unicode hex="00A4"/>
  <outline>
    <contour>
      <point x="88.03" y="109.97500000000001" type="line"/>
      <point x="138.02499999999998" y="178.635" type="line"/>
      <point x="160.025" y="164.98"/>
      <point x="186.01999999999998" y="156.655"/>
      <point x="216.005" y="156.655" type="curve" smooth="yes"/>
      <point x="244.66" y="156.655"/>
      <point x="271.65" y="164.98"/>
      <point x="292.65000000000003" y="178.635" type="curve"/>
      <point x="343.98" y="109.97500000000001" type="line"/>
      <point x="402.055" y="160.05" type="line"/>
      <point x="343.4" y="240.37" type="line"/>
      <point x="357.36999999999995" y="270.03"/>
      <point x="365.03" y="306.02500000000003"/>
      <point x="365.03" y="348.005" type="curve" smooth="yes"/>
      <point x="365.03" y="389.655"/>
      <point x="357.04499999999996" y="426.975"/>
      <point x="343.4" y="456.97" type="curve"/>
      <point x="402.055" y="537.9549999999999" type="line"/>
      <point x="343.98" y="588.03" type="line"/>
      <point x="291.65" y="517.375" type="line"/>
      <point x="270.65" y="531.02"/>
      <point x="244.66" y="539.3499999999999"/>
      <point x="216.005" y="539.3499999999999" type="curve" smooth="yes"/>
      <point x="187.02" y="539.3499999999999"/>
      <point x="161.025" y="531.02"/>
      <point x="139.025" y="517.375" type="curve"/>
      <point x="88.03" y="588.03" type="line"/>
      <point x="29.955000000000002" y="537.9549999999999" type="line"/>
      <point x="88.61" y="456.97" type="line"/>
      <point x="74.63" y="426.98"/>
      <point x="66.97500000000001" y="389.655"/>
      <point x="66.97500000000001" y="348.005" type="curve" smooth="yes"/>
      <point x="66.97500000000001" y="306.02000000000004"/>
      <point x="73.63" y="270.365"/>
      <point x="87.61" y="240.37" type="curve"/>
      <point x="29.955000000000002" y="160.04999999999998" type="line"/>
    </contour>
    <contour>
      <point x="216.005" y="224.4" type="curve" smooth="yes"/>
      <point x="167.375" y="224.4"/>
      <point x="137.39" y="270.02500000000003"/>
      <point x="137.39" y="348.005" type="curve" smooth="yes"/>
      <point x="137.39" y="425.97499999999997"/>
      <point x="167.365" y="471.60499999999996"/>
      <point x="216.005" y="471.60499999999996" type="curve" smooth="yes"/>
      <point x="264.97" y="471.60499999999996"/>
      <point x="294.945" y="425.97499999999997"/>
      <point x="294.945" y="348.005" type="curve" smooth="yes"/>
      <point x="294.945" y="270.03000000000003"/>
      <point x="264.97" y="224.4"/>
    </contour>
  </outline>
</glyph>
<glyph name="yen" format="2">
  <advance width="430.0"/>
  <unicode hex="00A5"/>
  <outline>
    <contour>
      <point x="172.95" y="0.0" type="line"/>
      <point x="259.4" y="0.0" type="line"/>
      <point x="259.4" y="120.63" type="line"/>
      <point x="377.39" y="120.63" type="line"/>
      <point x="377.39" y="187.04999999999998" type="line"/>
      <point x="259.4" y="187.04999999999998" type="line"/>
      <point x="259.4" y="280.625" type="line"/>
      <point x="377.39" y="280.625" type="line"/>
      <point x="377.39" y="347.04499999999996" type="line"/>
      <point x="285.77" y="347.04499999999996" type="line"/>
      <point x="342.055" y="483.02"/>
      <point x="382.365" y="593.34"/>
      <point x="417.04999999999995" y="693.0" type="curve"/>
      <point x="334.59999999999997" y="693.0" type="line"/>
      <point x="302.945" y="590.045"/>
      <point x="255.97" y="465.39000000000004"/>
      <point x="216.005" y="375.41499999999996" type="curve"/>
      <point x="176.375" y="465.055"/>
      <point x="129.055" y="590.03"/>
      <point x="97.735" y="693.0" type="curve"/>
      <point x="11.95" y="693.0" type="line"/>
      <point x="45.235" y="593.4250000000001"/>
      <point x="85.265" y="483.04999999999995"/>
      <point x="143.57" y="347.04499999999996" type="curve"/>
      <point x="51.949999999999996" y="347.04499999999996" type="line"/>
      <point x="51.949999999999996" y="280.625" type="line"/>
      <point x="172.95" y="280.625" type="line"/>
      <point x="172.95" y="187.04999999999998" type="line"/>
      <point x="51.949999999999996" y="187.04999999999998" type="line"/>
      <point x="51.949999999999996" y="120.63" type="line"/>
      <point x="172.95" y="120.63" type="line"/>
    </contour>
  </outline>
</glyph>
<glyph name="brokenbar" format="2">
  <advance width="269.79024999999996"/>
  <unicode hex="00A6"/>
  <outline>
    <contour>
      <point x="93.64999999999999" y="399.96999999999997" type="line"/>
      <point x="175.42499999999998" y="399.96999999999997" type="line"/>
      <point x="175.42499999999998" y="783.0" type="line"/>
      <point x="93.64999999999999" y="783.0" type="line"/>
    </contour>
    <contour>
      <point x="93.64999999999999" y="-185.0" type="line"/>
      <point x="175.42499999999998" y="-185.0" type="line"/>
      <point x="175.42499999999998" y="198.37" type="line"/>
      <point x="93.64999999999999" y="198.37" type="line"/>
    </contour>
  </outline>
</glyph>
<glyph name="section" format="2">
  <advance width="400.18737500000003"/>
  <unicode hex="00A7"/>
  <outline>
    <contour>
      <point x="175.34" y="-109.0" type="curve" smooth="yes"/>
      <point x="273.365" y="-109.0"/>
      <point x="344.41499999999996" y="-55.004999999999995"/>
      <point x="344.41499999999996" y="39.03" type="curve" smooth="yes"/>
      <point x="344.41499999999996" y="94.02"/>
      <point x="321.74" y="130.045"/>
      <point x="289.795" y="156.025" type="curve"/>
      <point x="327.365" y="184.34"/>
      <point x="360.395" y="232.66"/>
      <point x="360.395" y="301.0" type="curve" smooth="yes"/>
      <point x="360.395" y="389.455"/>
      <point x="299.2" y="433.42"/>
      <point x="244.045" y="463.03" type="curve" smooth="yes"/>
      <point x="195.745" y="489.34999999999997"/>
      <point x="149.745" y="512.65"/>
      <point x="149.745" y="567.345" type="curve"/>
      <point x="149.745" y="612.635"/>
      <point x="185.42499999999998" y="637.605"/>
      <point x="229.66" y="637.605" type="curve" smooth="yes"/>
      <point x="268.74499999999995" y="637.605"/>
      <point x="302.39" y="624.235"/>
      <point x="325.0" y="611.255" type="curve"/>
      <point x="346.025" y="677.34" type="line"/>
      <point x="314.78999999999996" y="695.975"/>
      <point x="277.14500000000004" y="709.34"/>
      <point x="224.0" y="709.34" type="curve" smooth="yes"/>
      <point x="137.97" y="709.34"/>
      <point x="66.97" y="657.975"/>
      <point x="66.97" y="566.975" type="curve" smooth="yes"/>
      <point x="66.97" y="516.97"/>
      <point x="88.975" y="482.65"/>
      <point x="118.58" y="455.97999999999996" type="curve"/>
      <point x="79.045" y="429.02000000000004"/>
      <point x="40.65" y="378.05"/>
      <point x="40.65" y="308.0" type="curve" smooth="yes"/>
      <point x="40.65" y="207.555"/>
      <point x="110.14" y="170.575"/>
      <point x="167.34" y="140.63" type="curve" smooth="yes"/>
      <point x="223.635" y="111.98"/>
      <point x="260.96999999999997" y="95.34"/>
      <point x="260.96999999999997" y="37.0" type="curve" smooth="yes"/>
      <point x="260.96999999999997" y="-10.969999999999999"/>
      <point x="222.605" y="-37.265"/>
      <point x="175.36999999999998" y="-37.265" type="curve"/>
      <point x="134.57" y="-37.265"/>
      <point x="96.655" y="-28.585"/>
      <point x="60.995000000000005" y="-11.259999999999998" type="curve"/>
      <point x="43.974999999999994" y="-78.005" type="line"/>
      <point x="76.60499999999999" y="-95.64999999999999"/>
      <point x="124.225" y="-109.0"/>
    </contour>
    <contour>
      <point x="237.735" y="189.39000000000001" type="curve"/>
      <point x="231.43" y="192.045"/>
      <point x="226.765" y="195.375"/>
      <point x="220.775" y="198.37" type="curve"/>
      <point x="169.185" y="223.005"/>
      <point x="120.425" y="247.975"/>
      <point x="120.425" y="317.37" type="curve" smooth="yes"/>
      <point x="120.425" y="360.02500000000003"/>
      <point x="137.39000000000001" y="398.95"/>
      <point x="164.97" y="422.95" type="curve"/>
      <point x="174.63" y="416.625"/>
      <point x="184.97" y="410.955"/>
      <point x="194.97" y="405.95" type="curve" smooth="yes"/>
      <point x="239.79" y="380.34"/>
      <point x="280.955" y="353.045"/>
      <point x="280.955" y="291.65000000000003" type="curve" smooth="yes"/>
      <point x="280.955" y="250.365"/>
      <point x="265.34999999999997" y="213.04999999999998"/>
    </contour>
  </outline>
</glyph>
<glyph name="dieresis" format="2">
  <advance width="314.0"/>
  <unicode hex="00A8"/>
  <outline>
    <contour>
      <point x="240.375" y="617.9499999999999" type="curve" smooth="yes"/>
      <point x="271.745" y="617.9499999999999"/>
      <point x="296.77" y="640.97"/>
      <point x="296.77" y="675.3449999999999" type="curve" smooth="yes"/>
      <point x="296.77" y="709.0550000000001"/>
      <point x="271.745" y="732.7399999999999"/>
      <point x="240.375" y="732.7399999999999" type="curve" smooth="yes"/>
      <point x="209.005" y="732.7399999999999"/>
      <point x="183.98" y="709.0550000000001"/>
      <point x="183.98" y="675.3449999999999" type="curve" smooth="yes"/>
      <point x="183.98" y="640.97"/>
      <point x="209.005" y="617.9499999999999"/>
    </contour>
    <contour>
      <point x="73.63" y="617.9499999999999" type="curve" smooth="yes"/>
      <point x="105.0" y="617.9499999999999"/>
      <point x="130.02499999999998" y="640.97"/>
      <point x="130.02499999999998" y="675.3449999999999" type="curve" smooth="yes"/>
      <point x="130.02499999999998" y="709.0550000000001"/>
      <point x="105.0" y="732.7399999999999"/>
      <point x="73.63" y="732.7399999999999" type="curve" smooth="yes"/>
      <point x="42.25999999999999" y="732.7399999999999"/>
      <point x="17.234999999999996" y="709.0550000000001"/>
      <point x="17.234999999999996" y="675.3449999999999" type="curve" smooth="yes"/>
      <point x="17.234999999999996" y="640.97"/>
      <point x="42.25999999999999" y="617.9499999999999"/>
    </contour>
  </outline>
</glyph>
<glyph name="copyright" format="2">
  <advance width="710.45925"/>
  <unicode hex="00A9"/>
  <outline>
    <contour>
      <point x="355.97" y="-15.0" type="curve" smooth="yes"/>
      <point x="509.57" y="-15.0"/>
      <point x="647.65" y="113.605"/>
      <point x="647.65" y="348.34" type="curve"/>
      <point x="647.65" y="582.745"/>
      <point x="509.57" y="709.34"/>
      <point x="355.97" y="709.34" type="curve"/>
      <point x="201.37" y="709.34"/>
      <point x="62.625" y="582.745"/>
      <point x="62.625" y="348.34" type="curve" smooth="yes"/>
      <point x="62.625" y="113.605"/>
      <point x="201.37" y="-15.0"/>
    </contour>
    <contour>
      <point x="371.98" y="142.66" type="curve"/>
      <point x="405.40000000000003" y="142.66"/>
      <point x="438.745" y="152.365"/>
      <point x="469.345" y="169.995" type="curve"/>
      <point x="452.65500000000003" y="227.745" type="line"/>
      <point x="431.055" y="215.44500000000002"/>
      <point x="401.40000000000003" y="205.745"/>
      <point x="375.65500000000003" y="205.745" type="curve" smooth="yes"/>
      <point x="320.36499999999995" y="205.745"/>
      <point x="285.055" y="252.37500000000003"/>
      <point x="285.055" y="348.0" type="curve" smooth="yes"/>
      <point x="285.055" y="443.995"/>
      <point x="319.045" y="490.26"/>
      <point x="372.635" y="490.26" type="curve" smooth="yes"/>
      <point x="398.375" y="490.26"/>
      <point x="427.345" y="480.23"/>
      <point x="447.65" y="468.25500000000005" type="curve"/>
      <point x="464.345" y="525.995" type="line"/>
      <point x="434.745" y="543.9549999999999"/>
      <point x="401.735" y="553.3449999999999"/>
      <point x="368.98" y="553.3449999999999" type="curve" smooth="yes"/>
      <point x="273.34499999999997" y="553.3449999999999"/>
      <point x="213.955" y="479.4"/>
      <point x="213.955" y="348.0" type="curve" smooth="yes"/>
      <point x="213.955" y="216.95"/>
      <point x="274.005" y="142.66"/>
    </contour>
    <contour>
      <point x="355.97" y="47.765" type="curve" smooth="yes"/>
      <point x="225.375" y="47.765"/>
      <point x="131.73499999999999" y="161.05"/>
      <point x="131.73499999999999" y="348.34" type="curve"/>
      <point x="131.73499999999999" y="533.97"/>
      <point x="225.045" y="646.5749999999999"/>
      <point x="355.97" y="646.5749999999999" type="curve" smooth="yes"/>
      <point x="485.575" y="646.5749999999999"/>
      <point x="579.205" y="533.63"/>
      <point x="579.205" y="348.34" type="curve"/>
      <point x="579.205" y="161.045"/>
      <point x="485.235" y="47.765"/>
    </contour>
  </outline>
</glyph>
<glyph name="ordfeminine" format="2">
  <advance width="317.2495"/>
  <unicode hex="00AA"/>
  <outline>
    <contour>
      <point x="161.97" y="328.655" type="curve" smooth="yes"/>
      <point x="202.005" y="328.655"/>
      <point x="239.365" y="336.65500000000003"/>
      <point x="266.055" y="344.66" type="curve"/>
      <point x="266.055" y="583.3499999999999" type="line" smooth="yes"/>
      <point x="266.055" y="651.945"/>
      <point x="238.39" y="706.345"/>
      <point x="153.35" y="706.345" type="curve" smooth="yes"/>
      <point x="120.60499999999999" y="706.345"/>
      <point x="86.6" y="696.6600000000001"/>
      <point x="65.955" y="688.34" type="curve"/>
      <point x="74.97" y="629.26" type="line"/>
      <point x="92.635" y="638.265"/>
      <point x="119.0" y="645.265"/>
      <point x="143.365" y="645.265" type="curve" smooth="yes"/>
      <point x="187.4" y="645.265"/>
      <point x="201.63" y="620.155"/>
      <point x="201.63" y="583.57" type="curve" smooth="yes"/>
      <point x="201.63" y="550.37" type="line"/>
      <point x="186.95499999999998" y="554.03"/>
      <point x="170.98" y="556.03"/>
      <point x="155.02" y="556.03" type="curve" smooth="yes"/>
      <point x="92.045" y="556.03"/>
      <point x="35.95" y="524.05"/>
      <point x="35.95" y="444.0" type="curve" smooth="yes"/>
      <point x="35.95" y="364.995"/>
      <point x="86.03" y="328.655"/>
    </contour>
    <contour>
      <point x="164.34" y="386.4" type="curve" smooth="yes"/>
      <point x="124.00000000000001" y="386.4"/>
      <point x="101.04499999999999" y="403.39"/>
      <point x="101.04499999999999" y="444.34999999999997" type="curve" smooth="yes"/>
      <point x="101.04499999999999" y="487.005"/>
      <point x="132.76500000000001" y="498.955"/>
      <point x="160.34" y="498.955" type="curve" smooth="yes"/>
      <point x="175.37" y="498.955"/>
      <point x="189.74" y="496.945"/>
      <point x="201.63" y="494.63" type="curve"/>
      <point x="201.63" y="391.395" type="line"/>
      <point x="192.005" y="388.40000000000003"/>
      <point x="178.345" y="386.4"/>
    </contour>
  </outline>
</glyph>
<glyph name="logicalnot" format="2">
  <advance width="430.0"/>
  <unicode hex="00AC"/>
  <outline>
    <contour>
      <point x="292.26" y="132.65" type="line"/>
      <point x="367.34999999999997" y="132.65" type="line"/>
      <point x="367.34999999999997" y="394.02500000000003" type="line"/>
      <point x="22.654999999999998" y="394.02500000000003" type="line"/>
      <point x="22.654999999999998" y="320.265" type="line"/>
      <point x="292.26" y="320.265" type="line"/>
    </contour>
  </outline>
</glyph>
<glyph name="registered" format="2">
  <advance width="710.45925"/>
  <unicode hex="00AE"/>
  <outline>
    <contour>
      <point x="355.97" y="-15.0" type="curve" smooth="yes"/>
      <point x="509.57" y="-15.0"/>
      <point x="647.65" y="113.605"/>
      <point x="647.65" y="348.34" type="curve" smooth="yes"/>
      <point x="647.65" y="582.745"/>
      <point x="509.57" y="709.34"/>
      <point x="355.97" y="709.34" type="curve" smooth="yes"/>
      <point x="201.37" y="709.34"/>
      <point x="62.625" y="582.745"/>
      <point x="62.625" y="348.34" type="curve" smooth="yes"/>
      <point x="62.625" y="113.605"/>
      <point x="201.37" y="-15.0"/>
    </contour>
    <contour>
      <point x="355.97" y="47.765" type="curve" smooth="yes"/>
      <point x="225.375" y="47.765"/>
      <point x="131.73499999999999" y="161.05"/>
      <point x="131.73499999999999" y="348.34" type="curve" smooth="yes"/>
      <point x="131.73499999999999" y="533.97"/>
      <point x="225.045" y="646.5749999999999"/>
      <point x="355.97" y="646.5749999999999" type="curve" smooth="yes"/>
      <point x="485.575" y="646.5749999999999"/>
      <point x="579.205" y="533.63"/>
      <point x="579.205" y="348.34" type="curve" smooth="yes"/>
      <point x="579.205" y="161.045"/>
      <point x="485.235" y="47.765"/>
    </contour>
    <contour>
      <point x="246.25499999999997" y="150.0" type="line"/>
      <point x="313.34000000000003" y="150.0" type="line"/>
      <point x="313.34000000000003" y="298.96999999999997" type="line"/>
      <point x="344.555" y="298.96999999999997" type="line"/>
      <point x="347.555" y="298.96999999999997"/>
      <point x="350.23" y="298.96999999999997"/>
      <point x="353.57500000000005" y="298.975" type="curve"/>
      <point x="372.57" y="268.66"/>
      <point x="402.25" y="211.98"/>
      <point x="426.57" y="150.0" type="curve"/>
      <point x="495.65999999999997" y="150.0" type="line"/>
      <point x="478.375" y="205.60999999999999"/>
      <point x="440.57" y="276.82"/>
      <point x="417.005" y="315.65500000000003" type="curve"/>
      <point x="456.34" y="337.995"/>
      <point x="478.0" y="375.005"/>
      <point x="478.0" y="420.65500000000003" type="curve" smooth="yes"/>
      <point x="478.0" y="506.0"/>
      <point x="429.975" y="548.34"/>
      <point x="338.63" y="548.34" type="curve" smooth="yes"/>
      <point x="312.955" y="548.34"/>
      <point x="277.6" y="543.34"/>
      <point x="246.25499999999997" y="534.0" type="curve"/>
    </contour>
    <contour>
      <point x="313.34000000000003" y="353.365" type="line"/>
      <point x="313.34000000000003" y="487.95" type="line"/>
      <point x="322.995" y="488.60999999999996"/>
      <point x="332.65" y="489.60999999999996"/>
      <point x="343.655" y="489.60999999999996" type="curve" smooth="yes"/>
      <point x="378.21" y="489.60999999999996"/>
      <point x="408.57" y="471.66"/>
      <point x="408.57" y="420.65500000000003" type="curve" smooth="yes"/>
      <point x="408.57" y="365.97999999999996"/>
      <point x="377.55" y="353.365"/>
      <point x="336.86" y="353.365" type="curve" smooth="yes"/>
    </contour>
  </outline>
</glyph>
<glyph name="macron" format="2">
  <advance width="313.896125"/>
  <unicode hex="00AF"/>
  <outline>
    <contour>
      <point x="49.625" y="642.9549999999999" type="line"/>
      <point x="263.05" y="642.9549999999999" type="line"/>
      <point x="263.05" y="711.375" type="line"/>
      <point x="49.625" y="711.375" type="line"/>
    </contour>
  </outline>
</glyph>
<glyph name="degree" format="2">
  <advance width="288.33299999999997"/>
  <unicode hex="00B0"/>
  <outline>
    <contour>
      <point x="144.365" y="517.945" type="curve"/>
      <point x="208.02499999999998" y="517.945"/>
      <point x="264.745" y="562.9499999999999"/>
      <point x="264.745" y="636.65" type="curve"/>
      <point x="264.745" y="711.03"/>
      <point x="208.03" y="756.02"/>
      <point x="144.365" y="756.02" type="curve" smooth="yes"/>
      <point x="80.375" y="756.02"/>
      <point x="23.655" y="711.35"/>
      <point x="23.655" y="636.65" type="curve" smooth="yes"/>
      <point x="23.655" y="562.605"/>
      <point x="80.37" y="517.945"/>
    </contour>
    <contour>
      <point x="144.365" y="576.35" type="curve"/>
      <point x="112.39" y="576.35"/>
      <point x="86.39500000000001" y="598.995"/>
      <point x="86.39500000000001" y="636.65" type="curve" smooth="yes"/>
      <point x="86.39500000000001" y="674.97"/>
      <point x="112.39" y="697.9499999999999"/>
      <point x="144.365" y="697.9499999999999" type="curve"/>
      <point x="176.34" y="697.9499999999999"/>
      <point x="202.005" y="674.97"/>
      <point x="202.005" y="636.65" type="curve" smooth="yes"/>
      <point x="202.005" y="598.995"/>
      <point x="176.34" y="576.35"/>
    </contour>
  </outline>
</glyph>
<glyph name="plusminus" format="2">
  <advance width="430.0"/>
  <unicode hex="00B1"/>
  <outline>
    <contour>
      <point x="177.95499999999998" y="124.0" type="line"/>
      <point x="252.04500000000002" y="124.0" type="line"/>
      <point x="252.04500000000002" y="268.95000000000005" type="line"/>
      <point x="387.345" y="268.95000000000005" type="line"/>
      <point x="387.345" y="342.04999999999995" type="line"/>
      <point x="252.04500000000002" y="342.04999999999995" type="line"/>
      <point x="252.04500000000002" y="486.0" type="line"/>
      <point x="177.95499999999998" y="486.0" type="line"/>
      <point x="177.95499999999998" y="342.04999999999995" type="line"/>
      <point x="42.655" y="342.04999999999995" type="line"/>
      <point x="42.655" y="268.95000000000005" type="line"/>
      <point x="177.95499999999998" y="268.95000000000005" type="line"/>
    </contour>
    <contour>
      <point x="42.655" y="-15.395000000000001" type="line"/>
      <point x="387.345" y="-15.395000000000001" type="line"/>
      <point x="387.345" y="58.370000000000005" type="line"/>
      <point x="42.655" y="58.370000000000005" type="line"/>
    </contour>
  </outline>
</glyph>
<glyph name="twosuperior" format="2">
  <advance width="280.0"/>
  <unicode hex="00B2"/>
  <outline>
    <contour>
      <point x="33.629999999999995" y="305.66" type="curve"/>
      <point x="244.04500000000002" y="305.66" type="line"/>
      <point x="244.04500000000002" y="371.74" type="line"/>
      <point x="117.735" y="371.74" type="line"/>
      <point x="124.39000000000001" y="396.98"/>
      <point x="144.345" y="422.945"/>
      <point x="162.345" y="444.945" type="curve"/>
      <point x="192.97" y="482.58000000000004"/>
      <point x="239.045" y="530.25"/>
      <point x="239.045" y="594.9749999999999" type="curve"/>
      <point x="239.045" y="658.025"/>
      <point x="194.375" y="699.34"/>
      <point x="132.0" y="699.34" type="curve" smooth="yes"/>
      <point x="94.6" y="699.34"/>
      <point x="62.24999999999999" y="685.635"/>
      <point x="31.625" y="662.66" type="curve"/>
      <point x="62.0" y="609.6" type="line"/>
      <point x="80.57499999999999" y="622.86"/>
      <point x="103.955" y="634.5999999999999"/>
      <point x="123.655" y="634.5999999999999" type="curve" smooth="yes"/>
      <point x="147.60999999999999" y="634.5999999999999"/>
      <point x="168.95499999999998" y="619.655"/>
      <point x="168.95499999999998" y="587.655" type="curve" smooth="yes"/>
      <point x="168.95499999999998" y="557.9449999999999"/>
      <point x="149.55" y="531.265"/>
      <point x="114.63" y="489.0" type="curve" smooth="yes"/>
      <point x="78.80000000000001" y="445.13500000000005"/>
      <point x="33.625" y="392.735"/>
      <point x="33.625" y="323.34499999999997" type="curve" smooth="yes"/>
      <point x="33.625" y="317.005"/>
      <point x="33.625" y="312.0"/>
    </contour>
  </outline>
</glyph>
<glyph name="threesuperior" format="2">
  <advance width="280.0"/>
  <unicode hex="00B3"/>
  <outline>
    <contour>
      <point x="110.97" y="298.66" type="curve" smooth="yes"/>
      <point x="198.415" y="298.66"/>
      <point x="242.365" y="355.03"/>
      <point x="242.365" y="416.34999999999997" type="curve" smooth="yes"/>
      <point x="242.365" y="459.37"/>
      <point x="219.345" y="496.35"/>
      <point x="185.74" y="514.0" type="curve"/>
      <point x="212.05" y="535.35"/>
      <point x="231.36499999999998" y="560.995"/>
      <point x="231.36499999999998" y="602.66" type="curve" smooth="yes"/>
      <point x="231.36499999999998" y="649.6550000000001"/>
      <point x="196.4" y="699.34"/>
      <point x="119.98" y="699.34" type="curve" smooth="yes"/>
      <point x="84.57499999999999" y="699.34"/>
      <point x="54.55" y="686.63"/>
      <point x="26.950000000000003" y="667.0" type="curve"/>
      <point x="50.650000000000006" y="612.6049999999999" type="line"/>
      <point x="71.95" y="626.5749999999999"/>
      <point x="91.60000000000001" y="635.6049999999999"/>
      <point x="114.97999999999999" y="635.6049999999999" type="curve" smooth="yes"/>
      <point x="143.95499999999998" y="635.6049999999999"/>
      <point x="163.95000000000002" y="621.9699999999999"/>
      <point x="163.95000000000002" y="590.97" type="curve" smooth="yes"/>
      <point x="163.95000000000002" y="549.635"/>
      <point x="127.55499999999999" y="539.025"/>
      <point x="104.97999999999999" y="539.025" type="curve" smooth="yes"/>
      <point x="76.97" y="539.025" type="line"/>
      <point x="76.97" y="479.955" type="line"/>
      <point x="100.98" y="479.955" type="line" smooth="yes"/>
      <point x="135.225" y="479.955"/>
      <point x="171.61" y="462.35"/>
      <point x="171.61" y="419.35" type="curve" smooth="yes"/>
      <point x="171.61" y="386.73999999999995"/>
      <point x="147.0" y="363.4"/>
      <point x="110.97999999999999" y="363.4" type="curve" smooth="yes"/>
      <point x="85.265" y="363.4"/>
      <point x="65.605" y="370.41499999999996"/>
      <point x="43.65" y="384.40000000000003" type="curve"/>
      <point x="23.634999999999998" y="323.995" type="line"/>
      <point x="50.26" y="308.35"/>
      <point x="80.575" y="298.66"/>
    </contour>
  </outline>
</glyph>
<glyph name="acute" format="2">
  <advance width="314.0"/>
  <unicode hex="00B4"/>
  <outline>
    <contour>
      <point x="150.39" y="581.605" type="line"/>
      <point x="286.04499999999996" y="725.5699999999999" type="line"/>
      <point x="224.95499999999998" y="778.0" type="line"/>
      <point x="106.655" y="619.02" type="line"/>
    </contour>
  </outline>
</glyph>
<glyph name="mu" format="2">
  <advance width="487.937875"/>
  <unicode hex="00B5"/>
  <outline>
    <contour>
      <point x="77.975" y="-185.0" type="line"/>
      <point x="164.42999999999998" y="-185.0" type="line"/>
      <point x="164.42999999999998" y="-109.39999999999999" type="line" smooth="yes"/>
      <point x="164.42999999999998" y="-61.43"/>
      <point x="162.43" y="-17.42"/>
      <point x="159.73999999999998" y="25.569999999999997" type="curve"/>
      <point x="185.395" y="-2.0200000000000005"/>
      <point x="222.02" y="-11.0"/>
      <point x="271.995" y="-11.0" type="curve" smooth="yes"/>
      <point x="308.135" y="-11.0"/>
      <point x="376.14" y="3.0300000000000002"/>
      <point x="410.055" y="14.66" type="curve"/>
      <point x="410.055" y="525.35" type="line"/>
      <point x="323.26" y="525.35" type="line"/>
      <point x="323.26" y="73.74" type="line"/>
      <point x="301.02" y="67.775"/>
      <point x="280.40000000000003" y="65.445"/>
      <point x="259.375" y="65.445" type="curve" smooth="yes"/>
      <point x="195.4" y="65.445"/>
      <point x="164.77" y="102.74"/>
      <point x="164.77" y="186.795" type="curve" smooth="yes"/>
      <point x="164.77" y="525.35" type="line"/>
      <point x="77.975" y="525.35" type="line"/>
    </contour>
  </outline>
</glyph>
<glyph name="paragraph" format="2">
  <advance width="530.562125"/>
  <unicode hex="00B6"/>
  <outline>
    <contour>
      <point x="214.95499999999998" y="-185.0" type="line"/>
      <point x="287.045" y="-185.0" type="line"/>
      <point x="287.045" y="626.5749999999999" type="line"/>
      <point x="301.35" y="629.5749999999999"/>
      <point x="344.41499999999996" y="625.5749999999999"/>
      <point x="359.045" y="623.5749999999999" type="curve"/>
      <point x="359.045" y="-185.0" type="line"/>
      <point x="432.135" y="-185.0" type="line"/>
      <point x="432.135" y="680.6550000000001" type="line"/>
      <point x="385.42" y="695.345"/>
      <point x="332.34000000000003" y="700.3399999999999"/>
      <point x="289.345" y="700.3399999999999" type="curve" smooth="yes"/>
      <point x="136.23499999999999" y="700.3399999999999"/>
      <point x="40.655" y="624.625"/>
      <point x="40.655" y="480.0" type="curve" smooth="yes"/>
      <point x="40.655" y="354.63"/>
      <point x="105.345" y="282.005"/>
      <point x="214.95499999999998" y="263.66" type="curve"/>
    </contour>
  </outline>
</glyph>
<glyph name="cedilla" format="2">
  <advance width="314.0"/>
  <unicode hex="00B8"/>
  <outline>
    <contour>
      <point x="122.0" y="-189.33999999999997" type="curve" smooth="yes"/>
      <point x="180.765" y="-189.33999999999997"/>
      <point x="226.365" y="-159.95"/>
      <point x="226.365" y="-108.995" type="curve" smooth="yes"/>
      <point x="226.365" y="-77.975"/>
      <point x="212.02" y="-53.995"/>
      <point x="173.36999999999998" y="-40.0" type="curve"/>
      <point x="181.345" y="-21.045"/>
      <point x="194.04999999999998" y="6.0200000000000005"/>
      <point x="202.36999999999998" y="20.0" type="curve"/>
      <point x="140.975" y="20.0" type="line"/>
      <point x="129.98" y="3.345"/>
      <point x="109.95" y="-39.375"/>
      <point x="99.63000000000001" y="-70.375" type="curve"/>
      <point x="139.25" y="-78.375"/>
      <point x="151.255" y="-88.02"/>
      <point x="151.25500000000002" y="-102.66" type="curve" smooth="yes"/>
      <point x="151.255" y="-123.62499999999999"/>
      <point x="131.945" y="-129.61"/>
      <point x="108.0" y="-129.61" type="curve" smooth="yes"/>
      <point x="91.955" y="-129.61"/>
      <point x="76.63499999999999" y="-125.61"/>
      <point x="63.635" y="-122.60499999999999" type="curve"/>
      <point x="53.955" y="-178.0" type="line"/>
      <point x="75.265" y="-185.995"/>
      <point x="101.97999999999999" y="-189.33999999999997"/>
    </contour>
  </outline>
</glyph>
<glyph name="onesuperior" format="2">
  <advance width="280.0"/>
  <unicode hex="00B9"/>
  <outline>
    <contour>
      <point x="123.63" y="305.66" type="line"/>
      <point x="194.055" y="305.66" type="line"/>
      <point x="194.055" y="693.3449999999999" type="line"/>
      <point x="142.66" y="693.3449999999999" type="line"/>
      <point x="111.37" y="658.745"/>
      <point x="70.97500000000001" y="630.005"/>
      <point x="31.635" y="609.345" type="curve"/>
      <point x="58.650000000000006" y="555.955" type="line"/>
      <point x="80.575" y="564.2600000000001"/>
      <point x="101.625" y="577.265"/>
      <point x="123.63" y="594.58" type="curve"/>
    </contour>
  </outline>
</glyph>
<glyph name="ordmasculine" format="2">
  <advance width="364.187375"/>
  <unicode hex="00BA"/>
  <outline>
    <contour>
      <point x="182.02" y="331.66" type="curve" smooth="yes"/>
      <point x="264.375" y="331.66"/>
      <point x="323.39" y="394.65"/>
      <point x="323.39" y="521.005" type="curve" smooth="yes"/>
      <point x="323.39" y="650.03"/>
      <point x="264.04499999999996" y="710.35"/>
      <point x="182.02" y="710.35" type="curve" smooth="yes"/>
      <point x="100.0" y="710.35"/>
      <point x="40.654999999999994" y="650.03"/>
      <point x="40.654999999999994" y="521.005" type="curve" smooth="yes"/>
      <point x="40.654999999999994" y="393.65"/>
      <point x="100.00500000000001" y="331.66"/>
    </contour>
    <contour>
      <point x="182.02" y="394.745" type="curve" smooth="yes"/>
      <point x="137.39499999999998" y="394.745"/>
      <point x="111.76499999999999" y="435.025"/>
      <point x="111.76499999999999" y="521.005" type="curve" smooth="yes"/>
      <point x="111.76499999999999" y="608.65"/>
      <point x="138.39" y="647.265"/>
      <point x="182.02" y="647.265" type="curve" smooth="yes"/>
      <point x="226.995" y="647.265"/>
      <point x="252.945" y="608.98"/>
      <point x="252.945" y="521.005" type="curve" smooth="yes"/>
      <point x="252.945" y="435.025"/>
      <point x="226.65" y="394.745"/>
    </contour>
  </outline>
</glyph>
<glyph name="questiondown" format="2">
  <advance width="342.62425"/>
  <unicode hex="00BF"/>
  <outline>
    <contour>
      <point x="194.37" y="-188.0" type="curve" smooth="yes"/>
      <point x="246.79" y="-188.0"/>
      <point x="288.455" y="-170.97"/>
      <point x="325.455" y="-145.975" type="curve"/>
      <point x="291.425" y="-79.55" type="line"/>
      <point x="268.05" y="-97.57"/>
      <point x="240.745" y="-111.235"/>
      <point x="204.39" y="-111.235" type="curve" smooth="yes"/>
      <point x="152.82500000000002" y="-111.235"/>
      <point x="121.795" y="-79.655"/>
      <point x="121.795" y="-25.025" type="curve"/>
      <point x="121.795" y="99.25999999999999"/>
      <point x="251.73999999999998" y="124.42"/>
      <point x="251.73999999999998" y="265.55" type="curve" smooth="yes"/>
      <point x="251.73999999999998" y="280.21"/>
      <point x="250.74500000000003" y="293.84000000000003"/>
      <point x="248.74500000000003" y="306.84000000000003" type="curve"/>
      <point x="170.0" y="306.84000000000003" type="line"/>
      <point x="170.66" y="300.54499999999996"/>
      <point x="170.66" y="292.63"/>
      <point x="170.66" y="286.0" type="curve" smooth="yes"/>
      <point x="170.66" y="146.36999999999998"/>
      <point x="26.0" y="109.60999999999999"/>
      <point x="26.0" y="-32.025000000000006" type="curve" smooth="yes"/>
      <point x="26.0" y="-113.235"/>
      <point x="73.555" y="-188.0"/>
    </contour>
    <contour>
      <point x="204.34" y="417.185" type="curve" smooth="yes"/>
      <point x="240.39499999999998" y="417.185"/>
      <point x="264.425" y="445.22499999999997"/>
      <point x="264.425" y="476.26500000000004" type="curve" smooth="yes"/>
      <point x="264.425" y="508.635"/>
      <point x="240.4" y="537.3399999999999"/>
      <point x="204.34" y="537.3399999999999" type="curve" smooth="yes"/>
      <point x="167.95" y="537.3399999999999"/>
      <point x="144.26" y="508.635"/>
      <point x="144.26" y="476.26500000000004" type="curve" smooth="yes"/>
      <point x="144.26" y="445.22499999999997"/>
      <point x="167.95499999999998" y="417.185"/>
    </contour>
  </outline>
</glyph>
<glyph name="Aring" format="2">
  <advance width="503.83200000000005"/>
  <unicode hex="00C5"/>
  <outline>
    <contour>
      <point x="19.65" y="0.0" type="curve"/>
      <point x="107.455" y="0.0" type="line"/>
      <point x="117.45" y="60.0"/>
      <point x="128.775" y="118.975"/>
      <point x="141.43" y="176.60999999999999" type="curve"/>
      <point x="359.0" y="176.60999999999999" type="line"/>
      <point x="370.65000000000003" y="118.975"/>
      <point x="381.96999999999997" y="60.0"/>
      <point x="392.97" y="0.0" type="curve"/>
      <point x="483.45" y="0.0" type="line"/>
      <point x="424.6" y="286.13"/>
      <point x="368.53000000000003" y="479.81"/>
      <point x="305.795" y="673.98" type="curve"/>
      <point x="324.445" y="689.0"/>
      <point x="336.415" y="712.35"/>
      <point x="336.415" y="740.65" type="curve" smooth="yes"/>
      <point x="336.415" y="793.35"/>
      <point x="297.39" y="826.345"/>
      <point x="251.04500000000002" y="826.345" type="curve" smooth="yes"/>
      <point x="205.375" y="826.345"/>
      <point x="166.35000000000002" y="793.3399999999999"/>
      <point x="166.35000000000002" y="740.65" type="curve" smooth="yes"/>
      <point x="166.35000000000002" y="711.35"/>
      <point x="177.65" y="688.0"/>
      <point x="196.97" y="672.98" type="curve"/>
      <point x="135.65" y="480.04499999999996"/>
      <point x="77.63499999999999" y="281.26"/>
    </contour>
    <contour>
      <point x="158.795" y="252.375" type="line"/>
      <point x="186.05499999999998" y="368.21000000000004"/>
      <point x="217.8" y="481.745"/>
      <point x="250.05" y="590.18" type="curve"/>
      <point x="282.96999999999997" y="481.365"/>
      <point x="314.34999999999997" y="368.57500000000005"/>
      <point x="340.63" y="252.375" type="curve"/>
    </contour>
    <contour>
      <point x="251.05" y="699.655" type="curve" smooth="yes"/>
      <point x="229.39499999999998" y="699.655"/>
      <point x="211.055" y="714.97"/>
      <point x="211.055" y="740.65" type="curve" smooth="yes"/>
      <point x="211.055" y="766.66"/>
      <point x="229.05499999999998" y="781.98"/>
      <point x="251.05" y="781.98" type="curve" smooth="yes"/>
      <point x="273.05" y="781.98"/>
      <point x="291.04999999999995" y="766.66"/>
      <point x="291.04999999999995" y="740.65" type="curve" smooth="yes"/>
      <point x="291.04999999999995" y="714.97"/>
      <point x="273.05" y="699.655"/>
    </contour>
  </outline>
</glyph>
<glyph name="AE" format="2">
  <advance width="729.5203750000001"/>
  <unicode hex="00C6"/>
  <anchor x="365.39" y="0.0" name="bottom"/>
  <anchor x="365.39" y="693.0" name="top"/>
  <outline>
    <contour>
      <point x="1.6549999999999998" y="0.0" type="curve"/>
      <point x="89.44500000000001" y="0.0" type="line"/>
      <point x="108.745" y="56.949999999999996"/>
      <point x="131.4" y="116.61"/>
      <point x="155.395" y="176.60999999999999" type="curve"/>
      <point x="357.36499999999995" y="176.60999999999999" type="line"/>
      <point x="357.36499999999995" y="0.0" type="line"/>
      <point x="684.8" y="0.0" type="line"/>
      <point x="684.8" y="77.77000000000001" type="line"/>
      <point x="448.15999999999997" y="77.77000000000001" type="line"/>
      <point x="448.15999999999997" y="325.95000000000005" type="line"/>
      <point x="648.135" y="325.95000000000005" type="line"/>
      <point x="648.135" y="401.05" type="line"/>
      <point x="448.15999999999997" y="401.05" type="line"/>
      <point x="448.15999999999997" y="615.23" type="line"/>
      <point x="669.135" y="615.23" type="line"/>
      <point x="669.135" y="693.0" type="line"/>
      <point x="313.945" y="693.0" type="line"/>
      <point x="204.765" y="497.165"/>
      <point x="82.00500000000001" y="231.425"/>
    </contour>
    <contour>
      <point x="186.455" y="252.37499999999997" type="line"/>
      <point x="239.41500000000002" y="374.97999999999996"/>
      <point x="298.415" y="499.0"/>
      <point x="357.36499999999995" y="611.5999999999999" type="curve"/>
      <point x="357.36499999999995" y="252.37499999999997" type="line"/>
    </contour>
  </outline>
</glyph>
<glyph name="Ccedilla" format="2">
  <advance width="469.0835"/>
  <unicode hex="00C7"/>
  <outline>
    <contour>
      <point x="245.025" y="-189.33999999999997" type="curve" smooth="yes"/>
      <point x="303.79" y="-189.33999999999997"/>
      <point x="349.39" y="-159.95"/>
      <point x="349.39" y="-108.995" type="curve" smooth="yes"/>
      <point x="349.39" y="-77.975"/>
      <point x="335.04499999999996" y="-53.995"/>
      <point x="296.395" y="-40.0" type="curve"/>
      <point x="300.055" y="-32.345"/>
      <point x="303.04499999999996" y="-23.35"/>
      <point x="307.04499999999996" y="-15.025" type="curve"/>
      <point x="307.995" y="-15.02"/>
      <point x="307.65500000000003" y="-15.02"/>
      <point x="308.96999999999997" y="-15.02" type="curve" smooth="yes"/>
      <point x="373.815" y="-15.02"/>
      <point x="424.84000000000003" y="5.375"/>
      <point x="454.4" y="28.995000000000005" type="curve"/>
      <point x="429.03" y="100.775" type="line"/>
      <point x="397.42" y="79.78999999999999"/>
      <point x="367.765" y="64.425"/>
      <point x="312.995" y="64.425" type="curve" smooth="yes"/>
      <point x="198.025" y="64.425"/>
      <point x="151.79" y="169.045"/>
      <point x="151.79" y="357.34" type="curve" smooth="yes"/>
      <point x="151.79" y="541.9549999999999"/>
      <point x="197.005" y="629.5749999999999"/>
      <point x="303.02500000000003" y="629.5749999999999" type="curve" smooth="yes"/>
      <point x="351.73999999999995" y="629.5749999999999"/>
      <point x="386.04499999999996" y="614.1999999999999"/>
      <point x="418.02" y="593.545" type="curve"/>
      <point x="445.39" y="669.0" type="line"/>
      <point x="414.135" y="690.95"/>
      <point x="359.77" y="709.02"/>
      <point x="300.97" y="709.02" type="curve" smooth="yes"/>
      <point x="161.735" y="709.02"/>
      <point x="54.65" y="615.765"/>
      <point x="54.65" y="357.0" type="curve" smooth="yes"/>
      <point x="54.65" y="135.605"/>
      <point x="123.025" y="17.979999999999997"/>
      <point x="247.655" y="-9.02" type="curve"/>
      <point x="238.64999999999998" y="-28.03"/>
      <point x="228.97500000000002" y="-51.045"/>
      <point x="222.655" y="-70.375" type="curve"/>
      <point x="262.61" y="-78.375"/>
      <point x="274.945" y="-88.02"/>
      <point x="274.945" y="-102.66" type="curve" smooth="yes"/>
      <point x="274.945" y="-123.62499999999999"/>
      <point x="254.97000000000003" y="-129.61"/>
      <point x="231.025" y="-129.61" type="curve" smooth="yes"/>
      <point x="214.98" y="-129.61"/>
      <point x="199.66000000000003" y="-125.61"/>
      <point x="186.66" y="-122.60499999999999" type="curve"/>
      <point x="176.98000000000002" y="-178.0" type="line"/>
      <point x="198.955" y="-185.995"/>
      <point x="225.005" y="-189.33999999999997"/>
    </contour>
  </outline>
</glyph>
<glyph name="Eth" format="2">
  <advance width="576.3747500000001"/>
  <unicode hex="00D0"/>
  <outline>
    <contour>
      <point x="227.735" y="-7.34" type="curve" smooth="yes"/>
      <point x="404.37" y="-7.34"/>
      <point x="521.775" y="92.60499999999999"/>
      <point x="521.775" y="347.0" type="curve" smooth="yes"/>
      <point x="521.775" y="601.395"/>
      <point x="404.03000000000003" y="701.3399999999999"/>
      <point x="226.77499999999998" y="701.3399999999999" type="curve" smooth="yes"/>
      <point x="182.76999999999998" y="701.3399999999999"/>
      <point x="134.425" y="694.34"/>
      <point x="83.365" y="682.995" type="curve"/>
      <point x="83.365" y="380.045" type="line"/>
      <point x="14.974999999999998" y="380.045" type="line"/>
      <point x="14.974999999999998" y="313.625" type="line"/>
      <point x="83.365" y="313.625" type="line"/>
      <point x="83.365" y="11.0" type="line"/>
      <point x="134.395" y="-1.3450000000000002"/>
      <point x="182.735" y="-7.34"/>
    </contour>
    <contour>
      <point x="229.77" y="73.43" type="curve" smooth="yes"/>
      <point x="212.005" y="73.43"/>
      <point x="193.4" y="74.77499999999999"/>
      <point x="174.16" y="77.425" type="curve"/>
      <point x="174.16" y="313.625" type="line"/>
      <point x="281.77" y="313.625" type="line"/>
      <point x="281.77" y="380.045" type="line"/>
      <point x="174.16" y="380.045" type="line"/>
      <point x="174.16" y="616.58" type="line"/>
      <point x="193.4" y="619.23"/>
      <point x="211.97" y="620.57"/>
      <point x="231.14" y="620.57" type="curve" smooth="yes"/>
      <point x="367.055" y="620.57"/>
      <point x="424.635" y="538.575"/>
      <point x="424.635" y="347.0" type="curve" smooth="yes"/>
      <point x="424.635" y="154.735"/>
      <point x="367.05" y="73.43"/>
    </contour>
  </outline>
</glyph>
<glyph name="multiply" format="2">
  <advance width="430.0"/>
  <unicode hex="00D7"/>
  <outline>
    <contour>
      <point x="104.34" y="135.955" type="line"/>
      <point x="215.0" y="246.61" type="line"/>
      <point x="325.66" y="135.955" type="line"/>
      <point x="378.055" y="188.01999999999998" type="line"/>
      <point x="267.395" y="299.0" type="line"/>
      <point x="378.055" y="409.97499999999997" type="line"/>
      <point x="325.66" y="462.375" type="line"/>
      <point x="215.0" y="351.39" type="line"/>
      <point x="104.34" y="462.375" type="line"/>
      <point x="51.945" y="409.97499999999997" type="line"/>
      <point x="162.61" y="299.0" type="line"/>
      <point x="51.945" y="188.01999999999998" type="line"/>
    </contour>
  </outline>
</glyph>
<glyph name="Oslash" format="2">
  <advance width="605.54075"/>
  <unicode hex="00D8"/>
  <anchor x="303.03000000000003" y="0.0" name="bottom"/>
  <anchor x="303.03000000000003" y="693.0" name="top"/>
  <outline>
    <contour>
      <point x="120.055" y="-36.34" type="line"/>
      <point x="160.365" y="33.63" type="line"/>
      <point x="197.05" y="1.9699999999999998"/>
      <point x="245.05" y="-15.02"/>
      <point x="303.03000000000003" y="-15.02" type="curve" smooth="yes"/>
      <point x="471.65" y="-15.02"/>
      <point x="549.74" y="130.58"/>
      <point x="549.74" y="346.005" type="curve" smooth="yes"/>
      <point x="549.74" y="452.345"/>
      <point x="530.745" y="542.0"/>
      <point x="491.42999999999995" y="604.6550000000001" type="curve"/>
      <point x="544.735" y="696.9449999999999" type="line"/>
      <point x="486.98" y="730.345" type="line"/>
      <point x="446.34000000000003" y="659.3900000000001" type="line"/>
      <point x="409.0" y="691.37"/>
      <point x="361.0" y="709.02"/>
      <point x="303.03000000000003" y="709.02" type="curve" smooth="yes"/>
      <point x="134.4" y="709.02"/>
      <point x="55.65" y="562.765"/>
      <point x="55.65" y="346.005" type="curve" smooth="yes"/>
      <point x="55.65" y="239.00500000000002"/>
      <point x="74.97500000000001" y="150.35"/>
      <point x="114.95500000000001" y="86.365" type="curve"/>
      <point x="62.629999999999995" y="-2.9450000000000003" type="line"/>
    </contour>
    <contour>
      <point x="171.36499999999998" y="183.8" type="line"/>
      <point x="158.425" y="228.445"/>
      <point x="152.79000000000002" y="283.745"/>
      <point x="152.79000000000002" y="346.005" type="curve" smooth="yes"/>
      <point x="152.79000000000002" y="513.95"/>
      <point x="194.055" y="629.575"/>
      <point x="303.03000000000003" y="629.575" type="curve" smooth="yes"/>
      <point x="344.65999999999997" y="629.575"/>
      <point x="376.625" y="611.265"/>
      <point x="400.605" y="580.635" type="curve"/>
    </contour>
    <contour>
      <point x="303.03000000000003" y="64.425" type="curve" smooth="yes"/>
      <point x="261.055" y="64.425"/>
      <point x="229.745" y="81.74499999999999"/>
      <point x="205.77" y="111.05000000000001" type="curve"/>
      <point x="435.345" y="507.55" type="line"/>
      <point x="446.635" y="462.57"/>
      <point x="452.6" y="407.945"/>
      <point x="452.6" y="346.005" type="curve" smooth="yes"/>
      <point x="452.6" y="178.395"/>
      <point x="413.005" y="64.425"/>
    </contour>
  </outline>
</glyph>
<glyph name="Thorn" format="2">
  <advance width="486.47862499999997"/>
  <unicode hex="00DE"/>
  <anchor x="243.045" y="0.0" name="bottom"/>
  <anchor x="243.045" y="693.0" name="top"/>
  <outline>
    <contour>
      <point x="84.0" y="0.0" type="line"/>
      <point x="174.795" y="0.0" type="line"/>
      <point x="174.795" y="140.655" type="line"/>
      <point x="216.4" y="140.655" type="line" smooth="yes"/>
      <point x="356.66" y="140.655"/>
      <point x="452.765" y="201.63"/>
      <point x="452.765" y="363.35" type="curve" smooth="yes"/>
      <point x="452.765" y="521.005"/>
      <point x="359.425" y="584.375"/>
      <point x="221.39" y="584.375" type="curve" smooth="yes"/>
      <point x="205.45000000000002" y="584.375"/>
      <point x="189.415" y="583.375"/>
      <point x="174.795" y="582.0500000000001" type="curve"/>
      <point x="174.795" y="693.0" type="line"/>
      <point x="84.0" y="693.0" type="line"/>
    </contour>
    <contour>
      <point x="174.795" y="220.425" type="line"/>
      <point x="174.795" y="501.61" type="line"/>
      <point x="189.445" y="503.60499999999996"/>
      <point x="205.375" y="504.605"/>
      <point x="222.055" y="504.605" type="curve" smooth="yes"/>
      <point x="300.85999999999996" y="504.605"/>
      <point x="356.63" y="471.37"/>
      <point x="356.63" y="363.35" type="curve" smooth="yes"/>
      <point x="356.63" y="257.77000000000004"/>
      <point x="302.37" y="220.425"/>
      <point x="210.04500000000002" y="220.425" type="curve" smooth="yes"/>
    </contour>
  </outline>
</glyph>
<glyph name="germandbls" format="2">
  <advance width="487.769875"/>
  <unicode hex="00DF"/>
  <anchor x="244.395" y="0.0" name="bottom"/>
  <anchor x="244.395" y="776.0" name="top"/>
  <outline>
    <contour>
      <point x="297.365" y="-12.0" type="curve" smooth="yes"/>
      <point x="400.735" y="-12.0"/>
      <point x="452.765" y="66.97"/>
      <point x="452.765" y="164.0" type="curve" smooth="yes"/>
      <point x="452.765" y="233.82"/>
      <point x="427.945" y="279.795"/>
      <point x="394.03000000000003" y="310.745" type="curve"/>
      <point x="332.54" y="367.98"/>
      <point x="313.455" y="385.96999999999997"/>
      <point x="313.455" y="413.34" type="curve"/>
      <point x="313.455" y="432.34499999999997"/>
      <point x="321.735" y="445.625"/>
      <point x="347.76500000000004" y="483.65999999999997" type="curve"/>
      <point x="372.63" y="519.86"/>
      <point x="404.775" y="565.23"/>
      <point x="404.775" y="627.975" type="curve" smooth="yes"/>
      <point x="404.775" y="711.975"/>
      <point x="348.8" y="776.0"/>
      <point x="246.36999999999998" y="776.0" type="curve" smooth="yes"/>
      <point x="137.34" y="776.0"/>
      <point x="75.975" y="714.65"/>
      <point x="75.975" y="582.98" type="curve" smooth="yes"/>
      <point x="75.975" y="0.0" type="line"/>
      <point x="162.77" y="0.0" type="line"/>
      <point x="162.77" y="585.6550000000001" type="line"/>
      <point x="162.77" y="671.255"/>
      <point x="193.39000000000001" y="699.225"/>
      <point x="249.03" y="699.225" type="curve" smooth="yes"/>
      <point x="295.005" y="699.225"/>
      <point x="317.97999999999996" y="663.26"/>
      <point x="317.97999999999996" y="617.975" type="curve"/>
      <point x="317.97999999999996" y="569.625"/>
      <point x="297.95" y="541.6350000000001"/>
      <point x="275.0" y="510.34499999999997" type="curve"/>
      <point x="247.02999999999997" y="469.365"/>
      <point x="231.66" y="445.02500000000003"/>
      <point x="231.66" y="402.65500000000003" type="curve" smooth="yes"/>
      <point x="231.66" y="357.95000000000005"/>
      <point x="254.97000000000003" y="325.66"/>
      <point x="305.98" y="278.63500000000005" type="curve"/>
      <point x="344.625" y="242.635"/>
      <point x="364.96999999999997" y="221.66"/>
      <point x="364.96999999999997" y="164.995" type="curve" smooth="yes"/>
      <point x="364.96999999999997" y="115.05499999999999"/>
      <point x="345.65500000000003" y="68.77000000000001"/>
      <point x="287.41499999999996" y="68.77000000000001" type="curve" smooth="yes"/>
      <point x="269.625" y="68.77000000000001"/>
      <point x="253.97500000000002" y="71.815"/>
      <point x="236.395" y="76.445" type="curve"/>
      <point x="221.375" y="0.9999999999999999" type="line"/>
      <point x="245.94999999999996" y="-7.629999999999999"/>
      <point x="269.63" y="-12.0"/>
    </contour>
  </outline>
</glyph>
<glyph name="ae" format="2">
  <advance width="662.7922500000001"/>
  <unicode hex="00E6"/>
  <anchor x="332.005" y="0.0" name="bottom"/>
  <anchor x="332.005" y="520.35" name="top"/>
  <outline>
    <contour>
      <point x="215.02499999999998" y="-13.35" type="curve" smooth="yes"/>
      <point x="268.03" y="-13.35"/>
      <point x="310.03" y="1.0"/>
      <point x="352.0" y="24.63" type="curve"/>
      <point x="382.34999999999997" y="-0.3650000000000002"/>
      <point x="421.34499999999997" y="-13.35"/>
      <point x="472.97999999999996" y="-13.35" type="curve" smooth="yes"/>
      <point x="528.395" y="-13.35"/>
      <point x="572.4000000000001" y="5.34"/>
      <point x="589.025" y="16.98" type="curve"/>
      <point x="573.34" y="86.42" type="line"/>
      <point x="559.0450000000001" y="78.45"/>
      <point x="523.745" y="63.43"/>
      <point x="483.65000000000003" y="63.43" type="curve" smooth="yes"/>
      <point x="391.37" y="63.43"/>
      <point x="367.425" y="137.775"/>
      <point x="364.42" y="236.95000000000002" type="curve"/>
      <point x="613.03" y="236.95000000000002" type="line"/>
      <point x="614.03" y="252.63"/>
      <point x="614.03" y="267.655"/>
      <point x="614.03" y="282.26" type="curve" smooth="yes"/>
      <point x="614.03" y="444.43"/>
      <point x="569.95" y="538.3499999999999"/>
      <point x="450.97" y="538.3499999999999" type="curve" smooth="yes"/>
      <point x="402.445" y="538.3499999999999"/>
      <point x="360.765" y="515.45"/>
      <point x="330.375" y="470.815" type="curve"/>
      <point x="303.0" y="518.05"/>
      <point x="258.34" y="538.3499999999999"/>
      <point x="204.365" y="538.3499999999999" type="curve" smooth="yes"/>
      <point x="158.63500000000002" y="538.3499999999999"/>
      <point x="119.945" y="528.005"/>
      <point x="85.65" y="514.02" type="curve"/>
      <point x="103.995" y="440.255" type="line"/>
      <point x="134.63" y="453.23"/>
      <point x="160.25" y="459.575"/>
      <point x="191.045" y="459.575" type="curve" smooth="yes"/>
      <point x="247.04999999999998" y="459.575"/>
      <point x="277.625" y="431.815"/>
      <point x="277.625" y="356.35" type="curve" smooth="yes"/>
      <point x="277.625" y="308.04499999999996" type="line"/>
      <point x="253.04500000000002" y="313.02"/>
      <point x="228.025" y="316.03"/>
      <point x="205.36499999999998" y="316.03" type="curve" smooth="yes"/>
      <point x="111.74499999999999" y="316.03"/>
      <point x="40.65" y="261.05"/>
      <point x="40.65" y="152.0" type="curve" smooth="yes"/>
      <point x="40.65" y="37.95"/>
      <point x="118.73500000000001" y="-13.35"/>
    </contour>
    <contour>
      <point x="219.005" y="63.425" type="curve" smooth="yes"/>
      <point x="161.13500000000002" y="63.425"/>
      <point x="127.44500000000001" y="101.365"/>
      <point x="127.44500000000001" y="153.0" type="curve" smooth="yes"/>
      <point x="127.44500000000001" y="224.03"/>
      <point x="169.555" y="244.25500000000002"/>
      <point x="219.02" y="244.25500000000002" type="curve" smooth="yes"/>
      <point x="237.395" y="244.25500000000002"/>
      <point x="258.37" y="241.575"/>
      <point x="275.63000000000005" y="236.6" type="curve"/>
      <point x="277.63000000000005" y="177.635"/>
      <point x="286.63500000000005" y="127.34"/>
      <point x="305.26" y="87.045" type="curve"/>
      <point x="281.6" y="72.395"/>
      <point x="254.60000000000002" y="63.425"/>
    </contour>
    <contour>
      <point x="365.43" y="307.055" type="line"/>
      <point x="370.415" y="401.655"/>
      <point x="394.42" y="464.57500000000005"/>
      <point x="450.975" y="464.57500000000005" type="curve" smooth="yes"/>
      <point x="507.26" y="464.57500000000005"/>
      <point x="523.2249999999999" y="403.605"/>
      <point x="523.235" y="307.055" type="curve"/>
    </contour>
  </outline>
</glyph>
<glyph name="ccedilla" format="2">
  <advance width="353.29125"/>
  <unicode hex="00E7"/>
  <outline>
    <contour>
      <point x="181.365" y="-189.33999999999997" type="curve" smooth="yes"/>
      <point x="239.79999999999998" y="-189.33999999999997"/>
      <point x="285.4" y="-159.95"/>
      <point x="285.4" y="-108.995" type="curve" smooth="yes"/>
      <point x="285.4" y="-77.975"/>
      <point x="271.05499999999995" y="-53.995"/>
      <point x="232.73499999999999" y="-40.0" type="curve"/>
      <point x="235.395" y="-32.345"/>
      <point x="239.39499999999998" y="-22.35"/>
      <point x="244.39499999999998" y="-13.02" type="curve"/>
      <point x="282.735" y="-11.35"/>
      <point x="318.745" y="0.6500000000000001"/>
      <point x="338.39" y="15.634999999999998" type="curve"/>
      <point x="319.36499999999995" y="83.735" type="line"/>
      <point x="298.745" y="71.77"/>
      <point x="276.135" y="63.425"/>
      <point x="246.735" y="63.425" type="curve" smooth="yes"/>
      <point x="162.375" y="63.425"/>
      <point x="138.45000000000002" y="146.45499999999998"/>
      <point x="138.45000000000002" y="261.34499999999997" type="curve" smooth="yes"/>
      <point x="138.45000000000002" y="397.61"/>
      <point x="171.41500000000002" y="461.575"/>
      <point x="243.375" y="461.575" type="curve" smooth="yes"/>
      <point x="270.41499999999996" y="461.575"/>
      <point x="292.36499999999995" y="454.57"/>
      <point x="312.03000000000003" y="441.58" type="curve"/>
      <point x="334.39" y="513.35" type="line"/>
      <point x="308.745" y="527.3449999999999"/>
      <point x="278.345" y="538.02"/>
      <point x="239.35000000000002" y="538.02" type="curve" smooth="yes"/>
      <point x="110.66" y="538.02"/>
      <point x="47.98" y="433.65000000000003"/>
      <point x="47.98" y="261.34499999999997" type="curve" smooth="yes"/>
      <point x="47.98" y="126.375"/>
      <point x="82.63000000000001" y="20.005"/>
      <point x="185.005" y="-6.35" type="curve"/>
      <point x="174.99499999999998" y="-26.02"/>
      <point x="164.65" y="-50.045"/>
      <point x="158.995" y="-70.375" type="curve"/>
      <point x="198.95" y="-78.375"/>
      <point x="210.95499999999998" y="-88.02"/>
      <point x="210.955" y="-102.66" type="curve" smooth="yes"/>
      <point x="210.955" y="-123.62499999999999"/>
      <point x="190.98" y="-129.61"/>
      <point x="167.365" y="-129.61" type="curve" smooth="yes"/>
      <point x="150.655" y="-129.61"/>
      <point x="136.0" y="-125.61"/>
      <point x="123.0" y="-122.60499999999999" type="curve"/>
      <point x="112.655" y="-178.0" type="line"/>
      <point x="134.63" y="-185.995"/>
      <point x="161.345" y="-189.33999999999997"/>
    </contour>
  </outline>
</glyph>
<glyph name="eth" format="2">
  <advance width="461.64462499999996"/>
  <unicode hex="00F0"/>
  <anchor x="231.025" y="0.0" name="bottom"/>
  <anchor x="231.025" y="776.0" name="top"/>
  <outline>
    <contour>
      <point x="227.34" y="-13.02" type="curve" smooth="yes"/>
      <point x="365.58" y="-13.02"/>
      <point x="409.73999999999995" y="118.935"/>
      <point x="409.73999999999995" y="285.98" type="curve" smooth="yes"/>
      <point x="409.73999999999995" y="411.955"/>
      <point x="384.74499999999995" y="526.955"/>
      <point x="337.77" y="623.95" type="curve"/>
      <point x="426.76500000000004" y="665.9449999999999" type="line"/>
      <point x="401.735" y="723.35" type="line"/>
      <point x="306.395" y="678.35" type="line"/>
      <point x="285.735" y="713.345"/>
      <point x="260.745" y="746.34"/>
      <point x="233.76500000000001" y="775.0" type="curve"/>
      <point x="172.35" y="731.605" type="line"/>
      <point x="195.65" y="703.9499999999999"/>
      <point x="216.635" y="674.625"/>
      <point x="234.95" y="644.9749999999999" type="curve"/>
      <point x="158.02" y="609.005" type="line"/>
      <point x="183.04999999999998" y="551.5999999999999" type="line"/>
      <point x="262.66" y="588.5749999999999" type="line"/>
      <point x="278.955" y="553.255"/>
      <point x="290.61" y="516.625"/>
      <point x="299.26000000000005" y="477.74" type="curve"/>
      <point x="279.005" y="484.65"/>
      <point x="255.375" y="489.35"/>
      <point x="232.33999999999997" y="489.35" type="curve" smooth="yes"/>
      <point x="127.34" y="489.35"/>
      <point x="48.655" y="409.045"/>
      <point x="48.655" y="236.35" type="curve" smooth="yes"/>
      <point x="48.655" y="85.365"/>
      <point x="107.98" y="-13.02"/>
    </contour>
    <contour>
      <point x="224.35000000000002" y="62.425" type="curve" smooth="yes"/>
      <point x="173.05" y="62.425"/>
      <point x="139.455" y="111.77"/>
      <point x="139.455" y="234.35000000000002" type="curve" smooth="yes"/>
      <point x="139.455" y="355.23"/>
      <point x="172.03" y="418.575"/>
      <point x="240.34" y="418.575" type="curve" smooth="yes"/>
      <point x="270.97499999999997" y="418.575"/>
      <point x="293.95" y="408.605"/>
      <point x="312.61" y="395.63" type="curve"/>
      <point x="316.61" y="361.60999999999996"/>
      <point x="318.61" y="325.255"/>
      <point x="318.61" y="288.65000000000003" type="curve" smooth="yes"/>
      <point x="318.61" y="148.57999999999998"/>
      <point x="293.775" y="62.425"/>
    </contour>
  </outline>
</glyph>
<glyph name="divide" format="2">
  <advance width="430.0"/>
  <unicode hex="00F7"/>
  <outline>
    <contour>
      <point x="42.655" y="262.95" type="line"/>
      <point x="387.345" y="262.95" type="line"/>
      <point x="387.345" y="336.05" type="line"/>
      <point x="42.655" y="336.05" type="line"/>
    </contour>
    <contour>
      <point x="217.995" y="94.25" type="curve" smooth="yes"/>
      <point x="250.02499999999998" y="94.25"/>
      <point x="272.39" y="119.60499999999999"/>
      <point x="272.39" y="147.97" type="curve" smooth="yes"/>
      <point x="272.39" y="177.005"/>
      <point x="250.02499999999998" y="202.03"/>
      <point x="217.995" y="202.03" type="curve" smooth="yes"/>
      <point x="185.97" y="202.03"/>
      <point x="164.60500000000002" y="177.005"/>
      <point x="164.60500000000002" y="147.97" type="curve" smooth="yes"/>
      <point x="164.60500000000002" y="119.60499999999999"/>
      <point x="185.97" y="94.25"/>
    </contour>
    <contour>
      <point x="217.995" y="399.635" type="curve" smooth="yes"/>
      <point x="250.02499999999998" y="399.635"/>
      <point x="272.39" y="424.655"/>
      <point x="272.39" y="453.02500000000003" type="curve" smooth="yes"/>
      <point x="272.39" y="482.055"/>
      <point x="250.02499999999998" y="507.745"/>
      <point x="217.995" y="507.745" type="curve" smooth="yes"/>
      <point x="185.97" y="507.745"/>
      <point x="164.60500000000002" y="482.055"/>
      <point x="164.60500000000002" y="453.02500000000003" type="curve" smooth="yes"/>
      <point x="164.60500000000002" y="424.655"/>
      <point x="185.97" y="399.635"/>
    </contour>
  </outline>
</glyph>
<glyph name="oslash" format="2">
  <advance width="463.49899999999997"/>
  <unicode hex="00F8"/>
  <anchor x="232.35" y="520.35" name="top"/>
  <outline>
    <contour>
      <point x="90.05000000000001" y="-34.345" type="line"/>
      <point x="125.025" y="23.625" type="line"/>
      <point x="153.03" y="-0.03000000000000025"/>
      <point x="188.025" y="-13.02"/>
      <point x="232.35" y="-13.02" type="curve" smooth="yes"/>
      <point x="358.03000000000003" y="-13.02"/>
      <point x="415.055" y="97.975"/>
      <point x="415.055" y="261.995" type="curve" smooth="yes"/>
      <point x="415.055" y="334.995"/>
      <point x="403.39000000000004" y="398.66"/>
      <point x="379.39" y="445.655" type="curve"/>
      <point x="426.39" y="522.655" type="line"/>
      <point x="375.97999999999996" y="553.375" type="line"/>
      <point x="341.655" y="497.055" type="line"/>
      <point x="313.65500000000003" y="523.365"/>
      <point x="276.66" y="538.3499999999999"/>
      <point x="232.35" y="538.3499999999999" type="curve" smooth="yes"/>
      <point x="106.005" y="538.3499999999999"/>
      <point x="47.98" y="426.35"/>
      <point x="47.98" y="261.995" type="curve" smooth="yes"/>
      <point x="47.98" y="186.345"/>
      <point x="59.974999999999994" y="121.025"/>
      <point x="85.95500000000001" y="73.025" type="curve"/>
      <point x="39.635" y="-3.9549999999999996" type="line"/>
    </contour>
    <contour>
      <point x="232.35" y="64.425" type="curve" smooth="yes"/>
      <point x="205.045" y="64.425"/>
      <point x="184.74" y="76.745"/>
      <point x="170.765" y="98.05" type="curve"/>
      <point x="318.975" y="345.54499999999996" type="line"/>
      <point x="322.59999999999997" y="320.57"/>
      <point x="324.25" y="292.61"/>
      <point x="324.25" y="261.995" type="curve" smooth="yes"/>
      <point x="324.25" y="144.04999999999998"/>
      <point x="299.63" y="64.425"/>
    </contour>
    <contour>
      <point x="145.37" y="171.135" type="line"/>
      <point x="140.42000000000002" y="197.445"/>
      <point x="138.45000000000002" y="228.39"/>
      <point x="138.45000000000002" y="261.995" type="curve" smooth="yes"/>
      <point x="138.45000000000002" y="379.945"/>
      <point x="164.745" y="460.57"/>
      <point x="232.35" y="460.57" type="curve" smooth="yes"/>
      <point x="259.97499999999997" y="460.57"/>
      <point x="281.605" y="445.26"/>
      <point x="295.25" y="420.63" type="curve"/>
    </contour>
  </outline>
</glyph>
<glyph name="thorn" format="2">
  <advance width="467.43687500000004"/>
  <unicode hex="00FE"/>
  <anchor x="234.36499999999998" y="0.0" name="bottom"/>
  <anchor x="234.36499999999998" y="520.35" name="top"/>
  <outline>
    <contour>
      <point x="76.65" y="-183.0" type="line"/>
      <point x="163.445" y="-183.0" type="line"/>
      <point x="163.445" y="3.9449999999999994" type="line"/>
      <point x="184.045" y="-5.995"/>
      <point x="207.02" y="-13.02"/>
      <point x="238.4" y="-13.02" type="curve" smooth="yes"/>
      <point x="366.43" y="-13.02"/>
      <point x="419.41499999999996" y="83.005"/>
      <point x="419.41499999999996" y="259.98" type="curve" smooth="yes"/>
      <point x="419.41499999999996" y="435.03000000000003"/>
      <point x="357.34000000000003" y="538.3399999999999"/>
      <point x="224.655" y="538.3399999999999" type="curve" smooth="yes"/>
      <point x="203.39499999999998" y="538.3399999999999"/>
      <point x="182.815" y="534.735"/>
      <point x="163.445" y="529.445" type="curve"/>
      <point x="163.445" y="776.0" type="line"/>
      <point x="76.65" y="760.65" type="line"/>
    </contour>
    <contour>
      <point x="225.045" y="63.42500000000001" type="curve" smooth="yes"/>
      <point x="203.025" y="63.42500000000001"/>
      <point x="181.395" y="69.45"/>
      <point x="163.445" y="79.39999999999999" type="curve"/>
      <point x="163.445" y="455.02000000000004" type="line"/>
      <point x="181.375" y="459.605"/>
      <point x="199.005" y="461.22999999999996"/>
      <point x="213.625" y="461.22999999999996" type="curve" smooth="yes"/>
      <point x="292.25" y="461.22999999999996"/>
      <point x="328.945" y="403.97499999999997"/>
      <point x="328.945" y="260.98" type="curve" smooth="yes"/>
      <point x="328.945" y="112.45"/>
      <point x="291.39000000000004" y="63.42500000000001"/>
    </contour>
  </outline>
</glyph>
<glyph name="Aogonek" format="2">
  <advance width="503.83200000000005"/>
  <unicode hex="0104"/>
  <outline>
    <contour>
      <point x="423.73499999999996" y="-187.0" type="curve" smooth="yes"/>
      <point x="445.42499999999995" y="-187.0"/>
      <point x="467.79499999999996" y="-182.655"/>
      <point x="485.44500000000005" y="-175.66" type="curve"/>
      <point x="480.77" y="-112.585" type="line"/>
      <point x="468.445" y="-117.255"/>
      <point x="456.43" y="-119.255"/>
      <point x="444.41499999999996" y="-119.255" type="curve" smooth="yes"/>
      <point x="420.45500000000004" y="-119.255"/>
      <point x="401.45000000000005" y="-109.61"/>
      <point x="401.45000000000005" y="-82.63" type="curve" smooth="yes"/>
      <point x="401.45000000000005" y="-54.605000000000004"/>
      <point x="432.215" y="-27.585"/>
      <point x="483.445" y="0.3400000000000003" type="curve"/>
      <point x="423.795" y="291.605"/>
      <point x="363.43" y="494.415"/>
      <point x="299.45500000000004" y="693.0" type="curve"/>
      <point x="203.655" y="693.0" type="line"/>
      <point x="140.34" y="494.42499999999995"/>
      <point x="80.39" y="293.53499999999997"/>
      <point x="19.65" y="0.0" type="curve"/>
      <point x="107.455" y="0.0" type="line"/>
      <point x="117.45" y="60.0"/>
      <point x="128.775" y="118.975"/>
      <point x="141.43" y="176.60999999999999" type="curve"/>
      <point x="359.0" y="176.60999999999999" type="line"/>
      <point x="370.65000000000003" y="118.975"/>
      <point x="381.96999999999997" y="59.995"/>
      <point x="392.97" y="0.0" type="curve"/>
      <point x="392.97" y="0.0" type="line"/>
      <point x="348.39" y="-31.605000000000004"/>
      <point x="322.65000000000003" y="-63.625"/>
      <point x="322.65000000000003" y="-106.0" type="curve" smooth="yes"/>
      <point x="322.65000000000003" y="-155.66"/>
      <point x="364.97" y="-187.0"/>
    </contour>
    <contour>
      <point x="158.795" y="252.375" type="line"/>
      <point x="186.415" y="368.26000000000005"/>
      <point x="217.8" y="481.425"/>
      <point x="250.05" y="589.86" type="curve"/>
      <point x="282.625" y="481.425"/>
      <point x="314.34999999999997" y="368.58000000000004"/>
      <point x="340.63" y="252.375" type="curve"/>
    </contour>
  </outline>
</glyph>
